<svg width="20" height="20" viewBox="0 0 20 20" fill="none" xmlns="http://www.w3.org/2000/svg">
<path d="M8.03698 5.63332C7.9451 5.63332 7.89916 5.57511 7.88385 5.48364C7.62352 4.15313 7.63883 4.10324 6.35251 3.8205C6.26829 3.80387 6.20703 3.74566 6.20703 3.65419C6.20703 3.5544 6.26829 3.49619 6.35251 3.47956C7.63883 3.19683 7.62352 3.14694 7.88385 1.82475C7.89916 1.73327 7.9451 1.66675 8.03698 1.66675C8.12886 1.66675 8.1748 1.73327 8.19011 1.82475C8.45044 3.14694 8.43513 3.19683 9.72145 3.47956C9.80567 3.49619 9.86693 3.5544 9.86693 3.65419C9.86693 3.74566 9.80567 3.80387 9.72145 3.8205C8.43513 4.10324 8.45044 4.15313 8.19011 5.48364C8.1748 5.57511 8.12886 5.63332 8.03698 5.63332ZM14.3614 8.56875C14.2542 8.56875 14.1929 8.49391 14.17 8.3858C13.9096 6.80583 13.902 6.70604 12.363 6.41499C12.2635 6.39836 12.1869 6.32352 12.1869 6.2071C12.1869 6.09068 12.2635 6.02416 12.363 5.99921C13.902 5.71648 13.9096 5.61669 14.17 4.03671C14.1929 3.92861 14.2542 3.84545 14.3614 3.84545C14.4686 3.84545 14.5298 3.92861 14.5528 4.03671C14.8131 5.61669 14.8208 5.71648 16.3598 5.99921C16.467 6.02416 16.5359 6.09068 16.5359 6.2071C16.5359 6.32352 16.467 6.39836 16.3598 6.41499C14.8208 6.70604 14.8131 6.80583 14.5528 8.3858C14.5298 8.49391 14.4686 8.56875 14.3614 8.56875ZM3.84112 10.9553C3.73393 10.9553 3.67267 10.8722 3.6497 10.7641C3.38938 9.18411 3.38172 9.08432 1.84273 8.80159C1.74319 8.77664 1.66663 8.71011 1.66663 8.5937C1.66663 8.47728 1.74319 8.40243 1.84273 8.3858C3.38172 8.09476 3.38938 7.99497 3.6497 6.41499C3.67267 6.30689 3.73393 6.23205 3.84112 6.23205C3.94832 6.23205 4.00957 6.30689 4.03254 6.41499C4.29287 7.99497 4.30052 8.09476 5.83951 8.3858C5.93905 8.40243 6.01562 8.47728 6.01562 8.5937C6.01562 8.71011 5.93905 8.77664 5.83951 8.80159C4.30052 9.08432 4.29287 9.18411 4.03254 10.7641C4.00957 10.8722 3.94832 10.9553 3.84112 10.9553ZM16.9187 18.0652L9.63722 10.1404C9.3233 9.79115 9.31564 9.21737 9.63722 8.85148C9.94349 8.50222 10.4948 8.50222 10.8164 8.85148L18.0979 16.7846C18.4118 17.1339 18.4118 17.6993 18.0979 18.0652C17.7916 18.4228 17.2403 18.4228 16.9187 18.0652ZM7.47804 18.1983C7.33257 18.1983 7.23303 18.0902 7.21772 17.9488C6.94208 15.7285 6.88082 15.7285 4.75992 15.2878C4.62976 15.2545 4.53022 15.1631 4.53022 15.0051C4.53022 14.8471 4.62976 14.739 4.75992 14.7223C6.88082 14.398 6.94973 14.3232 7.21772 12.0696C7.23303 11.92 7.33257 11.8119 7.47804 11.8119C7.61586 11.8119 7.7154 11.92 7.73837 12.078C7.98338 14.2982 8.09823 14.2899 10.1962 14.7223C10.3263 14.7473 10.4259 14.8471 10.4259 15.0051C10.4259 15.1714 10.3263 15.2545 10.1655 15.2878C8.08292 15.6537 7.98338 15.7119 7.73837 17.9322C7.7154 18.0902 7.61586 18.1983 7.47804 18.1983ZM17.1867 17.4915C17.3322 17.6495 17.4777 17.6744 17.6155 17.5497C17.738 17.4 17.7074 17.2337 17.5695 17.0923L12.8454 11.9532L12.4625 12.3524L17.1867 17.4915Z" fill="#808080"/>
</svg>
