<svg width="32" height="32" viewBox="0 0 32 32" fill="none" xmlns="http://www.w3.org/2000/svg">
<path d="M28.7744 23.8986C28.2956 24.9701 27.7289 25.9563 27.0723 26.863C26.1773 28.0991 25.4445 28.9547 24.8797 29.4298C24.0043 30.2097 23.0663 30.6091 22.0618 30.6319C21.3407 30.6319 20.4711 30.4331 19.4588 30.0299C18.4433 29.6286 17.51 29.4298 16.6566 29.4298C15.7616 29.4298 14.8017 29.6286 13.7749 30.0299C12.7466 30.4331 11.9183 30.6432 11.2849 30.664C10.3217 30.7038 9.36163 30.293 8.4033 29.4298C7.79164 28.9131 7.02659 28.0272 6.11008 26.7721C5.12674 25.4319 4.31829 23.8778 3.68495 22.106C3.00665 20.1923 2.66663 18.3391 2.66663 16.5449C2.66663 14.4898 3.12508 12.7172 4.04334 11.2318C4.76502 10.0387 5.7251 9.09751 6.92673 8.40658C8.12835 7.71565 9.4267 7.36357 10.8249 7.34104C11.59 7.34104 12.5932 7.57028 13.84 8.0208C15.0833 8.47283 15.8815 8.70207 16.2315 8.70207C16.4932 8.70207 17.38 8.43403 18.8833 7.89965C20.305 7.40408 21.5049 7.19888 22.4878 7.27971C25.1514 7.48793 27.1524 8.50501 28.4832 10.3374C26.1011 11.7355 24.9227 13.6938 24.9462 16.2059C24.9677 18.1626 25.7005 19.7909 27.1407 21.0838C27.7934 21.6839 28.5223 22.1477 29.3333 22.477C29.1574 22.9711 28.9718 23.4443 28.7744 23.8986ZM22.6657 0.613508C22.6657 2.14719 22.0872 3.57919 20.9343 4.90463C19.5429 6.48032 17.8599 7.39082 16.0349 7.24715C16.0117 7.06316 15.9982 6.86951 15.9982 6.66602C15.9982 5.19368 16.6599 3.61799 17.8349 2.32965C18.4216 1.67734 19.1677 1.13496 20.0725 0.702286C20.9753 0.27607 21.8293 0.0403637 22.6324 0C22.6559 0.20503 22.6657 0.410072 22.6657 0.613488V0.613508Z" fill="black"/>
</svg>
