<svg width="14" height="12" viewBox="0 0 14 12" fill="none" xmlns="http://www.w3.org/2000/svg">
<path d="M3.33167 0.863075C3.4545 0.728555 3.59968 0.663163 3.76718 0.6669C3.93841 0.6669 4.08544 0.732291 4.20827 0.863075L7.02234 3.74966C7.14518 3.87671 7.2066 4.02057 7.2066 4.18125C7.2066 4.35687 7.15076 4.50074 7.03909 4.61284C6.93115 4.7212 6.79156 4.77538 6.62033 4.77538C6.45655 4.77538 6.32069 4.71746 6.21274 4.60163L5.05696 3.40215L4.31436 2.53898L4.35903 3.73285V10.7391C4.35903 10.911 4.30319 11.053 4.19152 11.1651C4.07985 11.2772 3.94027 11.3333 3.77276 11.3333C3.59781 11.3333 3.4545 11.2772 3.34284 11.1651C3.23489 11.053 3.18091 10.911 3.18091 10.7391V3.73285L3.22558 2.53898L2.4774 3.40215L1.3272 4.60163C1.21553 4.71746 1.07781 4.77538 0.914025 4.77538C0.742798 4.77538 0.603211 4.7212 0.495264 4.61284C0.387317 4.50074 0.333344 4.35687 0.333344 4.18125C0.333344 4.02057 0.394762 3.87671 0.517598 3.74966L3.33167 0.863075ZM10.6739 11.1427C10.5474 11.2735 10.4003 11.337 10.2328 11.3333C10.0653 11.3333 9.92017 11.2697 9.79733 11.1427L6.98326 8.24489C6.86042 8.12158 6.79901 7.97772 6.79901 7.8133C6.79901 7.63768 6.85298 7.49569 6.96093 7.38732C7.0726 7.27896 7.21404 7.22478 7.38527 7.22478C7.54533 7.22478 7.68119 7.28083 7.79286 7.39293L8.94306 8.5924L9.69124 9.46118L9.64658 8.26731V1.26103C9.64658 1.08914 9.70241 0.947151 9.81408 0.83505C9.92575 0.72295 10.0653 0.6669 10.2328 0.6669C10.4041 0.6669 10.5455 0.72295 10.6572 0.83505C10.7689 0.947151 10.8247 1.08914 10.8247 1.26103V8.26731L10.78 9.46118L11.5282 8.5924L12.6784 7.39293C12.7863 7.28083 12.9222 7.22478 13.086 7.22478C13.2572 7.22478 13.3968 7.27896 13.5048 7.38732C13.6127 7.49569 13.6667 7.63768 13.6667 7.8133C13.6667 7.97772 13.6071 8.12158 13.488 8.24489L10.6739 11.1427Z" fill="#4D4D4D"/>
</svg>
