<svg width="20" height="20" viewBox="0 0 20 20" fill="none" xmlns="http://www.w3.org/2000/svg">
<path d="M3.33301 15.7188V4.8516C3.33301 4.1815 3.50945 3.67408 3.86234 3.32932C4.21522 2.9797 4.69686 2.78547 5.30726 2.74662C6.14178 2.69321 6.94293 2.61795 7.71069 2.52083C8.48322 2.42371 9.22476 2.31203 9.9353 2.18578C10.6506 2.05468 11.3373 1.91143 11.9954 1.75605C12.7107 1.58124 13.2662 1.66379 13.662 2.00369C14.0579 2.33874 14.2558 2.88744 14.2558 3.6498V14.2912C14.2558 14.937 14.1461 15.4275 13.9267 15.7625C13.7074 16.1024 13.3306 16.3525 12.7965 16.5127C11.9334 16.7555 11.0989 16.9522 10.293 17.1027C9.48704 17.2581 8.69066 17.3795 7.90382 17.4669C7.12175 17.5543 6.33015 17.6199 5.529 17.6636C4.83277 17.7073 4.29152 17.5567 3.90525 17.212C3.52376 16.8721 3.33301 16.3744 3.33301 15.7188ZM4.67779 15.4785C4.67779 15.7552 4.75885 15.964 4.92099 16.1049C5.08313 16.2457 5.30487 16.3088 5.58623 16.2942C6.3683 16.2554 7.13129 16.1947 7.87521 16.1121C8.6239 16.0296 9.3559 15.9203 10.0712 15.7844C10.7913 15.6533 11.5066 15.4857 12.2171 15.2818C12.4746 15.2138 12.6535 15.1021 12.7536 14.9468C12.8585 14.7865 12.911 14.5534 12.911 14.2475V3.90473C12.911 3.60852 12.8275 3.38759 12.6606 3.24191C12.4937 3.09624 12.2624 3.05739 11.9668 3.12537C11.3135 3.28076 10.6363 3.424 9.9353 3.55511C9.23906 3.68136 8.52137 3.79304 7.78222 3.89016C7.04307 3.98242 6.28246 4.0504 5.50039 4.0941C5.26195 4.10381 5.06405 4.17179 4.90668 4.29804C4.75409 4.41944 4.67779 4.6161 4.67779 4.88802V15.4785ZM6.23 6.68709C6.10602 6.6968 6.00349 6.66038 5.92242 6.57783C5.84135 6.49528 5.80082 6.39574 5.80082 6.2792C5.80082 6.16266 5.8342 6.06312 5.90096 5.98057C5.97249 5.89317 6.08217 5.84461 6.23 5.8349C7.21236 5.77177 8.10888 5.67223 8.91956 5.53627C9.73501 5.4003 10.5242 5.24492 11.2872 5.07011C11.4494 5.03612 11.5734 5.06283 11.6592 5.15023C11.7498 5.23278 11.7951 5.33232 11.7951 5.44886C11.7951 5.55083 11.7665 5.64552 11.7093 5.73292C11.652 5.81547 11.54 5.87374 11.3731 5.90773C10.5719 6.09225 9.76124 6.25249 8.94102 6.38845C8.1208 6.52442 7.21713 6.62396 6.23 6.68709ZM6.23 8.9523C6.10602 8.95716 6.00349 8.91831 5.92242 8.83577C5.84135 8.75322 5.80082 8.65125 5.80082 8.52985C5.80082 8.41817 5.8342 8.32105 5.90096 8.2385C5.97249 8.1511 6.08217 8.10254 6.23 8.09283C7.21236 8.02485 8.10888 7.92531 8.91956 7.7942C9.73501 7.65824 10.5242 7.50528 11.2872 7.33533C11.4494 7.29648 11.5734 7.32076 11.6592 7.40817C11.7498 7.49072 11.7951 7.59026 11.7951 7.7068C11.7951 7.81362 11.7665 7.90831 11.7093 7.99086C11.652 8.06855 11.54 8.12925 11.3731 8.17295C10.5719 8.35262 9.76124 8.51043 8.94102 8.64639C8.1208 8.7775 7.21713 8.87947 6.23 8.9523ZM6.23 11.2102C6.10602 11.2151 6.00349 11.1762 5.92242 11.0937C5.84135 11.0112 5.80082 10.9092 5.80082 10.7878C5.80082 10.6761 5.8342 10.579 5.90096 10.4964C5.97249 10.4139 6.08217 10.3678 6.23 10.3581C7.21236 10.2852 8.10888 10.1832 8.91956 10.0521C9.73501 9.92103 10.5242 9.76807 11.2872 9.59327C11.4494 9.55442 11.5734 9.57627 11.6592 9.65882C11.7498 9.74137 11.7951 9.84334 11.7951 9.96473C11.7951 10.0716 11.7665 10.1662 11.7093 10.2488C11.652 10.3313 11.54 10.392 11.3731 10.4309C10.5719 10.6106 9.76124 10.7684 8.94102 10.9043C8.1208 11.0403 7.21713 11.1423 6.23 11.2102ZM6.23 13.4609C6.10602 13.4657 6.00349 13.4293 5.92242 13.3516C5.84135 13.2691 5.80082 13.1671 5.80082 13.0457C5.80082 12.934 5.8342 12.8369 5.90096 12.7544C5.97249 12.667 6.08217 12.6184 6.23 12.6087C6.78794 12.5747 7.26243 12.5334 7.65347 12.4849C8.04927 12.4315 8.41169 12.3805 8.74073 12.3319C8.90764 12.2979 9.03401 12.3246 9.11985 12.412C9.21045 12.4994 9.25575 12.6014 9.25575 12.718C9.25575 12.8151 9.22237 12.9073 9.15561 12.9947C9.09362 13.0821 9.00063 13.138 8.87664 13.1623C8.50945 13.2254 8.11842 13.2837 7.70354 13.3371C7.29343 13.3856 6.80225 13.4269 6.23 13.4609ZM9.24145 18.3337C9.85184 18.2365 10.4765 18.1176 11.1156 17.9768C11.7546 17.8408 12.4103 17.6806 13.0827 17.496C13.5643 17.3552 13.9672 17.1513 14.2915 16.8842C14.6206 16.622 14.8685 16.2797 15.0354 15.8572C15.2023 15.4348 15.2858 14.9128 15.2858 14.2912V3.68622C15.2858 3.56482 15.281 3.44586 15.2715 3.32932C15.262 3.20792 15.25 3.07924 15.2357 2.94328C15.7078 3.06468 16.0631 3.31232 16.3015 3.68622C16.5447 4.05525 16.6663 4.54812 16.6663 5.1648V15.9519C16.6663 16.7434 16.4732 17.3382 16.0869 17.7364C15.7054 18.1346 15.1308 18.3337 14.3631 18.3337H9.24145Z" fill="#808080"/>
</svg>
