<svg width="16" height="16" viewBox="0 0 16 16" fill="none" xmlns="http://www.w3.org/2000/svg">
<path d="M2 11.5497C2 11.3346 2.06147 11.1259 2.18442 10.9237C2.30737 10.7215 2.45999 10.5236 2.64229 10.3299C2.82883 10.1363 3.01325 9.94273 3.19555 9.74911C3.33545 9.60283 3.44356 9.41137 3.51987 9.17474C3.60042 8.9381 3.65978 8.68641 3.69793 8.41965C3.73609 8.1529 3.76365 7.89475 3.7806 7.64521C3.79332 6.79762 3.88023 6.0533 4.04134 5.41223C4.20244 4.76686 4.45469 4.22905 4.79809 3.79881C5.14573 3.36856 5.60148 3.05018 6.16534 2.84366C6.27133 2.42202 6.48543 2.06491 6.80763 1.77235C7.13408 1.47978 7.53047 1.3335 7.99682 1.3335C8.46741 1.3335 8.86381 1.47978 9.18601 1.77235C9.51245 2.06491 9.72867 2.42202 9.83466 2.84366C10.3985 3.05018 10.8521 3.36856 11.1955 3.79881C11.539 4.22905 11.7912 4.76686 11.9523 5.41223C12.1176 6.0533 12.2067 6.79762 12.2194 7.64521C12.2364 7.89475 12.2639 8.1529 12.3021 8.41965C12.3402 8.68641 12.3975 8.9381 12.4738 9.17474C12.5543 9.41137 12.6645 9.60283 12.8045 9.74911C12.9868 9.94273 13.1691 10.1363 13.3514 10.3299C13.5379 10.5236 13.6926 10.7215 13.8156 10.9237C13.9385 11.1259 14 11.3346 14 11.5497C14 11.7863 13.9152 11.9756 13.7456 12.1176C13.576 12.2596 13.3408 12.3306 13.0397 12.3306H10.3561C10.3392 12.7479 10.2268 13.133 10.0191 13.4858C9.81558 13.8429 9.54001 14.129 9.19237 14.3441C8.84473 14.5593 8.44621 14.6668 7.99682 14.6668C7.55167 14.6668 7.15527 14.5571 6.80763 14.3377C6.45999 14.1226 6.1823 13.8386 5.97456 13.4858C5.77107 13.133 5.66084 12.7479 5.64388 12.3306H2.96025C2.65925 12.3306 2.42395 12.2596 2.25437 12.1176C2.08479 11.9756 2 11.7863 2 11.5497ZM3.2337 11.3561H12.7599V11.2786C12.7218 11.2184 12.6582 11.1388 12.5692 11.0399C12.4844 10.9366 12.3847 10.8247 12.2703 10.7043C12.16 10.5838 12.0477 10.4612 11.9332 10.3364C11.8188 10.2073 11.7191 10.0589 11.6343 9.8911C11.5496 9.719 11.4775 9.52539 11.4181 9.31026C11.363 9.09514 11.3164 8.85635 11.2782 8.5939C11.2443 8.33145 11.221 8.04319 11.2083 7.72911C11.1913 6.79117 11.0938 6.04684 10.9157 5.49613C10.7419 4.94541 10.5087 4.53668 10.2162 4.26993C9.92793 3.99887 9.60148 3.81172 9.23688 3.70846C9.16057 3.69125 9.0991 3.66113 9.05246 3.6181C9.01007 3.57078 8.98887 3.50624 8.98887 3.42449C8.97615 3.0889 8.88076 2.81569 8.7027 2.60487C8.52888 2.38975 8.29359 2.28219 7.99682 2.28219C7.70429 2.28219 7.469 2.38975 7.29094 2.60487C7.11712 2.81569 7.02385 3.0889 7.01113 3.42449C7.00689 3.50624 6.98357 3.57078 6.94118 3.6181C6.89878 3.66113 6.83731 3.69125 6.75676 3.70846C6.39216 3.81172 6.06359 3.99887 5.77107 4.26993C5.48278 4.53668 5.25172 4.94541 5.0779 5.49613C4.90408 6.04684 4.80869 6.79117 4.79173 7.72911C4.77477 8.04319 4.74934 8.33145 4.71542 8.5939C4.6815 8.85635 4.63487 9.09514 4.57552 9.31026C4.51616 9.52539 4.44409 9.719 4.3593 9.8911C4.27451 10.0589 4.17488 10.2073 4.06041 10.3364C3.95019 10.4612 3.83784 10.5838 3.72337 10.7043C3.61314 10.8247 3.51351 10.9366 3.42448 11.0399C3.33545 11.1388 3.27186 11.2184 3.2337 11.2786V11.3561ZM6.63593 12.3306C6.65713 12.7694 6.79279 13.1158 7.04293 13.3696C7.2973 13.6278 7.61526 13.7569 7.99682 13.7569C8.38262 13.7569 8.70058 13.6278 8.95072 13.3696C9.20085 13.1158 9.33863 12.7694 9.36407 12.3306H6.63593Z" fill="#4D4D4D"/>
</svg>
