<svg width="20" height="20" viewBox="0 0 20 20" fill="none" xmlns="http://www.w3.org/2000/svg">
<path d="M1.66663 9.14966C1.66663 8.68456 1.74125 8.23832 1.89051 7.81093C2.04391 7.38354 2.26157 6.99386 2.54349 6.6419C2.82542 6.28574 3.16124 5.99034 3.55095 5.75569L4.13553 6.76131C3.72923 7.01272 3.40792 7.35002 3.1716 7.77322C2.93943 8.19642 2.82334 8.65313 2.82334 9.14337C2.82334 9.69647 2.9415 10.1804 3.17782 10.5952C3.41828 11.0101 3.75203 11.3327 4.17906 11.5631C4.6061 11.7936 5.10568 11.9088 5.67782 11.9088C6.22923 11.9088 6.7143 11.8104 7.13304 11.6134C7.55178 11.4123 7.87517 11.1337 8.10319 10.7775C8.33537 10.4172 8.45145 10.0002 8.45145 9.52677C8.45145 9.29631 8.41828 9.091 8.35195 8.91082C8.28561 8.73065 8.19026 8.57981 8.06588 8.4583C7.95394 8.35354 7.86066 8.26974 7.78603 8.20689C7.7114 8.13985 7.65543 8.07281 7.61812 8.00577C7.58081 7.93454 7.56215 7.84235 7.56215 7.72922C7.56215 7.57838 7.61397 7.45477 7.71762 7.3584C7.82542 7.26203 7.96223 7.21384 8.12807 7.21384C8.24416 7.21384 8.3478 7.23479 8.43901 7.27669C8.53023 7.31859 8.63802 7.39402 8.7624 7.50296C9.02359 7.72503 9.22674 8.01205 9.37185 8.36402C9.51696 8.7118 9.58951 9.10566 9.58951 9.54562C9.58951 10.2496 9.42575 10.8655 9.09822 11.3934C8.77069 11.9214 8.31049 12.332 7.71762 12.6253C7.12475 12.9186 6.4386 13.0653 5.65916 13.0653C4.86314 13.0653 4.16455 12.904 3.56339 12.5813C2.96223 12.2545 2.49581 11.7978 2.16414 11.2112C1.83246 10.6204 1.66663 9.9332 1.66663 9.14966ZM3.34573 5.81226C3.34573 5.30107 3.47011 4.85064 3.71886 4.46096C3.96762 4.06709 4.30344 3.75912 4.72633 3.53705C5.14921 3.31078 5.62185 3.19765 6.14424 3.19765C6.4925 3.19765 6.8449 3.25631 7.20145 3.37363C7.558 3.48676 7.89797 3.66275 8.22135 3.90158L7.54349 4.85064C7.31961 4.68722 7.08744 4.56571 6.84697 4.4861C6.60651 4.40649 6.37019 4.36668 6.13802 4.36668C5.82293 4.36668 5.54308 4.42953 5.29847 4.55524C5.05386 4.67675 4.859 4.84645 4.71389 5.06433C4.57293 5.27802 4.50245 5.52733 4.50245 5.81226C4.50245 6.06785 4.55842 6.29621 4.67036 6.49734C4.78644 6.69427 4.95021 6.8493 5.16165 6.96244C5.37309 7.07557 5.626 7.13214 5.92036 7.13214C6.07376 7.13214 6.20643 7.1908 6.31837 7.30812C6.43445 7.42125 6.4925 7.55743 6.4925 7.71665C6.4925 7.87587 6.43445 8.01415 6.31837 8.13147C6.20643 8.2446 6.07376 8.30117 5.92036 8.30117C5.39382 8.30117 4.93777 8.19642 4.5522 7.98691C4.17077 7.77322 3.87434 7.47991 3.66289 7.10699C3.45145 6.72989 3.34573 6.29831 3.34573 5.81226ZM6.70394 5.61114C6.72467 4.99938 6.87392 4.46096 7.1517 3.99586C7.42948 3.52657 7.80469 3.15994 8.27732 2.89596C8.75411 2.63199 9.29308 2.5 9.89424 2.5C10.3337 2.5 10.7462 2.58799 11.1318 2.76398C11.5174 2.93996 11.8408 3.18298 12.1019 3.49305C12.1807 3.4721 12.2574 3.45743 12.332 3.44905C12.4108 3.44067 12.4792 3.43648 12.5373 3.43648C12.9602 3.43648 13.3582 3.51609 13.7313 3.67532C14.1086 3.83454 14.4423 4.0629 14.7325 4.3604C15.0228 4.6537 15.2508 5.00357 15.4166 5.41001C15.5866 5.81645 15.6716 6.26479 15.6716 6.75503C15.6716 7.37097 15.5721 7.88425 15.3731 8.29488C15.1782 8.70551 14.9253 9.0491 14.6144 9.32564C14.3076 9.60219 13.9821 9.84312 13.638 10.0484C13.2939 10.2496 12.9664 10.4465 12.6554 10.6392C12.3486 10.832 12.0957 11.052 11.8967 11.2992C11.7019 11.5464 11.6044 11.8523 11.6044 12.2168C11.6044 12.6777 11.7827 13.0129 12.1393 13.2224C12.5 13.4319 12.983 13.5367 13.5883 13.5367C13.6795 13.5367 13.7728 13.5367 13.8681 13.5367C13.9635 13.5325 14.0485 13.5304 14.1231 13.5304C14.1853 13.5304 14.2309 13.5472 14.2599 13.5807C14.2931 13.61 14.3097 13.6498 14.3097 13.7001C14.3097 13.9724 14.3449 14.2469 14.4154 14.5234C14.4859 14.8 14.5957 15.0304 14.745 15.2148C14.8984 15.4034 15.0932 15.4976 15.3296 15.4976C15.5617 15.4976 15.7732 15.3824 15.9639 15.152C16.1546 14.9215 16.3059 14.6031 16.4179 14.1966C16.5298 13.7902 16.5858 13.3293 16.5858 12.8139C16.5858 12.4954 16.5733 12.2063 16.5485 11.9465C16.5277 11.6868 16.5029 11.4249 16.4738 11.1609L17.6243 10.8404C17.6575 11.1127 17.6845 11.4039 17.7052 11.714C17.7259 12.0241 17.7363 12.397 17.7363 12.8327C17.7363 13.323 17.6845 13.7986 17.5808 14.2595C17.4772 14.7204 17.3238 15.131 17.1206 15.4913C16.9216 15.8517 16.6708 16.1366 16.3681 16.3461C16.0696 16.5598 15.7234 16.6667 15.3296 16.6667C14.9689 16.6667 14.6517 16.5661 14.3781 16.365C14.1086 16.168 13.8888 15.9083 13.7189 15.5856C13.5489 15.2672 13.4349 14.9236 13.3768 14.5549C13.3105 14.5591 13.2421 14.5632 13.1716 14.5674C13.1011 14.5716 13.0348 14.5737 12.9726 14.5737C12.4875 14.5737 12.0522 14.4773 11.6666 14.2846C11.2811 14.0961 10.9763 13.83 10.7524 13.4864C10.5327 13.1386 10.4228 12.728 10.4228 12.2545C10.4228 11.7643 10.5203 11.3557 10.7151 11.0289C10.9141 10.6979 11.1691 10.413 11.4801 10.1741C11.791 9.93111 12.1206 9.70485 12.4689 9.49534C12.8171 9.28584 13.1447 9.06376 13.4515 8.82912C13.7624 8.59028 14.0174 8.30536 14.2164 7.97434C14.4154 7.64333 14.5149 7.23689 14.5149 6.75503C14.5149 6.31926 14.4133 5.94215 14.2102 5.62371C14.0112 5.30526 13.75 5.05804 13.4266 4.88206C13.1073 4.70189 12.7653 4.60971 12.4005 4.60552C12.2927 4.60552 12.1828 4.6118 12.0709 4.62437C11.9631 4.63694 11.8615 4.65789 11.7661 4.68722C11.6874 4.70398 11.6231 4.70817 11.5733 4.69979C11.5277 4.68722 11.4884 4.65161 11.4552 4.59295C11.335 4.3164 11.1318 4.09223 10.8457 3.92044C10.5597 3.74864 10.2404 3.66275 9.88802 3.66275C9.4983 3.66275 9.15212 3.75074 8.84946 3.92672C8.55095 4.09852 8.31256 4.33526 8.13429 4.63694C7.96016 4.93444 7.8648 5.27802 7.84822 5.6677C7.83993 5.84788 7.78188 5.99034 7.67409 6.09509C7.56629 6.19565 7.43362 6.24593 7.27608 6.24593C7.11024 6.24593 6.97135 6.18727 6.85941 6.06995C6.75162 5.95263 6.69979 5.79969 6.70394 5.61114ZM14.092 11.8648C14.092 11.7014 14.15 11.5611 14.2661 11.4437C14.3822 11.3222 14.5211 11.2698 14.6828 11.2866C15.4332 11.3495 16.0364 11.1881 16.4925 10.8026C16.9486 10.4172 17.1766 9.87664 17.1766 9.18109C17.1766 8.54419 16.9838 8.03091 16.5982 7.64123C16.2168 7.25155 15.7089 7.0609 15.0746 7.06928L15.2612 5.90025C15.8748 5.97567 16.4117 6.16423 16.8719 6.46591C17.3362 6.76341 17.6948 7.1468 17.9477 7.61609C18.2048 8.08538 18.3333 8.60704 18.3333 9.18109C18.3333 9.88083 18.1799 10.4863 17.8731 10.9975C17.5704 11.5045 17.1434 11.8858 16.592 12.1414C16.0406 12.3928 15.4 12.4954 14.6704 12.4493C14.5087 12.4368 14.3719 12.3781 14.2599 12.2734C14.148 12.1644 14.092 12.0282 14.092 11.8648ZM10.9452 12.5876L11.337 13.7064C11.0427 13.7986 10.7462 13.8656 10.4477 13.9075C10.1492 13.9494 9.86314 13.9703 9.58951 13.9703C8.89714 13.9703 8.26903 13.8509 7.70518 13.6121C7.14548 13.3691 6.69772 13.0485 6.3619 12.6505L7.38802 11.8523C7.52069 12.0492 7.70933 12.2189 7.95394 12.3614C8.19855 12.5038 8.47218 12.6149 8.77484 12.6945C9.08163 12.7699 9.39465 12.8076 9.71389 12.8076C9.92119 12.8076 10.1306 12.7887 10.342 12.751C10.5576 12.7133 10.7587 12.6589 10.9452 12.5876ZM8.79971 8.21318C9.39258 8.13775 9.81339 7.95549 10.0621 7.66637C10.3109 7.37725 10.4332 6.97291 10.4291 6.45334C10.4249 6.29412 10.4788 6.15794 10.5908 6.04481C10.7027 5.93168 10.8374 5.87511 10.995 5.87511C11.1525 5.87511 11.2893 5.93168 11.4054 6.04481C11.5215 6.15794 11.5816 6.29412 11.5858 6.45334C11.5899 7.22851 11.3951 7.8633 11.0012 8.35773C10.6115 8.85216 10.0083 9.1769 9.1915 9.33193L8.79971 8.21318Z" fill="#808080"/>
</svg>
