<svg width="24" height="24" viewBox="0 0 24 24" fill="none" xmlns="http://www.w3.org/2000/svg">
<path d="M4.32268 19.677C4.17706 19.5379 4.08108 19.3723 4.03475 19.1801C3.98842 18.988 3.98842 18.7959 4.03475 18.6037C4.0877 18.4116 4.18368 18.2493 4.32268 18.1168L10.4189 11.995L4.32268 5.88323C4.18368 5.75072 4.09101 5.58841 4.04468 5.39627C3.99835 5.20414 3.99835 5.01201 4.04468 4.81988C4.09101 4.62774 4.18368 4.46211 4.32268 4.32298C4.4683 4.17723 4.63709 4.08116 4.82904 4.03478C5.02099 3.98841 5.21295 3.98841 5.4049 4.03478C5.59686 4.08116 5.76233 4.17391 5.90133 4.31304L12.0074 10.4248L18.1036 4.31304C18.2426 4.16729 18.4081 4.07453 18.6001 4.03478C18.792 3.98841 18.9807 3.98841 19.166 4.03478C19.3579 4.08116 19.53 4.17723 19.6823 4.32298C19.8213 4.46211 19.914 4.62774 19.9603 4.81988C20.0132 5.01201 20.0132 5.20414 19.9603 5.39627C19.914 5.58178 19.8213 5.74741 19.6823 5.89317L13.5861 11.995L19.6823 18.1068C19.8213 18.2526 19.914 18.4215 19.9603 18.6137C20.0066 18.7992 20.0066 18.988 19.9603 19.1801C19.914 19.3723 19.8213 19.5379 19.6823 19.677C19.5367 19.8228 19.3679 19.9188 19.1759 19.9652C18.984 20.0116 18.792 20.0116 18.6001 19.9652C18.4081 19.9188 18.2426 19.8261 18.1036 19.687L12.0074 13.5752L5.90133 19.687C5.76233 19.8261 5.59686 19.9188 5.4049 19.9652C5.21957 20.0116 5.02761 20.0116 4.82904 19.9652C4.63709 19.9188 4.4683 19.8228 4.32268 19.677Z" fill="black" fill-opacity="0.2"/>
</svg>
