<svg width="13" height="8" viewBox="0 0 13 8" fill="none" xmlns="http://www.w3.org/2000/svg">
<path d="M6.50339 7.33341C6.38594 7.33341 6.27753 7.31159 6.17815 7.26793C6.07877 7.22427 5.98391 7.15878 5.89356 7.07146L0.730378 1.96996C0.576793 1.82588 0.5 1.64688 0.5 1.43296C0.5 1.29325 0.536138 1.16446 0.608414 1.04658C0.676172 0.928699 0.771033 0.834833 0.892999 0.764979C1.01045 0.699491 1.14145 0.666748 1.286 0.666748C1.50282 0.666748 1.69481 0.745333 1.86194 0.902504L6.50339 5.49975L11.1448 0.902504C11.312 0.745333 11.5017 0.666748 11.714 0.666748C11.8631 0.666748 11.9963 0.699492 12.1138 0.76498C12.2312 0.834834 12.3238 0.9287 12.3916 1.04658C12.4639 1.16446 12.5 1.29325 12.5 1.43296C12.5 1.64688 12.4255 1.82588 12.2764 1.96996L7.11321 7.07146C7.02287 7.15878 6.92801 7.22427 6.82863 7.26793C6.72925 7.31159 6.62084 7.33341 6.50339 7.33341Z" fill="white"/>
</svg>
