<svg width="29" height="28" viewBox="0 0 29 28" fill="none" xmlns="http://www.w3.org/2000/svg">
<path d="M9.54134 25.6667C8.70801 25.6667 8.21842 25.0875 8.21842 24.1503V21.5492H7.65592C4.63509 21.5492 2.83301 19.738 2.83301 16.6105V8.4388C2.83301 5.31124 4.59342 3.5 7.72884 3.5H21.2809C24.4059 3.5 26.1663 5.31124 26.1663 8.4388V16.6105C26.1663 19.738 24.4059 21.5492 21.2809 21.5492H14.8434L11.2705 24.7505C10.5518 25.3823 10.1247 25.6667 9.54134 25.6667ZM10.0413 23.35L13.3434 20.0539C13.7913 19.5906 14.0934 19.4853 14.7288 19.4853H21.2184C23.1768 19.4853 24.1247 18.4849 24.1247 16.5473V8.50198C24.1247 6.56437 23.1768 5.56397 21.2184 5.56397H7.78092C5.81217 5.56397 4.87467 6.56437 4.87467 8.50198V16.5473C4.87467 18.4849 5.81217 19.4853 7.78092 19.4853H9.19759C9.79134 19.4853 10.0413 19.7275 10.0413 20.3488V23.35Z" fill="#CCCCCC"/>
</svg>
