<svg width="16" height="16" viewBox="0 0 16 16" fill="none" xmlns="http://www.w3.org/2000/svg">
<path d="M5.20375 4.33615V3.05733C5.20375 2.49129 5.34385 2.06327 5.62406 1.77326C5.90426 1.47976 6.31945 1.33301 6.86961 1.33301H8.79689C9.09418 1.33301 9.35901 1.37668 9.59138 1.46404C9.82716 1.54789 10.0407 1.69115 10.2321 1.8938L12.7847 4.55104C12.9863 4.76418 13.1281 4.99129 13.2102 5.23238C13.2922 5.46998 13.3332 5.76173 13.3332 6.10764V10.2586C13.3332 10.8246 13.1914 11.2526 12.9077 11.5427C12.6275 11.8327 12.2141 11.9777 11.6673 11.9777H10.6165V10.9504H11.575C11.8245 10.9504 12.0107 10.8858 12.1337 10.7565C12.2602 10.6237 12.3234 10.4368 12.3234 10.1957V5.85607H10.0681C9.75028 5.85607 9.50937 5.77396 9.34534 5.60974C9.18132 5.44202 9.09931 5.19569 9.09931 4.87074V2.3655H6.95162C6.70559 2.3655 6.51935 2.43014 6.39292 2.55942C6.2699 2.6887 6.20839 2.87564 6.20839 3.12022V4.33615H5.20375ZM9.93993 4.73972C9.93993 4.83056 9.95872 4.89695 9.99631 4.93888C10.0373 4.97731 10.1005 4.99653 10.186 4.99653H12.062L9.93993 2.79527V4.73972ZM2.6665 12.9473V5.74601C2.6665 5.17997 2.80661 4.75195 3.08681 4.46194C3.36702 4.16844 3.78221 4.02169 4.33237 4.02169H6.11613C6.42709 4.02169 6.68338 4.05663 6.88499 4.12651C7.09002 4.1929 7.29505 4.33441 7.50008 4.55104L10.2782 7.43364C10.4217 7.58388 10.5311 7.72714 10.6063 7.86341C10.6815 7.99967 10.731 8.15167 10.7549 8.31938C10.7823 8.4836 10.7959 8.68276 10.7959 8.91687V12.9473C10.7959 13.5133 10.6558 13.9413 10.3756 14.2313C10.0954 14.5213 9.68023 14.6663 9.13006 14.6663H4.33237C3.78221 14.6663 3.36702 14.5213 3.08681 14.2313C2.80661 13.9448 2.6665 13.5168 2.6665 12.9473ZM3.67627 12.8844C3.67627 13.129 3.73778 13.3159 3.8608 13.4452C3.98382 13.5744 4.16835 13.6391 4.41438 13.6391H9.04293C9.28896 13.6391 9.47349 13.5744 9.59651 13.4452C9.72294 13.3159 9.78616 13.129 9.78616 12.8844V9.03741H7.07977C6.71755 9.03741 6.44588 8.94657 6.26477 8.76487C6.08366 8.57969 5.99311 8.29842 5.99311 7.92106V5.05418H4.41951C4.17005 5.05418 3.98382 5.11882 3.8608 5.2481C3.73778 5.37738 3.67627 5.56257 3.67627 5.80366V12.8844ZM7.18228 8.1307H9.64776L6.87986 5.25334V7.82148C6.87986 7.92979 6.90378 8.00841 6.95162 8.05733C6.99946 8.10624 7.07635 8.1307 7.18228 8.1307Z" fill="#4D4D4D"/>
</svg>
