<svg width="16" height="16" viewBox="0 0 16 16" fill="none" xmlns="http://www.w3.org/2000/svg">
<path d="M5.0215 11.7111C4.86479 11.7784 4.7119 11.8009 4.56283 11.7784C4.41376 11.756 4.28189 11.6887 4.16722 11.5765L3.34161 10.7686C3.22312 10.6527 3.15432 10.5218 3.13521 10.3759C3.1161 10.23 3.13903 10.0804 3.20401 9.92709L4.01242 8.07016C4.043 8.00284 4.07358 7.94861 4.10416 7.90747C4.13473 7.86259 4.17296 7.81771 4.21882 7.77283L9.75155 2.39839C10.0268 2.12911 10.3192 1.99634 10.6288 2.00008C10.9422 2.00382 11.2384 2.14033 11.5174 2.40961L12.7559 3.63261C13.0349 3.90563 13.1744 4.19548 13.1744 4.50216C13.1744 4.80511 13.0368 5.09122 12.7616 5.3605L7.23459 10.7349C7.1849 10.7798 7.13712 10.8191 7.09126 10.8528C7.04921 10.8827 6.99188 10.9107 6.91925 10.9369L5.0215 11.7111ZM4.91257 10.7293L6.54085 10.0561L12.0105 4.73779C12.171 4.58071 12.1768 4.42736 12.0277 4.27776L10.8581 3.12209C10.7855 3.05103 10.7071 3.01737 10.623 3.02111C10.5428 3.02485 10.4644 3.06038 10.388 3.1277L4.91257 8.45165L4.21309 10.0449C4.19398 10.0973 4.18634 10.1459 4.19016 10.1908C4.19398 10.2319 4.22074 10.2749 4.27043 10.3198L4.63163 10.6732C4.6775 10.7219 4.72145 10.748 4.7635 10.7518C4.80936 10.7555 4.85905 10.748 4.91257 10.7293ZM2.68227 12.0084C2.54467 12.0084 2.45676 11.9598 2.41854 11.8626C2.38414 11.7653 2.41089 11.6718 2.49881 11.5821L3.49068 10.5666L4.37363 11.4418L3.80029 11.8794C3.73913 11.928 3.68371 11.9617 3.63402 11.9804C3.58433 11.9991 3.51553 12.0084 3.42762 12.0084H2.68227ZM4.27616 8.4236L4.88963 7.82332L7.30339 10.1964L6.68992 10.7967L4.27616 8.4236ZM9.05781 3.77847L9.67129 3.1838L12.0908 5.55686L11.4716 6.15152L9.05781 3.77847ZM2.49881 14C2.3612 14 2.24271 13.9495 2.14333 13.8485C2.04778 13.7513 2 13.6372 2 13.5063C2 13.3717 2.04778 13.2557 2.14333 13.1585C2.24271 13.0612 2.3612 13.0126 2.49881 13.0126H13.4955C13.6331 13.0126 13.7516 13.0612 13.8509 13.1585C13.9503 13.2557 14 13.3717 14 13.5063C14 13.6372 13.9503 13.7513 13.8509 13.8485C13.7516 13.9495 13.6331 14 13.4955 14H2.49881Z" fill="#808080"/>
</svg>
