<svg width="20" height="20" viewBox="0 0 20 20" fill="none" xmlns="http://www.w3.org/2000/svg">
<path d="M4.86465 17.3545C4.51658 17.1105 4.44252 16.7062 4.64248 16.1556L6.16804 11.8965L2.28008 9.26853C1.7765 8.93394 1.56914 8.56449 1.70985 8.17413C1.85055 7.79074 2.23565 7.60254 2.85031 7.60951L7.61954 7.63739L9.07104 3.35739C9.26359 2.79974 9.56722 2.5 9.99675 2.5C10.4337 2.5 10.7373 2.79974 10.9225 3.35739L12.374 7.63739L17.1432 7.60951C17.7578 7.60254 18.1503 7.79074 18.2911 8.17413C18.4318 8.56449 18.217 8.93394 17.7208 9.26853L13.8329 11.8965L15.351 16.1556C15.551 16.7062 15.4769 17.1105 15.1363 17.3545C14.7882 17.6055 14.3513 17.5218 13.8477 17.1802L9.99675 14.5174L6.14582 17.1802C5.64224 17.5218 5.21271 17.6055 4.86465 17.3545Z" fill="#808080"/>
</svg>
