<svg width="20" height="20" viewBox="0 0 20 20" fill="none" xmlns="http://www.w3.org/2000/svg">
<path d="M1.66663 15.3576V5.80266C1.66663 5.7323 1.67155 5.66663 1.68139 5.60566C1.69616 5.54468 1.7257 5.48135 1.77001 5.41568C2.00139 5.03104 2.33615 4.68159 2.77429 4.36731C3.21736 4.05303 3.73427 3.80208 4.32502 3.61445C4.9207 3.42682 5.56315 3.33301 6.25236 3.33301C7.03511 3.33301 7.75632 3.46435 8.416 3.72703C9.0806 3.98971 9.60982 4.33213 10.0037 4.75429C10.3876 4.33213 10.9095 3.98971 11.5692 3.72703C12.2338 3.46435 12.9623 3.33301 13.7549 3.33301C14.4343 3.33301 15.0694 3.42682 15.6601 3.61445C16.2558 3.80208 16.7752 4.05303 17.2182 4.36731C17.6613 4.68159 17.9985 5.03104 18.2299 5.41568C18.2693 5.48135 18.2964 5.54468 18.3111 5.60566C18.3259 5.66663 18.3333 5.7323 18.3333 5.80266V15.3576C18.3333 15.6766 18.2373 15.9111 18.0453 16.0612C17.8533 16.216 17.6244 16.2934 17.3585 16.2934C17.2207 16.2934 17.0878 16.2629 16.9598 16.202C16.8318 16.141 16.6866 16.0612 16.5241 15.9627C16.1204 15.7094 15.6847 15.5101 15.2171 15.3647C14.7494 15.2193 14.2719 15.1489 13.7845 15.1536C13.2626 15.1583 12.7556 15.2497 12.2633 15.428C11.7759 15.6109 11.3329 15.8853 10.9341 16.2512C10.7618 16.406 10.6018 16.5139 10.4541 16.5749C10.3064 16.6359 10.1563 16.6663 10.0037 16.6663C9.84612 16.6663 9.69351 16.6359 9.54582 16.5749C9.39813 16.5139 9.23813 16.406 9.06583 16.2512C8.66215 15.8853 8.21416 15.6109 7.72186 15.428C7.23449 15.2497 6.73235 15.1583 6.21544 15.1536C5.72807 15.1489 5.25054 15.2193 4.78286 15.3647C4.31518 15.5101 3.87703 15.7094 3.46843 15.9627C3.31089 16.0612 3.16813 16.141 3.04013 16.202C2.91213 16.2629 2.77921 16.2934 2.64137 16.2934C2.37553 16.2934 2.14661 16.216 1.95462 16.0612C1.76262 15.9111 1.66663 15.6766 1.66663 15.3576ZM3.12136 14.5766C3.50535 14.328 3.97057 14.1334 4.51702 13.9926C5.06347 13.8472 5.64191 13.7745 6.25236 13.7745C6.63635 13.7745 7.01296 13.8144 7.38218 13.8941C7.7514 13.9692 8.09601 14.0747 8.416 14.2108C8.73599 14.3468 9.02152 14.5039 9.27259 14.6822V6.04893C9.02152 5.64553 8.6203 5.32421 8.06893 5.08499C7.52248 4.84107 6.91696 4.71911 6.25236 4.71911C5.81422 4.71911 5.3933 4.77305 4.98962 4.88094C4.58594 4.98883 4.22164 5.13893 3.89673 5.33125C3.57181 5.52357 3.31335 5.75107 3.12136 6.01375V14.5766ZM10.7273 14.6822C10.9735 14.5039 11.259 14.3468 11.5839 14.2108C11.9088 14.0747 12.2534 13.9692 12.6177 13.8941C12.987 13.8144 13.366 13.7745 13.7549 13.7745C14.3555 13.7745 14.9291 13.8472 15.4755 13.9926C16.022 14.1334 16.4896 14.328 16.8786 14.5766V6.01375C16.6866 5.75107 16.4256 5.52357 16.0958 5.33125C15.7709 5.13893 15.4066 4.98883 15.0029 4.88094C14.6042 4.77305 14.1882 4.71911 13.7549 4.71911C13.0805 4.71911 12.4701 4.84107 11.9236 5.08499C11.3772 5.32421 10.9784 5.64553 10.7273 6.04893V14.6822Z" fill="#808080"/>
</svg>
