<svg width="24" height="24" viewBox="0 0 24 24" fill="none" xmlns="http://www.w3.org/2000/svg">
<path d="M2 10.0892C2 8.97415 2.21153 7.93006 2.6346 6.95692C3.05766 5.97702 3.64449 5.11539 4.39509 4.37202C5.14568 3.62865 6.01228 3.04747 6.99488 2.62848C7.98431 2.20949 9.04197 2 10.1679 2C11.2938 2 12.348 2.20949 13.3306 2.62848C14.32 3.04747 15.19 3.62865 15.9406 4.37202C16.6912 5.11539 17.2781 5.97702 17.7011 6.95692C18.1242 7.93006 18.3357 8.97415 18.3357 10.0892C18.3357 11.015 18.1856 11.8936 17.8854 12.7248C17.5919 13.556 17.1825 14.3095 16.6571 14.9853L21.6622 19.9726C21.7714 20.0808 21.8533 20.2058 21.9079 20.3477C21.9693 20.4896 22 20.6417 22 20.8039C22 21.0269 21.9488 21.2296 21.8465 21.4121C21.7509 21.5945 21.6145 21.7364 21.4371 21.8378C21.2596 21.9459 21.0549 22 20.8229 22C20.6592 22 20.5022 21.9696 20.3521 21.9088C20.2088 21.8547 20.0757 21.7702 19.9529 21.6553L14.9171 16.6579C14.2484 17.1309 13.5114 17.5026 12.7062 17.7729C11.9011 18.0433 11.0549 18.1784 10.1679 18.1784C9.04197 18.1784 7.98431 17.9689 6.99488 17.5499C6.01228 17.1309 5.14568 16.5498 4.39509 15.8064C3.64449 15.063 3.05766 14.2048 2.6346 13.2316C2.21153 12.2517 2 11.2043 2 10.0892ZM3.75026 10.0892C3.75026 10.9677 3.91402 11.7922 4.24156 12.5626C4.57591 13.3262 5.03651 13.9986 5.62334 14.5798C6.21699 15.161 6.89935 15.6172 7.67042 15.9483C8.44831 16.2794 9.28079 16.445 10.1679 16.445C11.0549 16.445 11.884 16.2794 12.6551 15.9483C13.433 15.6172 14.1153 15.161 14.7021 14.5798C15.289 13.9986 15.7496 13.3262 16.0839 12.5626C16.4183 11.7922 16.5855 10.9677 16.5855 10.0892C16.5855 9.21068 16.4183 8.38959 16.0839 7.62595C15.7496 6.85555 15.289 6.17976 14.7021 5.59858C14.1153 5.01064 13.433 4.55449 12.6551 4.23011C11.884 3.89897 11.0549 3.7334 10.1679 3.7334C9.28079 3.7334 8.44831 3.89897 7.67042 4.23011C6.89935 4.55449 6.21699 5.01064 5.62334 5.59858C5.03651 6.17976 4.57591 6.85555 4.24156 7.62595C3.91402 8.38959 3.75026 9.21068 3.75026 10.0892Z" fill="#FF2D55"/>
</svg>
