<svg width="30" height="30" viewBox="0 0 30 30" fill="none" xmlns="http://www.w3.org/2000/svg">
<g clip-path="url(#clip0_2427_1491)">
<path fill-rule="evenodd" clip-rule="evenodd" d="M29.08 15.334C29.08 14.294 28.9867 13.294 28.8133 12.334H15V18.0073H22.8933C22.5533 19.8407 21.52 21.394 19.9667 22.434V26.114H24.7067C27.48 23.5607 29.08 19.8007 29.08 15.334Z" fill="#4285F4"/>
<path fill-rule="evenodd" clip-rule="evenodd" d="M15.0001 29.6671C18.9601 29.6671 22.2801 28.3538 24.7068 26.1138L19.9668 22.4338C18.6534 23.3138 16.9734 23.8338 15.0001 23.8338C11.1801 23.8338 7.94676 21.2538 6.79343 17.7871H1.89343V21.5871C4.30677 26.3804 9.26677 29.6671 15.0001 29.6671Z" fill="#34A853"/>
<path fill-rule="evenodd" clip-rule="evenodd" d="M6.79337 17.7874C6.50004 16.9074 6.33337 15.9674 6.33337 15.0007C6.33337 14.0341 6.50004 13.0941 6.79337 12.2141V8.41406H1.89337C0.900041 10.3941 0.333374 12.6341 0.333374 15.0007C0.333374 17.3674 0.900041 19.6074 1.89337 21.5874L6.79337 17.7874Z" fill="#FBBC05"/>
<path fill-rule="evenodd" clip-rule="evenodd" d="M15.0001 6.16732C17.1534 6.16732 19.0868 6.90732 20.6068 8.36065L24.8134 4.15398C22.2734 1.78732 18.9534 0.333984 15.0001 0.333984C9.26677 0.333984 4.30677 3.62065 1.89343 8.41398L6.79343 12.214C7.94677 8.74732 11.1801 6.16732 15.0001 6.16732Z" fill="#EA4335"/>
</g>
<defs>
<clipPath id="clip0_2427_1491">
<rect x="0.333374" y="0.333984" width="29.3333" height="29.3333" rx="6" fill="white"/>
</clipPath>
</defs>
</svg>
