<svg width="20" height="20" viewBox="0 0 20 20" fill="none" xmlns="http://www.w3.org/2000/svg">
<path d="M1.66669 8.40751C1.66669 7.4783 1.84296 6.60822 2.19552 5.79727C2.54807 4.98069 3.0371 4.26266 3.66259 3.64319C4.28809 3.02372 5.01026 2.5394 5.82909 2.19024C6.65361 1.84108 7.53499 1.6665 8.47324 1.6665C9.41148 1.6665 10.29 1.84108 11.1089 2.19024C11.9334 2.5394 12.6584 3.02372 13.2839 3.64319C13.9094 4.26266 14.3984 4.98069 14.751 5.79727C15.1035 6.60822 15.2798 7.4783 15.2798 8.40751C15.2798 9.17903 15.1547 9.91114 14.9045 10.6038C14.66 11.2965 14.3188 11.9244 13.8809 12.4876L18.0519 16.6437C18.1429 16.7338 18.2111 16.838 18.2566 16.9562C18.3078 17.0745 18.3334 17.2012 18.3334 17.3364C18.3334 17.5222 18.2907 17.6912 18.2054 17.8432C18.1258 17.9953 18.0121 18.1135 17.8642 18.198C17.7164 18.2881 17.5458 18.3332 17.3525 18.3332C17.216 18.3332 17.0852 18.3078 16.9601 18.2571C16.8407 18.2121 16.7298 18.1417 16.6275 18.046L12.4309 13.8814C11.8737 14.2756 11.2595 14.5854 10.5886 14.8106C9.91757 15.0359 9.21246 15.1485 8.47324 15.1485C7.53499 15.1485 6.65361 14.9739 5.82909 14.6248C5.01026 14.2756 4.28809 13.7913 3.66259 13.1718C3.0371 12.5524 2.54807 11.8371 2.19552 11.0262C1.84296 10.2096 1.66669 9.33672 1.66669 8.40751ZM3.12523 8.40751C3.12523 9.13961 3.26171 9.82667 3.53465 10.4687C3.81328 11.105 4.19711 11.6654 4.68613 12.1497C5.18085 12.634 5.74948 13.0141 6.39204 13.2901C7.04028 13.566 7.73401 13.704 8.47324 13.704C9.21246 13.704 9.90335 13.566 10.5459 13.2901C11.1942 13.0141 11.7628 12.634 12.2518 12.1497C12.7408 11.6654 13.1247 11.105 13.4033 10.4687C13.6819 9.82667 13.8212 9.13961 13.8212 8.40751C13.8212 7.6754 13.6819 6.99116 13.4033 6.3548C13.1247 5.7128 12.7408 5.14964 12.2518 4.66532C11.7628 4.17537 11.1942 3.79524 10.5459 3.52493C9.90335 3.24898 9.21246 3.111 8.47324 3.111C7.73401 3.111 7.04028 3.24898 6.39204 3.52493C5.74948 3.79524 5.18085 4.17537 4.68613 4.66532C4.19711 5.14964 3.81328 5.7128 3.53465 6.3548C3.26171 6.99116 3.12523 7.6754 3.12523 8.40751Z" fill="#CCCCCC"/>
</svg>
