<svg width="16" height="16" viewBox="0 0 16 16" fill="none" xmlns="http://www.w3.org/2000/svg">
<path d="M3.17944 13.3334C1.96374 13.3334 1.33337 12.6989 1.33337 11.4813V4.51884C1.33337 3.29554 1.96374 2.66675 3.17944 2.66675H12.8206C14.0363 2.66675 14.6667 3.30126 14.6667 4.51884V11.4813C14.6667 12.6989 14.0363 13.3334 12.8206 13.3334H3.17944ZM2.43651 4.61602V7.45131H7.45691V3.78143H3.24698C2.72355 3.78143 2.43651 4.06153 2.43651 4.61602ZM12.7531 3.78143H8.53754V7.45131H13.5636V4.61602C13.5636 4.06153 13.2709 3.78143 12.7531 3.78143ZM3.24698 12.213H7.45691V8.54885H2.43651V11.3841C2.43651 11.9386 2.72355 12.213 3.24698 12.213ZM13.5636 11.3841V8.54885H8.53754V12.213H12.7531C13.2709 12.213 13.5636 11.9386 13.5636 11.3841Z" fill="black"/>
</svg>
