<svg width="18" height="14" viewBox="0 0 18 14" fill="none" xmlns="http://www.w3.org/2000/svg">
<path d="M2.97426 13.6667C2.21444 13.6667 1.63989 13.4715 1.2506 13.0811C0.861316 12.6907 0.666672 12.1146 0.666672 11.3528V2.65436C0.666672 1.89259 0.861316 1.3165 1.2506 0.926095C1.63989 0.530927 2.21444 0.333344 2.97426 0.333344H15.0187C15.7832 0.333344 16.3601 0.530927 16.7494 0.926095C17.1387 1.3165 17.3333 1.89259 17.3333 2.65436V11.3528C17.3333 12.1146 17.1387 12.6907 16.7494 13.0811C16.3601 13.4715 15.7832 13.6667 15.0187 13.6667H2.97426ZM3.05868 12.2669H14.9413C15.265 12.2669 15.5135 12.1812 15.6871 12.0098C15.8606 11.8337 15.9474 11.5742 15.9474 11.2314V2.77576C15.9474 2.43297 15.8606 2.17587 15.6871 2.00447C15.5135 1.82831 15.265 1.74024 14.9413 1.74024H3.05868C2.73037 1.74024 2.47944 1.82831 2.3059 2.00447C2.13705 2.17587 2.05263 2.43297 2.05263 2.77576V11.2314C2.05263 11.5742 2.13705 11.8337 2.3059 12.0098C2.47944 12.1812 2.73037 12.2669 3.05868 12.2669Z" fill="#CCCCCC"/>
<path d="M3.16667 3.45834C3.16667 3.11317 3.44649 2.83334 3.79167 2.83334C4.13685 2.83334 4.41667 3.11317 4.41667 3.45834V10.5417C4.41667 10.8869 4.13685 11.1667 3.79167 11.1667C3.44649 11.1667 3.16667 10.8869 3.16667 10.5417V3.45834Z" fill="#CCCCCC"/>
</svg>
