<svg width="20" height="18" viewBox="0 0 20 18" fill="none" xmlns="http://www.w3.org/2000/svg">
<path d="M7.64128 16.905V10.8236C7.64128 10.627 7.69861 10.4698 7.81327 10.3519C7.93339 10.234 8.089 10.175 8.2801 10.175H11.7199C11.911 10.175 12.0639 10.234 12.1785 10.3519C12.2932 10.4698 12.3505 10.627 12.3505 10.8236V16.905H7.64128ZM4.43898 18C3.81654 18 3.3306 17.8259 2.98116 17.4778C2.63172 17.1296 2.457 16.6467 2.457 16.029V6.68788L4.07043 5.5592V15.5152C4.07043 15.7847 4.13868 15.9897 4.27518 16.1301C4.41168 16.2761 4.60824 16.3491 4.86486 16.3491H15.0942C15.3508 16.3491 15.5446 16.2761 15.6757 16.1301C15.8122 15.9897 15.8804 15.7847 15.8804 15.5152V5.5592L17.4857 6.68788V16.029C17.4857 16.6467 17.3137 17.1296 16.9697 17.4778C16.6257 17.8259 16.1425 18 15.5201 18H4.43898ZM0 8.49041C0 8.22649 0.10647 8.00468 0.31941 7.82499L8.8534 0.454843C9.2083 0.151614 9.59323 0 10.0082 0C10.4232 0 10.8054 0.151614 11.1548 0.454843L19.6806 7.82499C19.8935 8.00468 20 8.23491 20 8.51568C20 8.75714 19.9181 8.94806 19.7543 9.08844C19.596 9.22882 19.3994 9.29902 19.1646 9.29902C19.039 9.29902 18.9189 9.26813 18.8043 9.20636C18.6896 9.1446 18.5831 9.0744 18.4848 8.99579L10.3604 1.97941C10.2457 1.87833 10.1283 1.8278 10.0082 1.8278C9.88807 1.8278 9.77068 1.87833 9.65602 1.97941L1.52334 8.99579C1.4196 9.0744 1.3104 9.1446 1.19574 9.20636C1.08654 9.26813 0.969151 9.29902 0.843571 9.29902C0.581491 9.29902 0.37401 9.2204 0.22113 9.06317C0.0737101 8.90033 0 8.7094 0 8.49041ZM15.1679 4.40524V2.3416C15.1679 2.15629 15.2225 2.00749 15.3317 1.89518C15.4464 1.77726 15.5938 1.7183 15.774 1.7183H16.8878C17.068 1.7183 17.2127 1.77726 17.3219 1.89518C17.4311 2.00749 17.4857 2.15629 17.4857 2.3416V6.40992L15.1679 4.40524Z" fill="white"/>
</svg>
