<svg width="156" height="161" viewBox="0 0 156 161" fill="none" xmlns="http://www.w3.org/2000/svg">
<path d="M57.8384 50.1405L78.1628 38.4086L98.4931 50.1435V73.6133L78.1628 85.3482L57.8384 73.6133V50.1405Z" fill="#298FFF" stroke="#005EC4" stroke-width="4"/>
<path d="M79.0377 84.8423C79.037 84.8416 79.0366 84.8407 79.0366 84.8398V62.499C79.0366 62.4275 79.0747 62.3615 79.1366 62.3258L98.1906 51.3263C98.3239 51.2493 98.4906 51.3456 98.4906 51.4995V73.4984C98.4906 73.5698 98.4524 73.6358 98.3906 73.6716L79.0419 84.8428C79.0405 84.8436 79.0388 84.8434 79.0377 84.8423Z" fill="#006DE3" stroke="#005EC4" stroke-width="4"/>
<path d="M57.5071 50.4043L78.9291 62.6408" stroke="#005EC4" stroke-width="4"/>
<path d="M87.3457 67.8443L107.67 56.1123L128 67.8472V91.3171L107.67 103.052L87.3457 91.3171V67.8443Z" fill="#FF6158" stroke="#DD281E" stroke-width="4"/>
<path d="M108.544 102.547C108.544 102.546 108.543 102.545 108.543 102.544V80.2037C108.543 80.1322 108.582 80.0662 108.643 80.0305L127.697 69.031C127.831 68.9541 127.997 69.0503 127.997 69.2042V91.2031C127.997 91.2745 127.959 91.3406 127.897 91.3763L108.549 102.548C108.547 102.548 108.546 102.548 108.544 102.547Z" fill="#FF3B30" stroke="#DD281E" stroke-width="4"/>
<path d="M87.0142 68.108L108.436 80.3446" stroke="#DD281E" stroke-width="4"/>
<path d="M28.3313 67.8443L48.6557 56.1123L68.986 67.8472V91.3171L48.6557 103.052L28.3313 91.3171V67.8443Z" fill="#4FE3DD" stroke="#00A8A1" stroke-width="4"/>
<path d="M49.5306 102.547C49.5299 102.546 49.5295 102.545 49.5295 102.544V80.2037C49.5295 80.1322 49.5677 80.0662 49.6296 80.0305L68.6835 69.031C68.8168 68.9541 68.9835 69.0503 68.9835 69.2042V91.2031C68.9835 91.2745 68.9454 91.3406 68.8835 91.3763L49.5348 102.548C49.5335 102.548 49.5317 102.548 49.5306 102.547Z" fill="#00C7BE" stroke="#00A8A1" stroke-width="4"/>
<path d="M28 68.108L49.4221 80.3446" stroke="#00A8A1" stroke-width="4"/>
<path d="M57.8384 85.5481L78.1628 73.8162L98.4931 85.5511V109.021L78.1628 120.756L57.8384 109.021V85.5481Z" fill="#298FFF" stroke="#005EC4" stroke-width="4"/>
<path d="M79.0377 120.25C79.037 120.25 79.0366 120.249 79.0366 120.248V97.907C79.0366 97.8356 79.0747 97.7696 79.1366 97.7338L98.1906 86.7344C98.3239 86.6574 98.4906 86.7537 98.4906 86.9076V108.906C98.4906 108.978 98.4524 109.044 98.3906 109.08L79.0419 120.251C79.0405 120.252 79.0388 120.251 79.0377 120.25Z" fill="#006DE3" stroke="#005EC4" stroke-width="4"/>
<path d="M57.5071 85.8119L78.9291 98.0484" stroke="#005EC4" stroke-width="4"/>
<path d="M57.8384 14.732L78.1628 3L98.4931 14.7349V38.2048L78.1628 49.9397L57.8384 38.2048V14.732Z" fill="#8281F8" stroke="#403FBB" stroke-width="4"/>
<path d="M79.0377 49.4342C79.037 49.4335 79.0366 49.4326 79.0366 49.4317V27.0909C79.0366 27.0194 79.0747 26.9534 79.1366 26.9177L98.1906 15.9182C98.3239 15.8413 98.4906 15.9375 98.4906 16.0914V38.0903C98.4906 38.1617 98.4524 38.2278 98.3906 38.2635L79.0419 49.4348C79.0405 49.4356 79.0388 49.4353 79.0377 49.4342Z" fill="#5856D6" stroke="#403FBB" stroke-width="4"/>
<path d="M57.5071 14.9957L78.9291 27.2323" stroke="#403FBB" stroke-width="4"/>
<path d="M87.3452 32.4362L107.67 20.7042L128 32.4391V55.909L107.67 67.6439L87.3452 55.909V32.4362Z" fill="#FFBD60" stroke="#D07C06" stroke-width="4"/>
<path d="M108.544 67.1384C108.543 67.1378 108.543 67.1369 108.543 67.1359V44.7951C108.543 44.7237 108.581 44.6576 108.643 44.6219L127.697 33.6225C127.83 33.5455 127.997 33.6417 127.997 33.7957V55.7945C127.997 55.866 127.959 55.932 127.897 55.9677L108.548 67.139C108.547 67.1398 108.545 67.1395 108.544 67.1384Z" fill="#FF9500" stroke="#D07C06" stroke-width="4"/>
<path d="M87.0137 32.7004L108.436 44.937" stroke="#D07C06" stroke-width="4"/>
<path d="M28.3313 32.4362L48.6557 20.7042L68.986 32.4391V55.909L48.6557 67.6439L28.3313 55.909V32.4362Z" fill="#CF7CF9" stroke="#9434C4" stroke-width="4"/>
<path d="M49.5306 67.1384C49.5299 67.1378 49.5295 67.1369 49.5295 67.1359V44.7951C49.5295 44.7237 49.5677 44.6576 49.6296 44.6219L68.6835 33.6225C68.8168 33.5455 68.9835 33.6417 68.9835 33.7957V55.7945C68.9835 55.866 68.9454 55.932 68.8835 55.9677L49.5348 67.139C49.5335 67.1398 49.5317 67.1395 49.5306 67.1384Z" fill="#AF52DE" stroke="#9434C4" stroke-width="4"/>
<path d="M28 32.7004L49.4221 44.937" stroke="#9434C4" stroke-width="4"/>
<path d="M57.8384 51.6556L78.1628 39.9236L98.4931 51.6585V75.1283L78.1628 86.8633L57.8384 75.1283V51.6556Z" fill="#56E97B" stroke="#16AF3D" stroke-width="4"/>
<path d="M79.0377 86.3578C79.037 86.3571 79.0366 86.3562 79.0366 86.3553V64.0145C79.0366 63.943 79.0747 63.877 79.1366 63.8413L98.1906 52.8418C98.3239 52.7648 98.4906 52.8611 98.4906 53.015V75.0139C98.4906 75.0853 98.4524 75.1514 98.3906 75.1871L79.0419 86.3583C79.0405 86.3591 79.0388 86.3589 79.0377 86.3578Z" fill="#34C759" stroke="#16AF3D" stroke-width="4"/>
<path d="M57.5071 51.9198L78.9291 64.1563" stroke="#16AF3D" stroke-width="4"/>
<path d="M9.98477 156.756C8.76537 156.756 8 156.014 8 154.84C8 154.502 8.09081 154.044 8.25945 153.544L13.3706 139.064C13.9154 137.485 14.8364 136.756 16.3153 136.756C17.846 136.756 18.7541 137.458 19.3119 139.05L24.449 153.544C24.6306 154.071 24.6954 154.435 24.6954 154.84C24.6954 155.96 23.8782 156.756 22.7366 156.756C21.634 156.756 21.0502 156.23 20.6999 154.961L19.714 151.884H12.9554L11.9695 154.921C11.6063 156.216 11.0226 156.756 9.98477 156.756ZM13.8116 148.726H18.806L16.3283 140.751H16.2375L13.8116 148.726Z" fill="black"/>
<path d="M29.0412 156.756C27.8088 156.756 27.0823 155.973 27.0823 154.637V138.888C27.0823 137.539 27.8088 136.756 29.0412 136.756C30.2735 136.756 31 137.539 31 138.888V154.637C31 155.973 30.2735 156.756 29.0412 156.756Z" fill="black"/>
<path d="M40.7874 156.702C39.5249 156.702 38.7807 155.923 38.7807 154.592V140.412H34.8206C33.7309 140.412 33 139.78 33 138.732C33 137.684 33.7176 137.052 34.8206 137.052H46.7674C47.8571 137.052 48.5748 137.684 48.5748 138.732C48.5748 139.78 47.8439 140.412 46.7674 140.412H42.794V154.592C42.794 155.923 42.0498 156.702 40.7874 156.702Z" fill="black"/>
<path d="M53.6379 156.756C49.3322 156.756 46.5814 153.96 46.5814 149.229C46.5814 144.565 49.3721 141.729 53.6379 141.729C57.9037 141.729 60.6944 144.552 60.6944 149.229C60.6944 153.974 57.9435 156.756 53.6379 156.756ZM53.6379 153.759C55.5382 153.759 56.7475 152.132 56.7475 149.243C56.7475 146.38 55.5249 144.727 53.6379 144.727C51.7508 144.727 50.5149 146.38 50.5149 149.243C50.5149 152.132 51.7243 153.759 53.6379 153.759Z" fill="black"/>
<path d="M69.2392 156.756C64.9336 156.756 62.1827 153.96 62.1827 149.229C62.1827 144.565 64.9734 141.729 69.2392 141.729C73.505 141.729 76.2957 144.552 76.2957 149.229C76.2957 153.974 73.5448 156.756 69.2392 156.756ZM69.2392 153.759C71.1395 153.759 72.3488 152.132 72.3488 149.243C72.3488 146.38 71.1262 144.727 69.2392 144.727C67.3522 144.727 66.1163 146.38 66.1163 149.243C66.1163 152.132 67.3256 153.759 69.2392 153.759Z" fill="black"/>
<path d="M80.3355 156.729C79.206 156.729 78.3953 156.03 78.3953 154.686V138.813C78.3953 137.468 79.206 136.756 80.3355 136.756C81.4784 136.756 82.2757 137.468 82.2757 138.813V154.686C82.2757 156.03 81.4784 156.729 80.3355 156.729Z" fill="black"/>
<path d="M90.701 156.756C87.4319 156.756 85.2525 155.573 84.5748 153.88C84.4817 153.624 84.4286 153.369 84.4286 153.154C84.4286 152.253 85.093 151.649 85.9967 151.649C86.6213 151.649 87.1528 151.931 87.6844 152.536C88.4419 153.544 89.3189 154.001 90.794 154.001C92.2027 154.001 93.1196 153.409 93.1196 152.455C93.1196 151.675 92.6279 151.259 91.2326 150.95L88.8405 150.439C86.0498 149.834 84.6412 148.396 84.6412 146.259C84.6412 143.503 86.9934 141.729 90.6877 141.729C93.6379 141.729 95.804 143.087 96.2691 144.713C96.3223 144.915 96.3621 145.103 96.3621 145.291C96.3621 146.084 95.8704 146.635 94.8738 146.635C94.3688 146.635 93.8106 146.447 93.4651 146.03C92.7874 145.157 92.0166 144.485 90.6213 144.485C89.3056 144.485 88.3887 145.116 88.3887 146.044C88.3887 146.796 88.9468 147.294 90.3688 147.603L92.7209 148.114C95.7508 148.759 97 149.888 97 152.038C97 154.901 94.4618 156.756 90.701 156.756Z" fill="black"/>
<path d="M100.988 156.729C99.7374 156.729 99 155.949 99 154.616V138.91C99 137.564 99.7374 136.783 100.988 136.783C102.239 136.783 102.977 137.564 102.977 138.91V144.939H111.536V138.91C111.536 137.564 112.274 136.783 113.525 136.783C114.776 136.783 115.513 137.564 115.513 138.91V154.616C115.513 155.949 114.776 156.729 113.525 156.729C112.274 156.729 111.536 155.949 111.536 154.616V148.29H102.977V154.616C102.977 155.949 102.239 156.729 100.988 156.729Z" fill="black"/>
<path d="M123.362 156.743C120.307 156.743 118.279 154.71 118.279 151.346V143.809C118.279 142.463 119.082 141.749 120.201 141.749C121.334 141.749 122.124 142.463 122.124 143.809V150.525C122.124 152.449 123.059 153.472 124.758 153.472C126.469 153.472 127.536 152.22 127.536 150.309V143.809C127.536 142.463 128.339 141.749 129.459 141.749C130.591 141.749 131.381 142.463 131.381 143.809V154.764C131.381 156.07 130.631 156.756 129.525 156.756C128.418 156.756 127.668 156.07 127.668 154.764V153.876H127.589C126.891 155.693 125.495 156.743 123.362 156.743Z" fill="black"/>
<path d="M135.859 156.756C134.752 156.756 133.976 156.083 133.976 154.764V138.815C133.976 137.469 134.779 136.756 135.898 136.756C137.031 136.756 137.821 137.469 137.821 138.815V144.549H137.9C138.677 142.84 140.257 141.817 142.259 141.817C145.827 141.817 148 144.603 148 149.259C148 153.903 145.84 156.702 142.272 156.702C140.204 156.702 138.637 155.679 137.847 153.997H137.768V154.764C137.768 156.07 136.978 156.756 135.859 156.756ZM140.955 153.539C142.864 153.539 144.063 151.897 144.063 149.259C144.063 146.635 142.864 144.966 140.955 144.966C139.085 144.966 137.808 146.675 137.808 149.259C137.808 151.871 139.085 153.539 140.955 153.539Z" fill="black"/>
</svg>
