<svg width="16" height="16" viewBox="0 0 16 16" fill="none" xmlns="http://www.w3.org/2000/svg">
<path d="M2.63109 13.3333C1.98829 13.3333 1.4992 13.1653 1.16382 12.8291C0.832439 12.493 0.666748 12.003 0.666748 11.3591V4.64084C0.666748 3.9929 0.82645 3.5029 1.14586 3.17083C1.46526 2.83472 1.91043 2.66666 2.48137 2.66666H13.3631C14.0099 2.66666 14.499 2.83472 14.8304 3.17083C15.1657 3.5029 15.3334 3.9929 15.3334 4.64084V11.3591C15.3334 12.003 15.1737 12.493 14.8543 12.8291C14.5349 13.1653 14.0897 13.3333 13.5188 13.3333H2.63109ZM2.63109 12.2096H13.3631C13.6386 12.2096 13.8522 12.1346 14.0039 11.9848C14.1556 11.835 14.2315 11.6163 14.2315 11.3288V4.67121C14.2315 4.38369 14.1556 4.16501 14.0039 4.01518C13.8522 3.86534 13.6386 3.79042 13.3631 3.79042H2.63109C2.3556 3.79042 2.142 3.86534 1.99028 4.01518C1.84256 4.16501 1.76869 4.38167 1.76869 4.66514V11.3227C1.76869 11.6143 1.84256 11.835 1.99028 11.9848C2.142 12.1346 2.3556 12.2096 2.63109 12.2096ZM7.99709 9.6583C7.79347 9.6583 7.59583 9.61983 7.40419 9.54289C7.21654 9.46595 7.03089 9.34243 6.84723 9.17235L1.24767 4.06377L1.96633 3.32877L7.45809 8.35231C7.62977 8.51024 7.80944 8.58921 7.99709 8.58921C8.18474 8.58921 8.3644 8.51024 8.53608 8.35231L14.0278 3.32877L14.7465 4.06377L9.14694 9.17235C8.96329 9.34243 8.77563 9.46595 8.58399 9.54289C8.39634 9.61983 8.20071 9.6583 7.99709 9.6583ZM2.06814 12.4586L1.34948 11.7236L5.58358 7.429L6.30225 8.15185L2.06814 12.4586ZM13.938 12.4647L9.69193 8.15185L10.4166 7.429L14.6567 11.7297L13.938 12.4647Z" fill="#CCCCCC"/>
</svg>
