<svg width="32" height="32" viewBox="0 0 32 32" fill="none" xmlns="http://www.w3.org/2000/svg">
<rect x="0.5" y="0.5" width="31" height="31" rx="9.5" fill="white"/>
<rect x="0.5" y="0.5" width="31" height="31" rx="9.5" stroke="#F2F2F2"/>
<path d="M23.9552 12.7014C23.9168 11.8495 23.7792 11.2666 23.5839 10.7574C23.3791 10.2322 23.107 9.78383 22.6621 9.34187C22.2172 8.89992 21.7724 8.6213 21.2474 8.41954C20.7385 8.22098 20.156 8.08647 19.3047 8.04804C18.4501 8.00961 18.178 8 16.008 8C13.8348 8 13.5627 8.00961 12.7113 8.04804C11.86 8.08647 11.2775 8.22418 10.7686 8.41954C10.2404 8.6245 9.79236 8.89672 9.35067 9.34187C8.90898 9.78703 8.63053 10.2322 8.42889 10.7574C8.23365 11.2666 8.09602 11.8495 8.05761 12.7014C8.0192 13.5564 8.0096 13.8287 8.0096 16C8.0096 18.1745 8.0192 18.4468 8.05761 19.2986C8.09602 20.1505 8.23365 20.7334 8.42889 21.2426C8.63373 21.7678 8.90578 22.2162 9.35067 22.6581C9.79236 23.1033 10.2404 23.3787 10.7654 23.5805C11.2743 23.779 11.8568 23.9135 12.7081 23.952C13.5627 23.9904 13.8348 24 16.0048 24C18.178 24 18.4501 23.9904 19.3015 23.952C20.1528 23.9135 20.7353 23.7758 21.2442 23.5805C21.7692 23.3755 22.2172 23.1033 22.6589 22.6581C23.1006 22.213 23.3791 21.7678 23.5807 21.2426C23.7792 20.7334 23.9136 20.1505 23.952 19.2986C23.9904 18.4436 24 18.1713 24 16C24 13.8287 23.9936 13.5532 23.9552 12.7014ZM22.5181 19.2346C22.4829 20.016 22.3517 20.442 22.2428 20.7206C22.0988 21.0921 21.9228 21.3611 21.6411 21.6429C21.3595 21.9247 21.0938 22.0945 20.7193 22.245C20.4377 22.3539 20.012 22.4852 19.2342 22.5204C18.3925 22.5588 18.1396 22.5685 16.0016 22.5685C13.8636 22.5685 13.6107 22.5588 12.769 22.5204C11.988 22.4852 11.5623 22.3539 11.2839 22.245C10.9126 22.1009 10.6437 21.9247 10.3621 21.6429C10.0804 21.3611 9.91078 21.0953 9.76035 20.7206C9.65153 20.4388 9.5203 20.0128 9.4851 19.2346C9.44669 18.3923 9.43709 18.1393 9.43709 16C9.43709 13.8607 9.44669 13.6077 9.4851 12.7654C9.5203 11.984 9.65153 11.558 9.76035 11.2794C9.90438 10.9079 10.0804 10.6389 10.3621 10.3571C10.6437 10.0753 10.9094 9.90552 11.2839 9.755C11.5655 9.64612 11.9912 9.51481 12.769 9.47958C13.6107 9.44115 13.8636 9.43155 16.0016 9.43155C18.1396 9.43155 18.3925 9.44115 19.2342 9.47958C20.0152 9.51481 20.4409 9.64612 20.7193 9.755C21.0906 9.89912 21.3595 10.0753 21.6411 10.3571C21.9228 10.6389 22.0924 10.9047 22.2428 11.2794C22.3517 11.5612 22.4829 11.9872 22.5181 12.7654C22.5565 13.6077 22.5661 13.8607 22.5661 16C22.5661 18.1393 22.5533 18.3923 22.5181 19.2346Z" fill="url(#paint0_linear_448_11556)"/>
<path d="M16.0016 11.8879C13.7292 11.8879 11.892 13.7294 11.892 16C11.892 18.2738 13.7324 20.1121 16.0016 20.1121C18.2709 20.1121 20.1112 18.2674 20.1112 16C20.1112 13.7262 18.2741 11.8879 16.0016 11.8879ZM16.0016 18.6678C14.5293 18.6678 13.3355 17.4732 13.3355 16C13.3355 14.5269 14.5293 13.3323 16.0016 13.3323C17.4739 13.3323 18.6678 14.5269 18.6678 16C18.6678 17.4732 17.4739 18.6678 16.0016 18.6678Z" fill="url(#paint1_linear_448_11556)"/>
<path d="M20.2713 12.6885C20.8016 12.6885 21.2315 12.2584 21.2315 11.7277C21.2315 11.1971 20.8016 10.767 20.2713 10.767C19.741 10.767 19.3111 11.1971 19.3111 11.7277C19.3111 12.2584 19.741 12.6885 20.2713 12.6885Z" fill="#BC30A0"/>
<path d="M8 16C8 18.1745 8.0096 18.4468 8.04801 19.2986C8.08642 20.1505 8.22404 20.7334 8.41928 21.2426C8.62412 21.7678 8.89618 22.2162 9.34107 22.6581C9.78276 23.1001 10.2308 23.3787 10.7558 23.5805C11.2647 23.779 11.8472 23.9135 12.6985 23.952C13.5531 23.9904 13.8252 24 15.9952 24C18.1684 24 18.4405 23.9904 19.2919 23.952C20.1432 23.9135 20.7257 23.7758 21.2346 23.5805C21.7596 23.3755 22.2076 23.1033 22.6493 22.6581C23.091 22.2162 23.3695 21.7678 23.5711 21.2426C23.7696 20.7334 23.904 20.1505 23.9424 19.2986C23.9808 18.4436 23.9904 18.1713 23.9904 16C23.9904 13.8255 23.9808 13.5532 23.9424 12.7014C23.904 11.8495 23.7664 11.2666 23.5711 10.7574C23.3663 10.2322 23.0942 9.78383 22.6493 9.34187C22.2108 8.89672 21.7628 8.6213 21.2378 8.41954C20.7289 8.22098 20.1464 8.08647 19.2951 8.04804C18.4405 8.00961 18.1684 8 15.9984 8C13.8252 8 13.5531 8.00961 12.7017 8.04804C11.8504 8.08647 11.2679 8.22418 10.759 8.41954C10.234 8.6245 9.78596 8.89672 9.34427 9.34187C8.90258 9.78703 8.62412 10.2322 8.42248 10.7574C8.22404 11.2666 8.08642 11.8495 8.04801 12.7014C8.0096 13.5532 8 13.8255 8 16ZM9.44349 16C9.44349 13.8639 9.45309 13.6077 9.4915 12.7654C9.52671 11.984 9.65793 11.558 9.76675 11.2794C9.91078 10.9079 10.0868 10.6389 10.3685 10.3571C10.6501 10.0753 10.9158 9.90552 11.2903 9.755C11.5719 9.64612 11.9976 9.51481 12.7754 9.47958C13.6171 9.44115 13.87 9.43155 16.008 9.43155C18.146 9.43155 18.3989 9.44115 19.2406 9.47958C20.0216 9.51481 20.4473 9.64612 20.7257 9.755C21.097 9.89912 21.3659 10.0753 21.6475 10.3571C21.9292 10.6389 22.0988 10.9047 22.2493 11.2794C22.3581 11.5612 22.4893 11.9872 22.5245 12.7654C22.5629 13.6077 22.5725 13.8607 22.5725 16C22.5725 18.1393 22.5629 18.3923 22.5245 19.2346C22.4893 20.016 22.3581 20.442 22.2493 20.7206C22.1052 21.0921 21.9292 21.3611 21.6475 21.6429C21.3659 21.9247 21.1002 22.0945 20.7257 22.245C20.4441 22.3539 20.0184 22.4852 19.2406 22.5204C18.3989 22.5588 18.146 22.5685 16.008 22.5685C13.87 22.5685 13.6171 22.5588 12.7754 22.5204C11.9944 22.4852 11.5687 22.3539 11.2903 22.245C10.919 22.1009 10.6501 21.9247 10.3685 21.6429C10.0868 21.3611 9.91718 21.0953 9.76675 20.7206C9.65793 20.4388 9.52671 20.0128 9.4915 19.2346C9.44989 18.3923 9.44349 18.1361 9.44349 16Z" fill="url(#paint2_linear_448_11556)"/>
<defs>
<linearGradient id="paint0_linear_448_11556" x1="21.5303" y1="9.22347" x2="9.95536" y2="23.4051" gradientUnits="userSpaceOnUse">
<stop stop-color="#AE3DAE"/>
<stop offset="0.0468721" stop-color="#B23BA6"/>
<stop offset="0.1216" stop-color="#BD368E"/>
<stop offset="0.2148" stop-color="#CE2E69"/>
<stop offset="0.3216" stop-color="#E62335"/>
<stop offset="0.418" stop-color="#FF1800"/>
</linearGradient>
<linearGradient id="paint1_linear_448_11556" x1="17.9615" y1="12.7019" x2="13.7566" y2="19.7676" gradientUnits="userSpaceOnUse">
<stop stop-color="#E12F6A"/>
<stop offset="0.1705" stop-color="#EA3751"/>
<stop offset="0.3563" stop-color="#F13D3E"/>
<stop offset="0.5467" stop-color="#F64133"/>
<stop offset="0.7469" stop-color="#F7422F"/>
<stop offset="0.7946" stop-color="#F74C2F"/>
<stop offset="0.8743" stop-color="#F7652F"/>
<stop offset="0.9757" stop-color="#F78F2E"/>
<stop offset="1" stop-color="#F79A2E"/>
</linearGradient>
<linearGradient id="paint2_linear_448_11556" x1="19.6254" y1="7.34131" x2="12.5426" y2="24.2242" gradientUnits="userSpaceOnUse">
<stop offset="0.2341" stop-color="#9E35A5" stop-opacity="0"/>
<stop offset="0.4512" stop-color="#D42F7F" stop-opacity="0.5"/>
<stop offset="0.7524" stop-color="#F7772E"/>
<stop offset="0.9624" stop-color="#FEF780"/>
</linearGradient>
</defs>
</svg>
