<svg width="17" height="16" viewBox="0 0 17 16" fill="none" xmlns="http://www.w3.org/2000/svg">
<path d="M16.4554 4.70136C16.4169 3.84948 16.2793 3.26661 16.0841 2.75741C15.8792 2.23219 15.6072 1.78383 15.1623 1.34187C14.7174 0.89992 14.2725 0.621297 13.7476 0.419536C13.2387 0.220977 12.6562 0.0864692 11.8048 0.0480384C10.9503 0.00960768 10.6782 0 8.50817 0C6.33493 0 6.06288 0.00960768 5.21151 0.0480384C4.36014 0.0864692 3.77762 0.224179 3.26872 0.419536C2.74061 0.6245 2.29252 0.896717 1.85083 1.34187C1.40915 1.78703 1.13069 2.23219 0.929049 2.75741C0.73381 3.26661 0.596183 3.84948 0.557775 4.70136C0.519368 5.55645 0.509766 5.82866 0.509766 8C0.509766 10.1745 0.519368 10.4468 0.557775 11.2986C0.596183 12.1505 0.73381 12.7334 0.929049 13.2426C1.13389 13.7678 1.40594 14.2162 1.85083 14.6581C2.29252 15.1033 2.74061 15.3787 3.26552 15.5805C3.77442 15.779 4.35694 15.9135 5.20831 15.952C6.06288 15.9904 6.33493 16 8.50496 16C10.6782 16 10.9503 15.9904 11.8016 15.952C12.653 15.9135 13.2355 15.7758 13.7444 15.5805C14.2693 15.3755 14.7174 15.1033 15.1591 14.6581C15.6008 14.213 15.8792 13.7678 16.0809 13.2426C16.2793 12.7334 16.4137 12.1505 16.4522 11.2986C16.4906 10.4436 16.5002 10.1713 16.5002 8C16.5002 5.82866 16.4938 5.55324 16.4554 4.70136ZM15.0183 11.2346C14.9831 12.016 14.8518 12.442 14.743 12.7206C14.599 13.0921 14.4229 13.3611 14.1413 13.6429C13.8596 13.9247 13.594 14.0945 13.2195 14.245C12.9379 14.3539 12.5122 14.4852 11.7344 14.5204C10.8926 14.5588 10.6398 14.5685 8.50176 14.5685C6.36374 14.5685 6.11089 14.5588 5.26912 14.5204C4.48816 14.4852 4.06248 14.3539 3.78402 14.245C3.41275 14.1009 3.14389 13.9247 2.86224 13.6429C2.58058 13.3611 2.41095 13.0953 2.26052 12.7206C2.15169 12.4388 2.02047 12.0128 1.98526 11.2346C1.94685 10.3923 1.93725 10.1393 1.93725 8C1.93725 5.86069 1.94685 5.60769 1.98526 4.76541C2.02047 3.98399 2.15169 3.55805 2.26052 3.27942C2.40454 2.90793 2.58058 2.63891 2.86224 2.35709C3.14389 2.07526 3.40955 1.90552 3.78402 1.755C4.06568 1.64612 4.49136 1.51481 5.26912 1.47958C6.11089 1.44115 6.36374 1.43155 8.50176 1.43155C10.6398 1.43155 10.8926 1.44115 11.7344 1.47958C12.5154 1.51481 12.9411 1.64612 13.2195 1.755C13.5908 1.89912 13.8596 2.07526 14.1413 2.35709C14.4229 2.63891 14.5926 2.90472 14.743 3.27942C14.8518 3.56125 14.9831 3.98719 15.0183 4.76541C15.0567 5.60769 15.0663 5.86069 15.0663 8C15.0663 10.1393 15.0535 10.3923 15.0183 11.2346Z" fill="url(#paint0_linear_2349_6617)"/>
<path d="M8.50171 3.88791C6.22926 3.88791 4.39209 5.72938 4.39209 8C4.39209 10.2738 6.23246 12.1121 8.50171 12.1121C10.771 12.1121 12.6113 10.2674 12.6113 8C12.6113 5.72618 10.7742 3.88791 8.50171 3.88791ZM8.50171 10.6677C7.02942 10.6677 5.83558 9.47318 5.83558 8C5.83558 6.52682 7.02942 5.33226 8.50171 5.33226C9.97401 5.33226 11.1678 6.52682 11.1678 8C11.1678 9.47318 9.97401 10.6677 8.50171 10.6677Z" fill="url(#paint1_linear_2349_6617)"/>
<path d="M12.7712 4.68857C13.3015 4.68857 13.7314 4.25842 13.7314 3.7278C13.7314 3.19718 13.3015 2.76703 12.7712 2.76703C12.2409 2.76703 11.811 3.19718 11.811 3.7278C11.811 4.25842 12.2409 4.68857 12.7712 4.68857Z" fill="#BC30A0"/>
<path d="M0.5 8C0.5 10.1745 0.509602 10.4468 0.54801 11.2986C0.586417 12.1505 0.724045 12.7334 0.919284 13.2426C1.12412 13.7678 1.39618 14.2162 1.84107 14.6581C2.28276 15.1001 2.73085 15.3787 3.25575 15.5805C3.76465 15.779 4.34717 15.9135 5.19854 15.952C6.05311 15.9904 6.32517 16 8.4952 16C10.6684 16 10.9405 15.9904 11.7919 15.952C12.6432 15.9135 13.2257 15.7758 13.7346 15.5805C14.2596 15.3755 14.7076 15.1033 15.1493 14.6581C15.591 14.2162 15.8695 13.7678 16.0711 13.2426C16.2696 12.7334 16.404 12.1505 16.4424 11.2986C16.4808 10.4436 16.4904 10.1713 16.4904 8C16.4904 5.82546 16.4808 5.55324 16.4424 4.70136C16.404 3.84948 16.2664 3.26661 16.0711 2.75741C15.8663 2.23219 15.5942 1.78383 15.1493 1.34187C14.7108 0.896717 14.2628 0.621297 13.7378 0.419536C13.2289 0.220977 12.6464 0.0864692 11.7951 0.0480384C10.9405 0.00960768 10.6684 0 8.4984 0C6.32516 0 6.05311 0.00960768 5.20174 0.0480384C4.35037 0.0864692 3.76785 0.224179 3.25895 0.419536C2.73405 0.6245 2.28596 0.896717 1.84427 1.34187C1.40258 1.78703 1.12412 2.23219 0.922484 2.75741C0.724045 3.26661 0.586417 3.84948 0.54801 4.70136C0.509602 5.55324 0.5 5.82546 0.5 8ZM1.94349 8C1.94349 5.86389 1.95309 5.60769 1.9915 4.76541C2.02671 3.98399 2.15793 3.55805 2.26675 3.27942C2.41078 2.90793 2.58682 2.63891 2.86847 2.35709C3.15013 2.07526 3.41578 1.90552 3.79026 1.755C4.07191 1.64612 4.4976 1.51481 5.27535 1.47958C6.11712 1.44115 6.36997 1.43155 8.508 1.43155C10.646 1.43155 10.8989 1.44115 11.7406 1.47958C12.5216 1.51481 12.9473 1.64612 13.2257 1.755C13.597 1.89912 13.8659 2.07526 14.1475 2.35709C14.4292 2.63891 14.5988 2.90472 14.7493 3.27942C14.8581 3.56125 14.9893 3.98719 15.0245 4.76541C15.0629 5.60769 15.0725 5.86069 15.0725 8C15.0725 10.1393 15.0629 10.3923 15.0245 11.2346C14.9893 12.016 14.8581 12.442 14.7493 12.7206C14.6052 13.0921 14.4292 13.3611 14.1475 13.6429C13.8659 13.9247 13.6002 14.0945 13.2257 14.245C12.9441 14.3539 12.5184 14.4852 11.7406 14.5204C10.8989 14.5588 10.646 14.5685 8.508 14.5685C6.36997 14.5685 6.11712 14.5588 5.27535 14.5204C4.4944 14.4852 4.06871 14.3539 3.79026 14.245C3.41898 14.1009 3.15013 13.9247 2.86847 13.6429C2.58682 13.3611 2.41718 13.0953 2.26675 12.7206C2.15793 12.4388 2.02671 12.0128 1.9915 11.2346C1.94989 10.3923 1.94349 10.1361 1.94349 8Z" fill="url(#paint2_linear_2349_6617)"/>
<defs>
<linearGradient id="paint0_linear_2349_6617" x1="14.0305" y1="1.22347" x2="2.45552" y2="15.4051" gradientUnits="userSpaceOnUse">
<stop stop-color="#AE3DAE"/>
<stop offset="0.0468721" stop-color="#B23BA6"/>
<stop offset="0.1216" stop-color="#BD368E"/>
<stop offset="0.2148" stop-color="#CE2E69"/>
<stop offset="0.3216" stop-color="#E62335"/>
<stop offset="0.418" stop-color="#FF1800"/>
</linearGradient>
<linearGradient id="paint1_linear_2349_6617" x1="10.4616" y1="4.7019" x2="6.2567" y2="11.7676" gradientUnits="userSpaceOnUse">
<stop stop-color="#E12F6A"/>
<stop offset="0.1705" stop-color="#EA3751"/>
<stop offset="0.3563" stop-color="#F13D3E"/>
<stop offset="0.5467" stop-color="#F64133"/>
<stop offset="0.7469" stop-color="#F7422F"/>
<stop offset="0.7946" stop-color="#F74C2F"/>
<stop offset="0.8743" stop-color="#F7652F"/>
<stop offset="0.9757" stop-color="#F78F2E"/>
<stop offset="1" stop-color="#F79A2E"/>
</linearGradient>
<linearGradient id="paint2_linear_2349_6617" x1="12.1254" y1="-0.658687" x2="5.04259" y2="16.2242" gradientUnits="userSpaceOnUse">
<stop offset="0.2341" stop-color="#9E35A5" stop-opacity="0"/>
<stop offset="0.4512" stop-color="#D42F7F" stop-opacity="0.5"/>
<stop offset="0.7524" stop-color="#F7772E"/>
<stop offset="0.9624" stop-color="#FEF780"/>
</linearGradient>
</defs>
</svg>
