<svg width="21" height="20" viewBox="0 0 21 20" fill="none" xmlns="http://www.w3.org/2000/svg">
<path d="M10.3205 17.3062C10.2251 17.3062 10.1322 17.3037 10.0418 17.2986C9.95135 17.2986 9.86094 17.2935 9.77052 17.2833L9.35611 18.0862C9.31091 18.178 9.24561 18.2443 9.16021 18.285C9.07482 18.3309 8.97938 18.3437 8.8739 18.3233C8.77343 18.3029 8.69055 18.257 8.62525 18.1856C8.56497 18.1143 8.52479 18.025 8.5047 17.918L8.36907 17.0386C8.19326 16.9876 8.01997 16.9289 7.84918 16.8627C7.68342 16.8015 7.51515 16.7352 7.34436 16.6638L6.70391 17.245C6.62354 17.3164 6.53564 17.3597 6.4402 17.375C6.34476 17.3903 6.2443 17.3699 6.13881 17.3138C6.05342 17.2629 5.99314 17.1915 5.95798 17.0997C5.92784 17.008 5.92282 16.9086 5.94291 16.8015L6.10868 15.9374C5.96803 15.8303 5.82738 15.7181 5.68673 15.6009C5.54609 15.4836 5.41046 15.3613 5.27986 15.2338L4.48872 15.5703C4.38324 15.6162 4.28278 15.6264 4.18734 15.6009C4.0919 15.5754 4.00651 15.5168 3.93116 15.425C3.87088 15.3485 3.83572 15.2619 3.82567 15.165C3.82065 15.063 3.84577 14.9662 3.90102 14.8744L4.36063 14.1173C4.26017 13.9695 4.16473 13.8166 4.07432 13.6585C3.98892 13.4954 3.90353 13.3297 3.81814 13.1614L2.94412 13.192C2.84366 13.2022 2.75073 13.1818 2.66534 13.1309C2.57994 13.0748 2.52218 12.9932 2.49204 12.8861C2.45688 12.7842 2.45437 12.6873 2.4845 12.5956C2.51464 12.5038 2.5699 12.4248 2.65027 12.3585L3.32839 11.8079C3.28318 11.6295 3.2455 11.451 3.21537 11.2726C3.18523 11.0891 3.16513 10.9004 3.15509 10.7067L2.31874 10.4391C2.21326 10.4085 2.13289 10.3549 2.07763 10.2785C2.02238 10.1969 1.99475 10.1026 1.99475 9.99553C1.99475 9.88337 2.02238 9.78905 2.07763 9.71258C2.13289 9.63611 2.21326 9.58258 2.31874 9.55199L3.15509 9.28434C3.16513 9.09061 3.18523 8.90453 3.21537 8.7261C3.2455 8.54257 3.28318 8.36159 3.32839 8.18315L2.65027 7.62491C2.5699 7.56373 2.51464 7.48726 2.4845 7.3955C2.45437 7.30373 2.45688 7.20941 2.49204 7.11255C2.52218 7.00549 2.57994 6.92647 2.66534 6.87549C2.75073 6.81941 2.84366 6.79647 2.94412 6.80666L3.81814 6.82961C3.90353 6.66137 3.98892 6.49823 4.07432 6.34019C4.16473 6.18215 4.26017 6.02411 4.36063 5.86607L3.89349 5.109C3.84325 5.02233 3.82065 4.93056 3.82567 4.8337C3.83572 4.73684 3.87088 4.65017 3.93116 4.5737C4.00651 4.48193 4.08939 4.42585 4.1798 4.40546C4.27524 4.37997 4.3757 4.38762 4.48119 4.4284L5.27986 4.74958C5.41046 4.63233 5.54609 4.51507 5.68673 4.39781C5.82738 4.27546 5.96803 4.16075 6.10868 4.05369L5.94291 3.19721C5.9178 3.08505 5.92282 2.98309 5.95798 2.89132C5.99314 2.79956 6.05342 2.73073 6.13881 2.68485C6.23928 2.62877 6.33723 2.60838 6.43267 2.62367C6.53313 2.63387 6.62354 2.6772 6.70391 2.75368L7.34436 3.31956C7.51515 3.25329 7.68342 3.18956 7.84918 3.12839C8.01997 3.06211 8.19326 3.00348 8.36907 2.9525L8.5047 2.08073C8.52479 1.97367 8.56497 1.88445 8.62525 1.81308C8.69055 1.7417 8.77343 1.69582 8.8739 1.67543C8.97938 1.65504 9.07482 1.66778 9.16021 1.71366C9.24561 1.75445 9.31091 1.81817 9.35611 1.90484L9.77052 2.70779C9.86596 2.6976 9.95637 2.6925 10.0418 2.6925C10.1322 2.6874 10.2251 2.68485 10.3205 2.68485C10.411 2.68485 10.5014 2.6874 10.5918 2.6925C10.6822 2.6925 10.7726 2.6976 10.863 2.70779L11.285 1.90484C11.3252 1.81817 11.388 1.75445 11.4734 1.71366C11.5638 1.66778 11.6617 1.65504 11.7672 1.67543C11.8677 1.69582 11.9505 1.7417 12.0158 1.81308C12.0862 1.88445 12.1264 1.97367 12.1364 2.08073L12.272 2.96015C12.4428 3.00603 12.6136 3.06211 12.7844 3.12839C12.9552 3.18956 13.1234 3.25329 13.2892 3.31956L13.9372 2.74603C14.0125 2.67466 14.0979 2.63387 14.1934 2.62367C14.2938 2.60838 14.3943 2.62877 14.4948 2.68485C14.5801 2.73073 14.6404 2.79956 14.6756 2.89132C14.7158 2.98309 14.7233 3.08505 14.6982 3.19721L14.5249 4.05369C14.6655 4.16075 14.8062 4.27546 14.9468 4.39781C15.0925 4.51507 15.2281 4.63233 15.3537 4.74958L16.1599 4.4284C16.2604 4.38762 16.3583 4.37997 16.4538 4.40546C16.5492 4.42585 16.6346 4.48193 16.7099 4.5737C16.7702 4.65017 16.8029 4.73684 16.8079 4.8337C16.8179 4.93056 16.7953 5.02233 16.7401 5.109L16.2805 5.86607C16.4764 6.17195 16.6572 6.49313 16.823 6.82961L17.697 6.80666C17.7974 6.79647 17.8904 6.81941 17.9758 6.87549C18.0612 6.92647 18.1189 7.00549 18.1491 7.11255C18.1842 7.20941 18.1842 7.30373 18.1491 7.3955C18.1189 7.48726 18.0662 7.56373 17.9908 7.62491L17.3127 8.18315C17.3579 8.36159 17.3956 8.54257 17.4257 8.7261C17.4559 8.90453 17.4785 9.09061 17.4935 9.28434L18.3148 9.55199C18.5459 9.62846 18.6614 9.77631 18.6614 9.99553C18.6614 10.2147 18.5459 10.3626 18.3148 10.4391L17.4935 10.7067C17.4785 10.9004 17.4559 11.0891 17.4257 11.2726C17.3956 11.451 17.3579 11.6295 17.3127 11.8079L17.9908 12.3585C18.0662 12.4248 18.1189 12.5063 18.1491 12.6032C18.1842 12.695 18.1842 12.7893 18.1491 12.8861C18.1189 12.9932 18.0612 13.0748 17.9758 13.1309C17.8904 13.1818 17.7974 13.2022 17.697 13.192L16.823 13.1614C16.7376 13.3297 16.6497 13.4954 16.5592 13.6585C16.4739 13.8166 16.3809 13.9695 16.2805 14.1173L16.7401 14.8744C16.7953 14.9662 16.8179 15.063 16.8079 15.165C16.8029 15.2619 16.7702 15.3485 16.7099 15.425C16.6346 15.5168 16.5492 15.5754 16.4538 15.6009C16.3583 15.6264 16.2579 15.6162 16.1524 15.5703L15.3537 15.2338C15.2281 15.3613 15.0925 15.4836 14.9468 15.6009C14.8062 15.7181 14.6655 15.8303 14.5249 15.9374L14.6982 16.8015C14.7585 17.0258 14.6907 17.1966 14.4948 17.3138C14.3943 17.3699 14.2938 17.3903 14.1934 17.375C14.0979 17.3597 14.0125 17.3164 13.9372 17.245L13.2892 16.6638C13.1234 16.7352 12.9552 16.8015 12.7844 16.8627C12.6136 16.9289 12.4428 16.985 12.272 17.0309L12.1364 17.918C12.1264 18.025 12.0862 18.1143 12.0158 18.1856C11.9505 18.257 11.8677 18.3029 11.7672 18.3233C11.6617 18.3437 11.5663 18.3309 11.4809 18.285C11.3955 18.2443 11.3302 18.178 11.285 18.0862L10.863 17.2833C10.7726 17.2935 10.6822 17.2986 10.5918 17.2986C10.5014 17.3037 10.411 17.3062 10.3205 17.3062ZM10.3205 16.075C11.1594 16.075 11.938 15.9195 12.6563 15.6085C13.3746 15.2976 14.0025 14.8642 14.54 14.3085C15.0774 13.7528 15.4943 13.1079 15.7907 12.3738C16.0921 11.6397 16.2428 10.8495 16.2428 10.0032C16.2428 9.15689 16.0921 8.36668 15.7907 7.63256C15.4943 6.89333 15.0774 6.24587 14.54 5.69018C14.0025 5.13449 13.3746 4.70115 12.6563 4.39017C11.938 4.07408 11.1594 3.91604 10.3205 3.91604C9.48671 3.91604 8.71064 4.07408 7.99234 4.39017C7.27404 4.70115 6.64615 5.13449 6.10868 5.69018C5.57623 6.24587 5.15931 6.89333 4.85792 7.63256C4.56156 8.36668 4.41338 9.15689 4.41338 10.0032C4.41338 10.8495 4.56156 11.6397 4.85792 12.3738C5.15931 13.1079 5.57623 13.7528 6.10868 14.3085C6.64615 14.8642 7.27404 15.2976 7.99234 15.6085C8.71064 15.9195 9.48671 16.075 10.3205 16.075ZM9.00952 8.82551L6.45527 4.39781L7.38203 3.87016L9.89861 8.25198L9.00952 8.82551ZM12.0008 10.5155V9.46023H17.0113V10.5155H12.0008ZM9.91368 11.762L7.29915 16.1209L6.37992 15.5703L9.03212 11.1808L9.91368 11.762ZM10.3055 12.0067C9.93879 12.0067 9.60727 11.9175 9.31091 11.7391C9.01454 11.5606 8.77846 11.321 8.60265 11.0202C8.42684 10.7144 8.33893 10.3779 8.33893 10.0108C8.33893 9.63866 8.42684 9.30218 8.60265 9.0014C8.77846 8.70061 9.01454 8.461 9.31091 8.28256C9.60727 8.09903 9.93879 8.00727 10.3055 8.00727C10.6671 8.00727 10.9962 8.09903 11.2925 8.28256C11.5939 8.461 11.8325 8.70061 12.0083 9.0014C12.1891 9.30218 12.2796 9.63866 12.2796 10.0108C12.2796 10.3779 12.1891 10.7144 12.0083 11.0202C11.8325 11.321 11.5939 11.5606 11.2925 11.7391C10.9962 11.9175 10.6671 12.0067 10.3055 12.0067ZM10.3055 10.8597C10.5466 10.8597 10.7475 10.7806 10.9083 10.6226C11.074 10.4595 11.1569 10.2555 11.1569 10.0108C11.1569 9.76611 11.074 9.56219 10.9083 9.39905C10.7475 9.23081 10.5466 9.14669 10.3055 9.14669C10.0694 9.14669 9.86847 9.23081 9.70271 9.39905C9.54197 9.56219 9.4616 9.76611 9.4616 10.0108C9.4616 10.2555 9.54197 10.4595 9.70271 10.6226C9.86847 10.7806 10.0694 10.8597 10.3055 10.8597Z" fill="#CCCCCC"/>
</svg>
