<svg width="17" height="16" viewBox="0 0 17 16" fill="none" xmlns="http://www.w3.org/2000/svg">
<g clip-path="url(#clip0_2349_6598)">
<path d="M0.5 2.13446C0.5 1.61965 0.680185 1.19494 1.04054 0.860329C1.4009 0.525703 1.86937 0.358398 2.44595 0.358398C3.01223 0.358398 3.47039 0.523124 3.82046 0.852607C4.18082 1.19238 4.361 1.63509 4.361 2.18079C4.361 2.675 4.18598 3.08683 3.83591 3.41631C3.47555 3.75608 3.00193 3.92597 2.41506 3.92597H2.39961C1.83333 3.92597 1.37517 3.75608 1.0251 3.41631C0.675027 3.07655 0.5 2.64926 0.5 2.13446ZM0.700772 15.648V5.33137H4.12934V15.648H0.700772ZM6.02896 15.648H9.45753V9.88736C9.45753 9.52699 9.49872 9.24899 9.58108 9.05338C9.72522 8.70331 9.94401 8.40729 10.2375 8.16535C10.5309 7.92339 10.899 7.80241 11.3417 7.80241C12.4949 7.80241 13.0714 8.57976 13.0714 10.1345V15.648H16.5V9.73291C16.5 8.2091 16.1396 7.05338 15.4189 6.26573C14.6982 5.47809 13.7458 5.08427 12.5618 5.08427C11.2336 5.08427 10.1988 5.6557 9.45753 6.79855V6.82944H9.44209L9.45753 6.79855V5.33137H6.02896C6.04954 5.66084 6.05985 6.68529 6.05985 8.40473C6.05985 10.1242 6.04954 12.5386 6.02896 15.648Z" fill="#0A66C2"/>
</g>
<defs>
<clipPath id="clip0_2349_6598">
<rect width="16" height="16" fill="white" transform="translate(0.5)"/>
</clipPath>
</defs>
</svg>
