<svg width="21" height="20" viewBox="0 0 21 20" fill="none" xmlns="http://www.w3.org/2000/svg">
<path d="M3.6615 16.8342V3.16578C3.6615 2.7996 3.95882 2.5 4.32222 2.5C4.68562 2.5 4.98294 2.7996 4.98294 3.16578V16.8342C4.98294 17.2004 4.68562 17.5 4.32222 17.5C3.95882 17.5 3.6615 17.2004 3.6615 16.8342ZM12.4689 5.50266C11.6496 5.50266 10.9889 4.83688 10.9889 4.00466C10.9889 3.17909 11.6496 2.51332 12.4689 2.51332C13.2882 2.51332 13.9489 3.17909 13.9489 4.00466C13.9489 4.83688 13.2882 5.50266 12.4689 5.50266ZM13.9555 16.9008L12.5548 14.0446C12.4953 13.9314 12.4821 13.8648 12.35 13.6984L10.9955 11.9874C10.4735 11.3415 10.3017 10.9687 10.3612 10.2297L10.4669 8.78495C10.4801 8.60519 10.2621 8.50533 10.0969 8.65846L9.6278 9.0779L9.47584 10.8156C9.4428 11.255 9.20494 11.488 8.82172 11.4614C8.43851 11.4481 8.20065 11.1551 8.23368 10.7423L8.35922 9.14447C8.39886 8.70506 8.51119 8.42543 8.84155 8.09254L9.86566 7.08056C10.5198 6.44141 11.0021 6.07523 11.7157 6.07523C12.6605 6.07523 13.2155 6.78096 13.1494 7.72636L13.0173 9.67044C12.9644 10.3628 12.8719 10.7823 12.6473 11.488L12.5944 11.6611L13.4468 12.8862C13.5789 13.0726 13.7243 13.2989 13.83 13.512L15.1911 16.2949C15.6536 17.2337 14.3784 17.773 13.9555 16.9008ZM16.3011 8.70506C16.7107 8.70506 16.9948 8.95806 16.9948 9.33089C16.9948 9.71704 16.7173 9.96338 16.3011 9.96338H14.8607C14.4577 9.96338 14.2595 9.8968 14.0414 9.67044L13.7111 9.34421L13.83 7.65979L14.7682 8.70506H16.3011ZM9.09923 17.1072C8.55744 17.753 7.49368 16.9873 8.14118 16.2017L10.1233 13.8382L10.4339 12.3668L11.5439 13.765L11.4184 14.1511C11.3391 14.3975 11.306 14.4574 11.1078 14.6971L9.09923 17.1072Z" fill="#CCCCCC"/>
</svg>
