<svg width="24" height="24" viewBox="0 0 24 24" fill="none" xmlns="http://www.w3.org/2000/svg">
<path d="M9.64442 6.75989C9.53417 6.75989 9.47904 6.69003 9.46066 6.58027C9.14827 4.98366 9.16665 4.92379 7.62306 4.58451C7.52199 4.56455 7.44849 4.4947 7.44849 4.38493C7.44849 4.26519 7.52199 4.19533 7.62306 4.17538C9.16665 3.8361 9.14827 3.77623 9.46066 2.1896C9.47904 2.07983 9.53417 2 9.64442 2C9.75468 2 9.80981 2.07983 9.82818 2.1896C10.1406 3.77623 10.1222 3.8361 11.6658 4.17538C11.7669 4.19533 11.8404 4.26519 11.8404 4.38493C11.8404 4.4947 11.7669 4.56455 11.6658 4.58451C10.1222 4.92379 10.1406 4.98366 9.82818 6.58027C9.80981 6.69003 9.75468 6.75989 9.64442 6.75989ZM17.2337 10.2824C17.1051 10.2824 17.0316 10.1926 17.004 10.0629C16.6916 8.1669 16.6824 8.04715 14.8356 7.69789C14.7162 7.67793 14.6243 7.58813 14.6243 7.44842C14.6243 7.30872 14.7162 7.22889 14.8356 7.19895C16.6824 6.85967 16.6916 6.73993 17.004 4.84396C17.0316 4.71423 17.1051 4.61444 17.2337 4.61444C17.3624 4.61444 17.4359 4.71423 17.4634 4.84396C17.7758 6.73993 17.785 6.85967 19.6318 7.19895C19.7604 7.22889 19.8431 7.30872 19.8431 7.44842C19.8431 7.58813 19.7604 7.67793 19.6318 7.69789C17.785 8.04715 17.7758 8.1669 17.4634 10.0629C17.4359 10.1926 17.3624 10.2824 17.2337 10.2824ZM4.60939 13.1463C4.48076 13.1463 4.40726 13.0465 4.37969 12.9168C4.0673 11.0208 4.05811 10.9011 2.21132 10.5618C2.09188 10.5319 2 10.452 2 10.3123C2 10.1726 2.09188 10.0828 2.21132 10.0629C4.05811 9.71361 4.0673 9.59386 4.37969 7.69789C4.40726 7.56817 4.48076 7.47836 4.60939 7.47836C4.73803 7.47836 4.81153 7.56817 4.8391 7.69789C5.15149 9.59386 5.16068 9.71361 7.00747 10.0629C7.12691 10.0828 7.21879 10.1726 7.21879 10.3123C7.21879 10.452 7.12691 10.5319 7.00747 10.5618C5.16068 10.9011 5.15149 11.0208 4.8391 12.9168C4.81153 13.0465 4.73803 13.1463 4.60939 13.1463ZM20.3025 21.6782L11.5647 12.1684C11.188 11.7493 11.1788 11.0607 11.5647 10.6217C11.9322 10.2026 12.5938 10.2026 12.9797 10.6217L21.7175 20.1414C22.0942 20.5606 22.0942 21.2391 21.7175 21.6782C21.3499 22.1073 20.6884 22.1073 20.3025 21.6782ZM8.9737 21.8378C8.79913 21.8378 8.67968 21.7081 8.66131 21.5385C8.33054 18.8741 8.25703 18.8741 5.71196 18.3453C5.55576 18.3054 5.43632 18.1956 5.43632 18.006C5.43632 17.8164 5.55576 17.6867 5.71196 17.6667C8.25703 17.2775 8.33973 17.1877 8.66131 14.4835C8.67968 14.3039 8.79913 14.1741 8.9737 14.1741C9.13908 14.1741 9.25853 14.3039 9.28609 14.4935C9.58011 17.1578 9.71793 17.1478 12.2354 17.6667C12.3916 17.6966 12.5111 17.8164 12.5111 18.006C12.5111 18.2056 12.3916 18.3054 12.1987 18.3453C9.69955 18.7843 9.58011 18.8542 9.28609 21.5185C9.25853 21.7081 9.13908 21.8378 8.9737 21.8378ZM20.6241 20.9896C20.7987 21.1792 20.9732 21.2092 21.1386 21.0595C21.2856 20.8799 21.2489 20.6803 21.0835 20.5107L15.4145 14.3438L14.9551 14.8228L20.6241 20.9896Z" fill="white"/>
</svg>
