<svg width="140" height="95" viewBox="0 0 140 95" fill="none" xmlns="http://www.w3.org/2000/svg">
<rect x="3.3125" y="2" width="133.375" height="90.25" rx="4" fill="#298FFF" stroke="#005EC4" stroke-width="4"/>
<path d="M8.4955 7.37271C7.2916 6.09706 8.19598 4 9.95003 4H132.688C133.792 4 134.688 4.89543 134.688 6V88.25C134.688 89.3546 133.792 90.25 132.688 90.25H87.5735C87.023 90.25 86.4968 90.0231 86.1189 89.6227L8.4955 7.37271Z" fill="#006DE3"/>
<path d="M133 2C136.844 2 138.475 6.89373 135.4 9.2002L72.4004 56.4502C70.9782 57.5169 69.0218 57.5169 67.5996 56.4502L4.59961 9.2002C1.52459 6.89372 3.15601 2 7 2H133Z" fill="#CF7CF9" stroke="#9434C4" stroke-width="4"/>
</svg>
