<svg width="16" height="16" viewBox="0 0 16 16" fill="none" xmlns="http://www.w3.org/2000/svg">
<path d="M4.73978 14.6663C4.51039 14.6663 4.32879 14.5872 4.19498 14.429C4.06499 14.2748 4 14.0618 4 13.79V3.17691C4 2.57242 4.14528 2.11398 4.43584 1.80159C4.7264 1.4892 5.1546 1.33301 5.72043 1.33301H10.2796C10.8454 1.33301 11.2736 1.4892 11.5642 1.80159C11.8547 2.11398 12 2.57242 12 3.17691V13.79C12 14.0618 11.9331 14.2748 11.7993 14.429C11.6693 14.5872 11.4915 14.6663 11.2659 14.6663C11.1092 14.6663 10.9658 14.6156 10.8358 14.5142C10.7059 14.4168 10.5166 14.2404 10.2681 13.9848L8.04875 11.6601C8.01816 11.6236 7.98566 11.6236 7.95125 11.6601L5.73763 13.9848C5.48913 14.2404 5.29797 14.4168 5.16416 14.5142C5.03417 14.6156 4.89271 14.6663 4.73978 14.6663ZM5.28459 12.6825L7.62437 10.2726C7.74671 10.1509 7.87288 10.09 8.00287 10.09C8.13286 10.09 8.25711 10.1509 8.37563 10.2726L10.7211 12.6825C10.7594 12.723 10.7957 12.7372 10.8301 12.7251C10.8683 12.717 10.8875 12.6825 10.8875 12.6216V3.24386C10.8875 2.99638 10.8282 2.81381 10.7097 2.69616C10.595 2.57445 10.4229 2.5136 10.1935 2.5136H5.81219C5.57897 2.5136 5.40311 2.57445 5.28459 2.69616C5.16989 2.81381 5.11254 2.99638 5.11254 3.24386V12.6216C5.11254 12.6825 5.12975 12.717 5.16416 12.7251C5.20239 12.7372 5.24253 12.723 5.28459 12.6825Z" fill="black"/>
</svg>
