<svg width="16" height="16" viewBox="0 0 16 16" fill="none" xmlns="http://www.w3.org/2000/svg">
<path d="M5.16683 14.6667C4.69064 14.6667 4.41088 14.3357 4.41088 13.8002V12.3139H4.08945C2.36326 12.3139 1.3335 11.2789 1.3335 9.49169V4.82217C1.3335 3.035 2.33945 2 4.13112 2H11.8752C13.6609 2 14.6668 3.035 14.6668 4.82217V9.49169C14.6668 11.2789 13.6609 12.3139 11.8752 12.3139H8.19659L6.15492 14.1432C5.74421 14.5042 5.50016 14.6667 5.16683 14.6667ZM5.45254 13.3428L7.33945 11.4594C7.5954 11.1946 7.76802 11.1344 8.13112 11.1344H11.8394C12.9585 11.1344 13.5002 10.5628 13.5002 9.45558V4.85827C13.5002 3.75107 12.9585 3.17941 11.8394 3.17941H4.16088C3.03588 3.17941 2.50016 3.75107 2.50016 4.85827V9.45558C2.50016 10.5628 3.03588 11.1344 4.16088 11.1344H4.9704C5.30969 11.1344 5.45254 11.2728 5.45254 11.6279V13.3428Z" fill="#4D4D4D"/>
</svg>
