<svg width="15" height="16" viewBox="0 0 15 16" fill="none" xmlns="http://www.w3.org/2000/svg">
<path d="M3.50683 13.625C2.41894 13.625 1.875 13.2797 1.875 12.5891C1.875 12.1796 2.00512 11.75 2.26536 11.3003C2.52986 10.8506 2.90742 10.4311 3.39804 10.0416C3.89292 9.65217 4.48592 9.33699 5.17705 9.09609C5.86817 8.85118 6.64462 8.72872 7.5064 8.72872C8.35964 8.72872 9.13183 8.85118 9.82295 9.09609C10.5183 9.33699 11.1113 9.65217 11.602 10.0416C12.0926 10.4311 12.468 10.8506 12.7282 11.3003C12.9927 11.75 13.125 12.1796 13.125 12.5891C13.125 13.2797 12.5811 13.625 11.4932 13.625H3.50683ZM3.30205 12.5831H11.7044C11.7769 12.5831 11.8281 12.5711 11.8579 12.547C11.8921 12.5229 11.9091 12.4827 11.9091 12.4265C11.9091 12.1937 11.8131 11.9287 11.6212 11.6316C11.4292 11.3304 11.1433 11.0393 10.7637 10.7583C10.3882 10.4732 9.92747 10.2384 9.3814 10.0537C8.83532 9.86496 8.21032 9.77061 7.5064 9.77061C6.79821 9.77061 6.16894 9.86496 5.6186 10.0537C5.07253 10.2384 4.61177 10.4732 4.23635 10.7583C3.86092 11.0393 3.57509 11.3304 3.37884 11.6316C3.18686 11.9287 3.09087 12.1937 3.09087 12.4265C3.09087 12.4827 3.1058 12.5229 3.13567 12.547C3.1698 12.5711 3.22526 12.5831 3.30205 12.5831ZM7.5064 8.02409C6.99019 8.02409 6.51877 7.89561 6.09215 7.63865C5.6698 7.38169 5.33276 7.03841 5.08106 6.60881C4.82935 6.17519 4.7035 5.6974 4.7035 5.17546C4.7035 4.66154 4.82935 4.19379 5.08106 3.77222C5.33276 3.34663 5.6698 3.00736 6.09215 2.75442C6.51877 2.50147 6.99019 2.375 7.5064 2.375C8.02261 2.375 8.49189 2.49946 8.91425 2.74839C9.34087 2.99732 9.6779 3.33257 9.92534 3.75415C10.177 4.17572 10.3029 4.64548 10.3029 5.16341C10.3029 5.68937 10.177 6.16916 9.92534 6.60278C9.67363 7.0364 9.3366 7.38169 8.91425 7.63865C8.49189 7.89561 8.02261 8.02409 7.5064 8.02409ZM7.5064 6.97618C7.80503 6.97618 8.07807 6.89789 8.32551 6.7413C8.57295 6.5807 8.77133 6.36389 8.92065 6.09087C9.06997 5.81384 9.14462 5.50468 9.14462 5.16341C9.14462 4.83017 9.06997 4.53306 8.92065 4.27208C8.77133 4.00709 8.57295 3.79831 8.32551 3.64574C8.07807 3.49317 7.80503 3.41689 7.5064 3.41689C7.20776 3.41689 6.93473 3.49518 6.68729 3.65177C6.43985 3.80434 6.24147 4.01312 6.09215 4.2781C5.94283 4.54309 5.86817 4.84221 5.86817 5.17546C5.86817 5.51271 5.94283 5.81986 6.09215 6.09689C6.24147 6.36991 6.43985 6.58472 6.68729 6.7413C6.93899 6.89789 7.21203 6.97618 7.5064 6.97618Z" fill="#808080"/>
</svg>
