<svg width="20" height="20" viewBox="0 0 20 20" fill="none" xmlns="http://www.w3.org/2000/svg">
<path d="M4.8645 17.3483C4.6917 17.2275 4.58555 17.0649 4.54605 16.8605C4.51149 16.6608 4.54359 16.4239 4.64233 16.1498L6.16789 11.8925L2.27992 9.26568C2.02813 9.09845 1.85286 8.92426 1.75412 8.7431C1.65538 8.55729 1.64056 8.36684 1.70968 8.17174C1.7788 7.98129 1.90964 7.83961 2.10218 7.74671C2.29473 7.64916 2.54652 7.60271 2.85756 7.60736L7.6194 7.63523L9.07092 3.35703C9.16472 3.07832 9.28815 2.86697 9.4412 2.72297C9.59919 2.57432 9.78433 2.5 9.99662 2.5C10.2139 2.5 10.399 2.57432 10.552 2.72297C10.71 2.86697 10.8359 3.07832 10.9297 3.35703L12.3812 7.63523L17.1431 7.60736C17.4541 7.60271 17.7059 7.64916 17.8985 7.74671C18.091 7.83961 18.2218 7.98129 18.291 8.17174C18.3601 8.36684 18.3453 8.55729 18.2465 8.7431C18.1478 8.92426 17.9725 9.09845 17.7207 9.26568L13.8328 11.8925L15.3583 16.1498C15.4571 16.4239 15.4867 16.6608 15.4472 16.8605C15.4126 17.0649 15.309 17.2275 15.1362 17.3483C14.9634 17.4783 14.7683 17.5248 14.5511 17.4876C14.3339 17.4505 14.1018 17.3483 13.855 17.181L9.99662 14.5124L6.14568 17.181C5.89882 17.3483 5.66678 17.4505 5.44954 17.4876C5.23231 17.5248 5.0373 17.4783 4.8645 17.3483ZM6.16789 15.6621C6.17777 15.676 6.19752 15.6737 6.22714 15.6551L9.56709 13.2303C9.71521 13.1188 9.85838 13.0631 9.99662 13.0631C10.1398 13.0631 10.2854 13.1188 10.4336 13.2303L13.7735 15.6551C13.8031 15.6737 13.8229 15.676 13.8328 15.6621C13.8377 15.6528 13.8377 15.6342 13.8328 15.6063L12.4257 11.8716C12.3862 11.7601 12.364 11.6603 12.359 11.572C12.359 11.4791 12.3837 11.3955 12.4331 11.3212C12.4874 11.2468 12.5689 11.1748 12.6775 11.1052L16.1581 8.86852C16.1878 8.84994 16.2001 8.83136 16.1952 8.81277C16.1902 8.79884 16.168 8.79187 16.1285 8.79187L11.9221 8.88942C11.7295 8.89406 11.579 8.86387 11.4704 8.79884C11.3617 8.72916 11.2803 8.60374 11.226 8.42258L10.0411 4.62516C10.0312 4.59265 10.0164 4.57639 9.99662 4.57639C9.98181 4.57639 9.96947 4.59265 9.95959 4.62516L8.77469 8.42258C8.72038 8.60374 8.63892 8.72916 8.5303 8.79884C8.42169 8.86387 8.2711 8.89406 8.07856 8.88942L3.87214 8.79187C3.83264 8.79187 3.81042 8.79884 3.80549 8.81277C3.80055 8.83136 3.81289 8.84994 3.84252 8.86852L7.32318 11.1052C7.43179 11.1748 7.51079 11.2468 7.56016 11.3212C7.61447 11.3955 7.63915 11.4791 7.63422 11.572C7.63422 11.6603 7.61447 11.7601 7.57497 11.8716L6.16789 15.6063C6.15802 15.6342 6.15802 15.6528 6.16789 15.6621Z" fill="#4D4D4D"/>
</svg>
