<svg width="24" height="24" viewBox="0 0 24 24" fill="none" xmlns="http://www.w3.org/2000/svg">
<path d="M2 18.4296V6.96359C2 6.87916 2.00591 6.80035 2.01772 6.72718C2.03545 6.654 2.07089 6.57801 2.12406 6.49921C2.40171 6.03764 2.80343 5.61829 3.3292 5.24116C3.86088 4.86403 4.48117 4.56288 5.19008 4.33773C5.90489 4.11258 6.67582 4 7.50288 4C8.44218 4 9.30764 4.15761 10.0992 4.47282C10.8968 4.78804 11.5318 5.19894 12.0044 5.70554C12.4652 5.19894 13.0914 4.78804 13.883 4.47282C14.6805 4.15761 15.5549 4 16.506 4C17.3212 4 18.0833 4.11258 18.7922 4.33773C19.507 4.56288 20.1303 4.86403 20.6619 5.24116C21.1936 5.61829 21.5983 6.03764 21.8759 6.49921C21.9232 6.57801 21.9557 6.654 21.9734 6.72718C21.9911 6.80035 22 6.87916 22 6.96359V18.4296C22 18.8123 21.8848 19.0938 21.6544 19.2739C21.424 19.4596 21.1493 19.5525 20.8303 19.5525C20.6649 19.5525 20.5054 19.5159 20.3518 19.4427C20.1982 19.3696 20.0239 19.2739 19.829 19.1557C19.3446 18.8517 18.8217 18.6125 18.2605 18.438C17.6993 18.2635 17.1263 18.1791 16.5414 18.1847C15.9152 18.1903 15.3067 18.3001 14.716 18.514C14.1311 18.7335 13.5995 19.0628 13.121 19.5018C12.9142 19.6876 12.7222 19.8171 12.545 19.8902C12.3677 19.9634 12.1876 20 12.0044 20C11.8154 20 11.6323 19.9634 11.455 19.8902C11.2778 19.8171 11.0858 19.6876 10.879 19.5018C10.3946 19.0628 9.85704 18.7335 9.26628 18.514C8.68144 18.3001 8.07887 18.1903 7.45857 18.1847C6.87373 18.1791 6.30069 18.2635 5.73948 18.438C5.17826 18.6125 4.65249 18.8517 4.16216 19.1557C3.97312 19.2739 3.8018 19.3696 3.64821 19.4427C3.49461 19.5159 3.33511 19.5525 3.16969 19.5525C2.85069 19.5525 2.57599 19.4596 2.34559 19.2739C2.1152 19.0938 2 18.8123 2 18.4296ZM3.74568 17.4923C4.20647 17.194 4.76473 16.9604 5.42047 16.7916C6.07621 16.6171 6.77034 16.5298 7.50288 16.5298C7.96367 16.5298 8.4156 16.5777 8.85866 16.6734C9.30173 16.7634 9.71526 16.8901 10.0992 17.0533C10.4832 17.2165 10.8259 17.4051 11.1272 17.619V7.2591C10.8259 6.77502 10.3444 6.38945 9.68277 6.10237C9.02703 5.80967 8.3004 5.66332 7.50288 5.66332C6.97711 5.66332 6.47201 5.72806 5.98759 5.85752C5.50318 5.98698 5.06602 6.16711 4.67612 6.39789C4.28622 6.62867 3.97607 6.90167 3.74568 7.21689V17.4923ZM12.8728 17.619C13.1682 17.4051 13.5109 17.2165 13.9008 17.0533C14.2907 16.8901 14.7042 16.7634 15.1413 16.6734C15.5844 16.5777 16.0393 16.5298 16.506 16.5298C17.2267 16.5298 17.9149 16.6171 18.5707 16.7916C19.2264 16.9604 19.7876 17.194 20.2543 17.4923V7.21689C20.0239 6.90167 19.7108 6.62867 19.315 6.39789C18.9251 6.16711 18.488 5.98698 18.0035 5.85752C17.525 5.72806 17.0258 5.66332 16.506 5.66332C15.6966 5.66332 14.9641 5.80967 14.3084 6.10237C13.6526 6.38945 13.1741 6.77502 12.8728 7.2591V17.619Z" fill="#34C759"/>
</svg>
