<svg width="140" height="44" viewBox="0 0 140 44" fill="none" xmlns="http://www.w3.org/2000/svg">
<path d="M1.98477 24.25C0.765369 24.25 0 23.5078 0 22.3337C0 21.9963 0.0908065 21.5374 0.259447 21.0381L5.37056 6.55769C5.9154 4.97874 6.83644 4.25 8.31528 4.25C9.84602 4.25 10.7541 4.95175 11.3119 6.5442L16.449 21.0381C16.6306 21.5644 16.6954 21.9288 16.6954 22.3337C16.6954 23.4538 15.8782 24.25 14.7366 24.25C13.634 24.25 13.0502 23.7237 12.6999 22.4551L11.714 19.3782H4.95544L3.96954 22.4146C3.60632 23.7102 3.02256 24.25 1.98477 24.25ZM5.81162 16.2203H10.806L8.32826 8.2446H8.23745L5.81162 16.2203Z" fill="black"/>
<path d="M21.0412 24.25C19.8088 24.25 19.0823 23.4673 19.0823 22.1312V6.38225C19.0823 5.03273 19.8088 4.25 21.0412 4.25C22.2735 4.25 23 5.03273 23 6.38225V22.1312C23 23.4673 22.2735 24.25 21.0412 24.25Z" fill="black"/>
<path d="M32.7874 24.1962C31.5249 24.1962 30.7807 23.4167 30.7807 22.086V7.90591H26.8206C25.7309 7.90591 25 7.27419 25 6.22581C25 5.17742 25.7176 4.5457 26.8206 4.5457H38.7674C39.8571 4.5457 40.5748 5.17742 40.5748 6.22581C40.5748 7.27419 39.8439 7.90591 38.7674 7.90591H34.794V22.086C34.794 23.4167 34.0498 24.1962 32.7874 24.1962Z" fill="black"/>
<path d="M45.6379 24.25C41.3322 24.25 38.5814 21.4543 38.5814 16.7231C38.5814 12.0591 41.3721 9.22312 45.6379 9.22312C49.9037 9.22312 52.6944 12.0457 52.6944 16.7231C52.6944 21.4677 49.9435 24.25 45.6379 24.25ZM45.6379 21.2527C47.5382 21.2527 48.7475 19.6263 48.7475 16.7366C48.7475 13.8737 47.5249 12.2204 45.6379 12.2204C43.7508 12.2204 42.5149 13.8737 42.5149 16.7366C42.5149 19.6263 43.7243 21.2527 45.6379 21.2527Z" fill="black"/>
<path d="M61.2392 24.25C56.9336 24.25 54.1827 21.4543 54.1827 16.7231C54.1827 12.0591 56.9734 9.22312 61.2392 9.22312C65.505 9.22312 68.2957 12.0457 68.2957 16.7231C68.2957 21.4677 65.5448 24.25 61.2392 24.25ZM61.2392 21.2527C63.1395 21.2527 64.3488 19.6263 64.3488 16.7366C64.3488 13.8737 63.1262 12.2204 61.2392 12.2204C59.3522 12.2204 58.1163 13.8737 58.1163 16.7366C58.1163 19.6263 59.3256 21.2527 61.2392 21.2527Z" fill="black"/>
<path d="M72.3355 24.2231C71.206 24.2231 70.3953 23.5242 70.3953 22.1801V6.30645C70.3953 4.96237 71.206 4.25 72.3355 4.25C73.4784 4.25 74.2757 4.96237 74.2757 6.30645V22.1801C74.2757 23.5242 73.4784 24.2231 72.3355 24.2231Z" fill="black"/>
<path d="M82.701 24.25C79.4319 24.25 77.2525 23.0672 76.5748 21.3737C76.4817 21.1183 76.4286 20.8629 76.4286 20.6479C76.4286 19.7473 77.093 19.1425 77.9967 19.1425C78.6213 19.1425 79.1528 19.4247 79.6844 20.0296C80.4419 21.0376 81.3189 21.4946 82.794 21.4946C84.2027 21.4946 85.1196 20.9032 85.1196 19.9489C85.1196 19.1694 84.6279 18.7527 83.2326 18.4435L80.8405 17.9328C78.0498 17.328 76.6412 15.8898 76.6412 13.7527C76.6412 10.9973 78.9934 9.22312 82.6877 9.22312C85.6379 9.22312 87.804 10.5806 88.2691 12.207C88.3223 12.4086 88.3621 12.5968 88.3621 12.7849C88.3621 13.578 87.8704 14.129 86.8738 14.129C86.3688 14.129 85.8106 13.9409 85.4651 13.5242C84.7874 12.6505 84.0166 11.9785 82.6213 11.9785C81.3056 11.9785 80.3887 12.6102 80.3887 13.5376C80.3887 14.2903 80.9468 14.7876 82.3688 15.0968L84.7209 15.6075C87.7508 16.2527 89 17.3817 89 19.5323C89 22.3952 86.4618 24.25 82.701 24.25Z" fill="black"/>
<path d="M92.9884 24.2231C91.7374 24.2231 91 23.4425 91 22.11V6.40343C91 5.05754 91.7374 4.27692 92.9884 4.27692C94.2395 4.27692 94.9769 5.05754 94.9769 6.40343V12.433H103.536V6.40343C103.536 5.05754 104.274 4.27692 105.525 4.27692C106.776 4.27692 107.513 5.05754 107.513 6.40343V22.11C107.513 23.4425 106.776 24.2231 105.525 24.2231C104.274 24.2231 103.536 23.4425 103.536 22.11V15.7843H94.9769V22.11C94.9769 23.4425 94.2395 24.2231 92.9884 24.2231Z" fill="black"/>
<path d="M115.362 24.2365C112.307 24.2365 110.279 22.2042 110.279 18.8395V11.3025C110.279 9.95659 111.082 9.24327 112.201 9.24327C113.334 9.24327 114.124 9.95659 114.124 11.3025V18.0185C114.124 19.9431 115.059 20.966 116.758 20.966C118.469 20.966 119.536 19.7143 119.536 17.8032V11.3025C119.536 9.95659 120.339 9.24327 121.459 9.24327C122.591 9.24327 123.381 9.95659 123.381 11.3025V22.2581C123.381 23.5636 122.631 24.25 121.525 24.25C120.418 24.25 119.668 23.5636 119.668 22.2581V21.3698H119.589C118.891 23.1867 117.495 24.2365 115.362 24.2365Z" fill="black"/>
<path d="M127.859 24.25C126.752 24.25 125.976 23.5771 125.976 22.2581V6.30922C125.976 4.96332 126.779 4.25 127.898 4.25C129.031 4.25 129.821 4.96332 129.821 6.30922V12.0427H129.9C130.677 10.3334 132.257 9.31057 134.259 9.31057C137.827 9.31057 140 12.0966 140 16.7534C140 21.3967 137.84 24.1962 134.272 24.1962C132.204 24.1962 130.637 23.1733 129.847 21.4909H129.768V22.2581C129.768 23.5636 128.978 24.25 127.859 24.25ZM132.955 21.0333C134.864 21.0333 136.063 19.3913 136.063 16.7534C136.063 14.1289 134.864 12.46 132.955 12.46C131.085 12.46 129.808 14.1692 129.808 16.7534C129.808 19.3644 131.085 21.0333 132.955 21.0333Z" fill="black"/>
<path d="M65.6634 36.392V41.25H64.0707V33.0682H65.5994V34.3999H65.7006C65.8888 33.9666 66.1836 33.6186 66.5849 33.3558C66.9897 33.093 67.4993 32.9616 68.1136 32.9616C68.6712 32.9616 69.1594 33.0788 69.5785 33.3132C69.9975 33.544 70.3224 33.8885 70.5533 34.3466C70.7841 34.8047 70.8995 35.3711 70.8995 36.0458V41.25H69.3068V36.2376C69.3068 35.6445 69.1523 35.1811 68.8434 34.8473C68.5344 34.5099 68.1101 34.3413 67.5703 34.3413C67.201 34.3413 66.8725 34.4212 66.5849 34.581C66.3008 34.7408 66.0753 34.9751 65.9084 35.2841C65.745 35.5895 65.6634 35.9588 65.6634 36.392ZM76.5618 41.4151C75.7557 41.4151 75.0614 41.2429 74.479 40.8984C73.9002 40.5504 73.4528 40.0621 73.1367 39.4336C72.8242 38.8015 72.668 38.0611 72.668 37.2124C72.668 36.3743 72.8242 35.6357 73.1367 34.9964C73.4528 34.3572 73.8931 33.8583 74.4577 33.4996C75.0259 33.141 75.69 32.9616 76.4499 32.9616C76.9116 32.9616 77.359 33.038 77.7923 33.1907C78.2255 33.3434 78.6143 33.5831 78.9588 33.9098C79.3033 34.2365 79.5749 34.6609 79.7738 35.1829C79.9727 35.7013 80.0721 36.3317 80.0721 37.0739V37.6385H73.5682V36.4453H78.5114C78.5114 36.0263 78.4261 35.6552 78.2557 35.332C78.0852 35.0053 77.8455 34.7479 77.5366 34.5597C77.2312 34.3714 76.8725 34.2773 76.4606 34.2773C76.0131 34.2773 75.6225 34.3874 75.2887 34.6076C74.9585 34.8242 74.7028 35.1083 74.5217 35.4599C74.3441 35.8079 74.2553 36.1861 74.2553 36.5945V37.5266C74.2553 38.0735 74.3512 38.5387 74.543 38.9222C74.7383 39.3058 75.0099 39.5987 75.358 39.8011C75.706 40 76.1126 40.0994 76.5778 40.0994C76.8796 40.0994 77.1548 40.0568 77.4034 39.9716C77.652 39.8828 77.8668 39.7514 78.0479 39.5774C78.229 39.4034 78.3675 39.1886 78.4634 38.9329L79.9709 39.2045C79.8501 39.6484 79.6335 40.0373 79.321 40.3711C79.0121 40.7013 78.6232 40.9588 78.1545 41.1435C77.6893 41.3246 77.1584 41.4151 76.5618 41.4151ZM83.5984 41.25L81.1907 33.0682H82.8366L84.44 39.0767H84.5199L86.1286 33.0682H87.7745L89.3725 39.0501H89.4524L91.0451 33.0682H92.6911L90.2887 41.25H88.6641L87.0021 35.3427H86.8796L85.2177 41.25H83.5984ZM100.334 35.0657L98.89 35.3214C98.8296 35.1367 98.7338 34.9609 98.6024 34.794C98.4745 34.6271 98.3005 34.4904 98.0803 34.3839C97.8602 34.2773 97.585 34.2241 97.2547 34.2241C96.8037 34.2241 96.4273 34.3253 96.1254 34.5277C95.8236 34.7266 95.6727 34.984 95.6727 35.3001C95.6727 35.5735 95.7739 35.7937 95.9763 35.9606C96.1787 36.1275 96.5054 36.2642 96.9564 36.3707L98.2561 36.669C99.009 36.843 99.57 37.1112 99.9394 37.4734C100.309 37.8356 100.493 38.3061 100.493 38.8849C100.493 39.375 100.351 39.8118 100.067 40.1953C99.7867 40.5753 99.3943 40.8736 98.89 41.0902C98.3893 41.3068 97.8087 41.4151 97.1482 41.4151C96.232 41.4151 95.4845 41.2198 94.9056 40.8292C94.3268 40.435 93.9717 39.8757 93.8403 39.1513L95.3797 38.9169C95.4756 39.3182 95.6727 39.6218 95.971 39.8278C96.2693 40.0302 96.6581 40.1314 97.1375 40.1314C97.6595 40.1314 98.0768 40.0231 98.3893 39.8065C98.7018 39.5863 98.858 39.3182 98.858 39.0021C98.858 38.7464 98.7622 38.5316 98.5704 38.3576C98.3822 38.1836 98.0928 38.0522 97.7021 37.9634L96.3172 37.6598C95.5537 37.4858 94.9891 37.2088 94.6233 36.8288C94.2611 36.4489 94.08 35.9677 94.08 35.3853C94.08 34.9023 94.2149 34.4798 94.4848 34.1175C94.7547 33.7553 95.1276 33.473 95.6034 33.2706C96.0793 33.0646 96.6244 32.9616 97.2387 32.9616C98.123 32.9616 98.819 33.1534 99.3268 33.5369C99.8346 33.9169 100.17 34.4265 100.334 35.0657ZM103.837 30.3409V41.25H102.244V30.3409H103.837ZM109.506 41.4151C108.7 41.4151 108.006 41.2429 107.423 40.8984C106.845 40.5504 106.397 40.0621 106.081 39.4336C105.769 38.8015 105.612 38.0611 105.612 37.2124C105.612 36.3743 105.769 35.6357 106.081 34.9964C106.397 34.3572 106.837 33.8583 107.402 33.4996C107.97 33.141 108.634 32.9616 109.394 32.9616C109.856 32.9616 110.303 33.038 110.737 33.1907C111.17 33.3434 111.559 33.5831 111.903 33.9098C112.248 34.2365 112.519 34.6609 112.718 35.1829C112.917 35.7013 113.016 36.3317 113.016 37.0739V37.6385H106.513V36.4453H111.456C111.456 36.0263 111.37 35.6552 111.2 35.332C111.03 35.0053 110.79 34.7479 110.481 34.5597C110.176 34.3714 109.817 34.2773 109.405 34.2773C108.957 34.2773 108.567 34.3874 108.233 34.6076C107.903 34.8242 107.647 35.1083 107.466 35.4599C107.288 35.8079 107.2 36.1861 107.2 36.5945V37.5266C107.2 38.0735 107.296 38.5387 107.487 38.9222C107.683 39.3058 107.954 39.5987 108.302 39.8011C108.65 40 109.057 40.0994 109.522 40.0994C109.824 40.0994 110.099 40.0568 110.348 39.9716C110.596 39.8828 110.811 39.7514 110.992 39.5774C111.173 39.4034 111.312 39.1886 111.408 38.9329L112.915 39.2045C112.794 39.6484 112.578 40.0373 112.265 40.3711C111.956 40.7013 111.568 40.9588 111.099 41.1435C110.634 41.3246 110.103 41.4151 109.506 41.4151ZM118.603 33.0682V34.3466H114.134V33.0682H118.603ZM115.332 31.108H116.925V38.8477C116.925 39.1566 116.971 39.3892 117.063 39.5455C117.156 39.6982 117.275 39.8029 117.42 39.8597C117.569 39.913 117.731 39.9396 117.905 39.9396C118.033 39.9396 118.145 39.9308 118.241 39.913C118.336 39.8952 118.411 39.881 118.464 39.8704L118.752 41.1861C118.66 41.2216 118.528 41.2571 118.358 41.2926C118.187 41.3317 117.974 41.353 117.719 41.3565C117.3 41.3636 116.909 41.2891 116.547 41.1328C116.184 40.9766 115.892 40.7351 115.668 40.4084C115.444 40.0817 115.332 39.6715 115.332 39.1779V31.108ZM124.184 33.0682V34.3466H119.715V33.0682H124.184ZM120.913 31.108H122.506V38.8477C122.506 39.1566 122.552 39.3892 122.644 39.5455C122.737 39.6982 122.856 39.8029 123.001 39.8597C123.15 39.913 123.312 39.9396 123.486 39.9396C123.614 39.9396 123.726 39.9308 123.822 39.913C123.918 39.8952 123.992 39.881 124.045 39.8704L124.333 41.1861C124.241 41.2216 124.109 41.2571 123.939 41.2926C123.768 41.3317 123.555 41.353 123.3 41.3565C122.881 41.3636 122.49 41.2891 122.128 41.1328C121.766 40.9766 121.473 40.7351 121.249 40.4084C121.025 40.0817 120.913 39.6715 120.913 39.1779V31.108ZM129.384 41.4151C128.578 41.4151 127.884 41.2429 127.301 40.8984C126.722 40.5504 126.275 40.0621 125.959 39.4336C125.646 38.8015 125.49 38.0611 125.49 37.2124C125.49 36.3743 125.646 35.6357 125.959 34.9964C126.275 34.3572 126.715 33.8583 127.28 33.4996C127.848 33.141 128.512 32.9616 129.272 32.9616C129.734 32.9616 130.181 33.038 130.615 33.1907C131.048 33.3434 131.437 33.5831 131.781 33.9098C132.126 34.2365 132.397 34.6609 132.596 35.1829C132.795 35.7013 132.894 36.3317 132.894 37.0739V37.6385H126.39V36.4453H131.334C131.334 36.0263 131.248 35.6552 131.078 35.332C130.907 35.0053 130.668 34.7479 130.359 34.5597C130.053 34.3714 129.695 34.2773 129.283 34.2773C128.835 34.2773 128.445 34.3874 128.111 34.6076C127.781 34.8242 127.525 35.1083 127.344 35.4599C127.166 35.8079 127.078 36.1861 127.078 36.5945V37.5266C127.078 38.0735 127.173 38.5387 127.365 38.9222C127.561 39.3058 127.832 39.5987 128.18 39.8011C128.528 40 128.935 40.0994 129.4 40.0994C129.702 40.0994 129.977 40.0568 130.226 39.9716C130.474 39.8828 130.689 39.7514 130.87 39.5774C131.051 39.4034 131.19 39.1886 131.286 38.9329L132.793 39.2045C132.672 39.6484 132.456 40.0373 132.143 40.3711C131.834 40.7013 131.445 40.9588 130.977 41.1435C130.512 41.3246 129.981 41.4151 129.384 41.4151ZM134.661 41.25V33.0682H136.201V34.3679H136.286C136.435 33.9276 136.698 33.5813 137.074 33.3292C137.454 33.0735 137.884 32.9457 138.364 32.9457C138.463 32.9457 138.58 32.9492 138.715 32.9563C138.854 32.9634 138.962 32.9723 139.04 32.983V34.5064C138.976 34.4886 138.862 34.4691 138.699 34.4478C138.536 34.4229 138.372 34.4105 138.209 34.4105C137.833 34.4105 137.497 34.4904 137.202 34.6502C136.911 34.8065 136.68 35.0249 136.51 35.3054C136.339 35.5824 136.254 35.8984 136.254 36.2536V41.25H134.661Z" fill="#808080"/>
</svg>
