<svg width="20" height="20" viewBox="0 0 20 20" fill="none" xmlns="http://www.w3.org/2000/svg">
<path d="M6.27688 14.6389C6.08098 14.723 5.88987 14.7511 5.70354 14.723C5.5172 14.695 5.35237 14.6108 5.20903 14.4706L4.17702 13.4608C4.02891 13.3158 3.9429 13.1522 3.91902 12.9699C3.89513 12.7875 3.92379 12.6005 4.00502 12.4089L5.01553 10.0877C5.05375 10.0036 5.09197 9.93577 5.1302 9.88434C5.16842 9.82824 5.2162 9.77214 5.27353 9.71604L12.1894 2.99799C12.5334 2.66139 12.8989 2.49542 13.286 2.5001C13.6777 2.50477 14.048 2.67541 14.3968 3.01201L15.9448 4.54076C16.2936 4.88204 16.468 5.24435 16.468 5.62771C16.468 6.00639 16.296 6.36403 15.952 6.70063L9.04324 13.4187C8.98113 13.4748 8.9214 13.5239 8.86407 13.5659C8.81151 13.6033 8.73985 13.6384 8.64907 13.6711L6.27688 14.6389ZM6.14071 13.4117L8.17606 12.5702L15.0131 5.92223C15.2138 5.72588 15.221 5.5342 15.0346 5.3472L13.5726 3.90261C13.4818 3.81379 13.3839 3.77171 13.2788 3.77639C13.1785 3.78106 13.0805 3.82547 12.985 3.90962L6.14071 10.5646L5.26636 12.5561C5.24248 12.6216 5.23292 12.6824 5.2377 12.7385C5.24248 12.7899 5.27592 12.8436 5.33803 12.8997L5.78954 13.3415C5.84687 13.4023 5.90182 13.435 5.95437 13.4397C6.01171 13.4444 6.07382 13.435 6.14071 13.4117ZM3.35284 15.0105C3.18084 15.0105 3.07095 14.9498 3.02317 14.8282C2.98017 14.7067 3.01362 14.5898 3.12351 14.4776L4.36335 13.2083L5.46703 14.3023L4.75036 14.8492C4.67391 14.91 4.60463 14.9521 4.54252 14.9755C4.48041 14.9988 4.39441 15.0105 4.28452 15.0105H3.35284ZM5.3452 10.5295L6.11204 9.77915L9.12924 12.7455L8.3624 13.4958L5.3452 10.5295ZM11.3223 4.72308L12.0891 3.97975L15.1135 6.94607L14.3395 7.6894L11.3223 4.72308ZM3.12351 17.5C2.95151 17.5 2.80339 17.4369 2.67917 17.3107C2.55972 17.1891 2.5 17.0465 2.5 16.8829C2.5 16.7146 2.55972 16.5697 2.67917 16.4481C2.80339 16.3266 2.95151 16.2658 3.12351 16.2658H16.8693C17.0413 16.2658 17.1894 16.3266 17.3137 16.4481C17.4379 16.5697 17.5 16.7146 17.5 16.8829C17.5 17.0465 17.4379 17.1891 17.3137 17.3107C17.1894 17.4369 17.0413 17.5 16.8693 17.5H3.12351Z" fill="#808080"/>
</svg>
