<svg width="12" height="12" viewBox="0 0 12 12" fill="none" xmlns="http://www.w3.org/2000/svg">
<path d="M1.74061 12C0.580205 12 0 11.6317 0 10.8951C0 10.4582 0.138794 10 0.416382 9.52034C0.698521 9.04068 1.10125 8.59315 1.62457 8.17773C2.15245 7.76231 2.78498 7.42612 3.52218 7.16916C4.25939 6.90792 5.0876 6.7773 6.00683 6.7773C6.91695 6.7773 7.74061 6.90792 8.47782 7.16916C9.21957 7.42612 9.8521 7.76231 10.3754 8.17773C10.8987 8.59315 11.2992 9.04068 11.5768 9.52034C11.8589 10 12 10.4582 12 10.8951C12 11.6317 11.4198 12 10.2594 12H1.74061ZM1.52218 10.8887H10.4846C10.562 10.8887 10.6166 10.8758 10.6485 10.8501C10.6849 10.8244 10.7031 10.7816 10.7031 10.7216C10.7031 10.4732 10.6007 10.1906 10.3959 9.87366C10.1911 9.55246 9.88623 9.24197 9.48123 8.94218C9.08077 8.63812 8.58931 8.38758 8.00683 8.19058C7.42435 7.98929 6.75768 7.88865 6.00683 7.88865C5.25142 7.88865 4.5802 7.98929 3.99317 8.19058C3.41069 8.38758 2.91923 8.63812 2.51877 8.94218C2.11832 9.24197 1.81342 9.55246 1.6041 9.87366C1.39932 10.1906 1.29693 10.4732 1.29693 10.7216C1.29693 10.7816 1.31286 10.8244 1.34471 10.8501C1.38111 10.8758 1.44027 10.8887 1.52218 10.8887ZM6.00683 6.0257C5.4562 6.0257 4.95336 5.88865 4.49829 5.61456C4.04778 5.34047 3.68828 4.9743 3.4198 4.51606C3.15131 4.05353 3.01706 3.5439 3.01706 2.98715C3.01706 2.43897 3.15131 1.94004 3.4198 1.49036C3.68828 1.0364 4.04778 0.674518 4.49829 0.404711C4.95336 0.134904 5.4562 0 6.00683 0C6.55745 0 7.05802 0.132762 7.50853 0.398287C7.96359 0.663812 8.32309 1.02141 8.58703 1.47109C8.85552 1.92077 8.98976 2.42184 8.98976 2.9743C8.98976 3.53533 8.85552 4.04711 8.58703 4.50964C8.31854 4.97216 7.95904 5.34047 7.50853 5.61456C7.05802 5.88865 6.55745 6.0257 6.00683 6.0257ZM6.00683 4.90792C6.32537 4.90792 6.61661 4.82441 6.88055 4.65739C7.14448 4.48608 7.35609 4.25482 7.51536 3.9636C7.67463 3.66809 7.75427 3.33833 7.75427 2.9743C7.75427 2.61884 7.67463 2.30193 7.51536 2.02355C7.35609 1.7409 7.14448 1.5182 6.88055 1.35546C6.61661 1.19272 6.32537 1.11135 6.00683 1.11135C5.68828 1.11135 5.39704 1.19486 5.13311 1.36188C4.86917 1.52463 4.65757 1.74732 4.49829 2.02998C4.33902 2.31263 4.25939 2.63169 4.25939 2.98715C4.25939 3.34689 4.33902 3.67452 4.49829 3.97002C4.65757 4.26124 4.86917 4.49036 5.13311 4.65739C5.40159 4.82441 5.69283 4.90792 6.00683 4.90792Z" fill="#4D4D4D"/>
</svg>
