<svg width="21" height="20" viewBox="0 0 21 20" fill="none" xmlns="http://www.w3.org/2000/svg">
<path d="M5.00389 17.5C3.55338 17.5 2.82812 17.0396 2.82812 16.1188C2.82812 15.5728 3.00162 15 3.3486 14.4004C3.70128 13.8009 4.20469 13.2414 4.85884 12.7222C5.51868 12.2029 6.30935 11.7827 7.23086 11.4615C8.15236 11.1349 9.18762 10.9716 10.3367 10.9716C11.4743 10.9716 12.5039 11.1349 13.4254 11.4615C14.3526 11.7827 15.1433 12.2029 15.7974 12.7222C16.4516 13.2414 16.9521 13.8009 17.2991 14.4004C17.6518 15 17.8281 15.5728 17.8281 16.1188C17.8281 17.0396 17.1029 17.5 15.6524 17.5H5.00389ZM4.73086 16.1108H15.9339C16.0306 16.1108 16.0989 16.0948 16.1387 16.0626C16.1842 16.0305 16.207 15.977 16.207 15.902C16.207 15.5915 16.079 15.2382 15.823 14.8421C15.567 14.4406 15.1859 14.0525 14.6797 13.6777C14.1791 13.2976 13.5648 12.9845 12.8367 12.7382C12.1086 12.4866 11.2752 12.3608 10.3367 12.3608C9.3924 12.3608 8.55338 12.4866 7.81959 12.7382C7.09149 12.9845 6.47716 13.2976 5.97659 13.6777C5.47602 14.0525 5.09491 14.4406 4.83324 14.8421C4.57727 15.2382 4.44929 15.5915 4.44929 15.902C4.44929 15.977 4.46919 16.0305 4.50901 16.0626C4.55452 16.0948 4.62847 16.1108 4.73086 16.1108ZM10.3367 10.0321C9.64838 10.0321 9.01982 9.86081 8.45099 9.5182C7.88785 9.17559 7.43848 8.71788 7.10287 8.14507C6.76726 7.56692 6.59946 6.92987 6.59946 6.23394C6.59946 5.54872 6.76726 4.92505 7.10287 4.36295C7.43848 3.7955 7.88785 3.34315 8.45099 3.00589C9.01982 2.66863 9.64838 2.5 10.3367 2.5C11.0249 2.5 11.6507 2.66595 12.2138 2.99786C12.7826 3.32976 13.232 3.77677 13.5619 4.33887C13.8975 4.90096 14.0653 5.5273 14.0653 6.21788C14.0653 6.91916 13.8975 7.55889 13.5619 8.13704C13.2263 8.7152 12.7769 9.17559 12.2138 9.5182C11.6507 9.86081 11.0249 10.0321 10.3367 10.0321ZM10.3367 8.6349C10.7348 8.6349 11.0989 8.53051 11.4288 8.32173C11.7587 8.1076 12.0232 7.81852 12.2223 7.4545C12.4214 7.08512 12.521 6.67291 12.521 6.21788C12.521 5.77355 12.4214 5.37741 12.2223 5.02944C12.0232 4.67612 11.7587 4.39775 11.4288 4.19433C11.0989 3.9909 10.7348 3.88919 10.3367 3.88919C9.93848 3.88919 9.57443 3.99358 9.24451 4.20236C8.91459 4.40578 8.65008 4.68415 8.45099 5.03747C8.2519 5.39079 8.15236 5.78961 8.15236 6.23394C8.15236 6.68362 8.2519 7.09315 8.45099 7.46253C8.65008 7.82655 8.91459 8.11296 9.24451 8.32173C9.58012 8.53051 9.94417 8.6349 10.3367 8.6349Z" fill="white"/>
</svg>
