<svg width="16" height="16" viewBox="0 0 16 16" fill="none" xmlns="http://www.w3.org/2000/svg">
<path d="M2.66663 7.99984C2.66663 7.80443 2.73672 7.63664 2.8769 7.49645C3.01708 7.35202 3.18488 7.27981 3.38029 7.27981H7.2863V3.38016C7.2863 3.18476 7.35639 3.01696 7.49657 2.87678C7.63676 2.7366 7.80455 2.6665 7.99996 2.6665C8.19961 2.6665 8.36953 2.7366 8.50972 2.87678C8.6499 3.01696 8.71999 3.18476 8.71999 3.38016V7.27981H12.6196C12.815 7.27981 12.9828 7.35202 13.123 7.49645C13.2632 7.63664 13.3333 7.80443 13.3333 7.99984C13.3333 8.19949 13.2632 8.36941 13.123 8.50959C12.9828 8.64553 12.815 8.7135 12.6196 8.7135H8.71999V12.6259C8.71999 12.817 8.6499 12.9827 8.50972 13.1229C8.36953 13.2631 8.19961 13.3332 7.99996 13.3332C7.80455 13.3332 7.63676 13.2631 7.49657 13.1229C7.35639 12.9827 7.2863 12.817 7.2863 12.6259V8.7135H3.38029C3.18488 8.7135 3.01708 8.64553 2.8769 8.50959C2.73672 8.36941 2.66663 8.19949 2.66663 7.99984Z" fill="#4D4D4D"/>
</svg>
