<svg width="16" height="16" viewBox="0 0 16 16" fill="none" xmlns="http://www.w3.org/2000/svg">
<path d="M14.6667 8C14.6667 8.20053 14.5949 8.37731 14.4513 8.53034L9.67658 13.7784C9.53777 13.9261 9.3822 14 9.20988 14C9.03277 14 8.88438 13.934 8.76472 13.8021C8.64505 13.6755 8.58521 13.5145 8.58521 13.3193C8.58521 13.2243 8.59957 13.1346 8.62829 13.0501C8.65701 12.9604 8.7001 12.8839 8.75754 12.8206L10.3659 11.0158L13.2163 8.15831L13.3599 8.54617L11.048 8.70449H1.96522C1.77854 8.70449 1.62536 8.63852 1.50569 8.5066C1.39081 8.37467 1.33337 8.2058 1.33337 8C1.33337 7.7942 1.39081 7.62533 1.50569 7.4934C1.62536 7.36148 1.77854 7.29551 1.96522 7.29551H11.048L13.3599 7.45383L13.2163 7.8496L10.3659 4.98417L8.75754 3.17942C8.7001 3.11609 8.65701 3.04222 8.62829 2.95778C8.59957 2.86807 8.58521 2.77573 8.58521 2.68074C8.58521 2.48549 8.64505 2.32454 8.76472 2.19789C8.88438 2.06596 9.03277 2 9.20988 2C9.29604 2 9.37741 2.01847 9.454 2.05541C9.53537 2.09235 9.61435 2.15303 9.69094 2.23747L14.4513 7.46966C14.5949 7.62269 14.6667 7.79947 14.6667 8Z" fill="#808080"/>
</svg>
