<svg width="20" height="20" viewBox="0 0 20 20" fill="none" xmlns="http://www.w3.org/2000/svg">
<path d="M1.66699 8.40702C1.66699 7.47781 1.84327 6.60773 2.19582 5.79678C2.54838 4.9802 3.0374 4.26218 3.6629 3.6427C4.2884 3.02323 5.01056 2.53891 5.82939 2.18975C6.65391 1.84059 7.5353 1.66602 8.47354 1.66602C9.41179 1.66602 10.2903 1.84059 11.1092 2.18975C11.9337 2.53891 12.6587 3.02323 13.2842 3.6427C13.9097 4.26218 14.3987 4.9802 14.7513 5.79678C15.1038 6.60773 15.2801 7.47781 15.2801 8.40702C15.2801 9.17855 15.155 9.91065 14.9048 10.6033C14.6603 11.296 14.3191 11.9239 13.8813 12.4871L18.0522 16.6432C18.1432 16.7333 18.2114 16.8375 18.2569 16.9558C18.3081 17.074 18.3337 17.2007 18.3337 17.3359C18.3337 17.5217 18.291 17.6907 18.2057 17.8427C18.1261 17.9948 18.0124 18.1131 17.8645 18.1975C17.7167 18.2876 17.5461 18.3327 17.3528 18.3327C17.2163 18.3327 17.0855 18.3073 16.9604 18.2567C16.841 18.2116 16.7301 18.1412 16.6278 18.0455L12.4312 13.8809C11.874 14.2751 11.2599 14.5849 10.5889 14.8101C9.91787 15.0354 9.21277 15.148 8.47354 15.148C7.5353 15.148 6.65391 14.9734 5.82939 14.6243C5.01056 14.2751 4.2884 13.7908 3.6629 13.1713C3.0374 12.5519 2.54838 11.8367 2.19582 11.0257C1.84327 10.2091 1.66699 9.33623 1.66699 8.40702ZM3.12554 8.40702C3.12554 9.13913 3.26201 9.82618 3.53496 10.4682C3.81359 11.1045 4.19741 11.6649 4.68644 12.1492C5.18115 12.6335 5.74979 13.0137 6.39234 13.2896C7.04059 13.5655 7.73432 13.7035 8.47354 13.7035C9.21277 13.7035 9.90366 13.5655 10.5462 13.2896C11.1945 13.0137 11.7631 12.6335 12.2521 12.1492C12.7411 11.6649 13.125 11.1045 13.4036 10.4682C13.6822 9.82618 13.8215 9.13913 13.8215 8.40702C13.8215 7.67491 13.6822 6.99068 13.4036 6.35431C13.125 5.71231 12.7411 5.14915 12.2521 4.66483C11.7631 4.17489 11.1945 3.79475 10.5462 3.52444C9.90366 3.24849 9.21277 3.11052 8.47354 3.11052C7.73432 3.11052 7.04059 3.24849 6.39234 3.52444C5.74979 3.79475 5.18115 4.17489 4.68644 4.66483C4.19741 5.14915 3.81359 5.71231 3.53496 6.35431C3.26201 6.99068 3.12554 7.67491 3.12554 8.40702Z" fill="#808080"/>
</svg>
