<svg width="24" height="24" viewBox="0 0 24 24" fill="none" xmlns="http://www.w3.org/2000/svg">
<path d="M4 18.8622V5.82153C4 5.01742 4.21173 4.4085 4.63519 3.99479C5.05866 3.57525 5.63662 3.34217 6.3691 3.29556C7.37053 3.23146 8.3319 3.14114 9.25322 3.02461C10.1803 2.90807 11.0701 2.77405 11.9227 2.62255C12.7811 2.46522 13.6052 2.29333 14.3949 2.10686C15.2532 1.89709 15.9199 1.99615 16.3949 2.40404C16.8698 2.8061 17.1073 3.46454 17.1073 4.37937V17.1491C17.1073 17.9241 16.9757 18.5126 16.7124 18.9146C16.4492 19.3225 15.9971 19.6226 15.3562 19.8149C14.3205 20.1062 13.319 20.3422 12.3519 20.5229C11.3848 20.7093 10.4292 20.855 9.48498 20.9599C8.5465 21.0648 7.59657 21.1434 6.63519 21.1959C5.79971 21.2483 5.15021 21.0677 4.6867 20.654C4.2289 20.2461 4 19.6488 4 18.8622ZM5.61373 18.5738C5.61373 18.9059 5.71102 19.1565 5.90558 19.3254C6.10014 19.4944 6.36624 19.5702 6.70386 19.5527C7.64235 19.5061 8.55794 19.4332 9.45064 19.3342C10.3491 19.2351 11.2275 19.104 12.0858 18.9409C12.9499 18.7835 13.8083 18.5825 14.6609 18.3378C14.97 18.2562 15.1846 18.1222 15.3047 17.9357C15.4306 17.7434 15.4936 17.4637 15.4936 17.0966V4.68528C15.4936 4.32984 15.3934 4.06471 15.1931 3.8899C14.9928 3.7151 14.7153 3.66848 14.3605 3.75006C13.5765 3.93652 12.7639 4.10841 11.9227 4.26574C11.0873 4.41724 10.226 4.55126 9.33906 4.6678C8.45207 4.77851 7.53934 4.86009 6.60086 4.91253C6.31474 4.92418 6.07725 5.00576 5.88841 5.15726C5.70529 5.30293 5.61373 5.53893 5.61373 5.86523V18.5738ZM7.47639 8.02411C7.32761 8.03576 7.20458 7.99206 7.1073 7.893C7.01001 7.79395 6.96137 7.6745 6.96137 7.53465C6.96137 7.3948 7.00143 7.27535 7.08155 7.17629C7.16738 7.07141 7.299 7.01314 7.47639 7.00148C8.65522 6.92573 9.73104 6.80628 10.7039 6.64313C11.6824 6.47997 12.6295 6.29351 13.5451 6.08374C13.7396 6.04295 13.8884 6.075 13.9914 6.17989C14.1001 6.27895 14.1545 6.3984 14.1545 6.53824C14.1545 6.66061 14.1202 6.77423 14.0515 6.87912C13.9828 6.97818 13.8484 7.0481 13.6481 7.08889C12.6867 7.31031 11.7139 7.5026 10.7296 7.66575C9.74535 7.82891 8.66094 7.94836 7.47639 8.02411ZM7.47639 10.7424C7.32761 10.7482 7.20458 10.7016 7.1073 10.6025C7.01001 10.5035 6.96137 10.3811 6.96137 10.2354C6.96137 10.1014 7.00143 9.98487 7.08155 9.88582C7.16738 9.78093 7.299 9.72266 7.47639 9.71101C8.65522 9.62943 9.73104 9.50998 10.7039 9.35265C11.6824 9.1895 12.6295 9.00595 13.5451 8.80201C13.7396 8.75539 13.8884 8.78453 13.9914 8.88941C14.1001 8.98847 14.1545 9.10792 14.1545 9.24777C14.1545 9.37596 14.1202 9.48958 14.0515 9.58864C13.9828 9.68187 13.8484 9.75471 13.6481 9.80715C12.6867 10.0227 11.7139 10.2121 10.7296 10.3753C9.74535 10.5326 8.66094 10.655 7.47639 10.7424ZM7.47639 13.4519C7.32761 13.4577 7.20458 13.4111 7.1073 13.312C7.01001 13.213 6.96137 13.0906 6.96137 12.945C6.96137 12.8109 7.00143 12.6944 7.08155 12.5953C7.16738 12.4963 7.299 12.4409 7.47639 12.4293C8.65522 12.3419 9.73104 12.2195 10.7039 12.0622C11.6824 11.9048 12.6295 11.7213 13.5451 11.5115C13.7396 11.4649 13.8884 11.4911 13.9914 11.5902C14.1001 11.6892 14.1545 11.8116 14.1545 11.9573C14.1545 12.0855 14.1202 12.1991 14.0515 12.2982C13.9828 12.3972 13.8484 12.4701 13.6481 12.5167C12.6867 12.7323 11.7139 12.9216 10.7296 13.0848C9.74535 13.248 8.66094 13.3703 7.47639 13.4519ZM7.47639 16.1527C7.32761 16.1585 7.20458 16.1148 7.1073 16.0216C7.01001 15.9225 6.96137 15.8001 6.96137 15.6545C6.96137 15.5205 7.00143 15.4039 7.08155 15.3049C7.16738 15.2 7.299 15.1417 7.47639 15.1301C8.14592 15.0893 8.71531 15.0397 9.18455 14.9815C9.65951 14.9174 10.0944 14.8562 10.4893 14.7979C10.6896 14.7571 10.8412 14.7892 10.9442 14.8941C11.0529 14.9989 11.1073 15.1213 11.1073 15.2612C11.1073 15.3777 11.0672 15.4884 10.9871 15.5933C10.9127 15.6982 10.8011 15.7652 10.6524 15.7943C10.2117 15.8701 9.74249 15.94 9.24464 16.0041C8.7525 16.0624 8.16309 16.1119 7.47639 16.1527ZM11.0901 22C11.8226 21.8835 12.5722 21.7407 13.3391 21.5717C14.1059 21.4086 14.8927 21.2163 15.6996 20.9949C16.2775 20.8259 16.7611 20.5811 17.1502 20.2607C17.5451 19.946 17.8426 19.5352 18.0429 19.0283C18.2432 18.5213 18.3433 17.8949 18.3433 17.1491V4.42307C18.3433 4.27739 18.3376 4.13464 18.3262 3.99479C18.3147 3.84912 18.3004 3.6947 18.2833 3.53155C18.8498 3.67722 19.2761 3.97439 19.5622 4.42307C19.8541 4.86591 20 5.45735 20 6.19737V19.1419C20 20.0917 19.7682 20.8055 19.3047 21.2833C18.8469 21.7611 18.1574 22 17.2361 22H11.0901Z" fill="white"/>
</svg>
