<svg width="24" height="24" viewBox="0 0 24 24" fill="none" xmlns="http://www.w3.org/2000/svg">
<path d="M2 10.9796C2 10.4215 2.08955 9.88598 2.26866 9.37311C2.45274 8.86025 2.71393 8.39264 3.05224 7.97027C3.39055 7.54289 3.79353 7.18841 4.26119 6.90683L4.96269 8.11358C4.47512 8.41526 4.08955 8.82002 3.80597 9.32786C3.52736 9.8357 3.38806 10.3838 3.38806 10.972C3.38806 11.6358 3.52985 12.2165 3.81343 12.7143C4.10199 13.2121 4.50249 13.5992 5.01493 13.8758C5.52736 14.1523 6.12687 14.2906 6.81343 14.2906C7.47512 14.2906 8.05721 14.1724 8.5597 13.9361C9.06219 13.6948 9.45025 13.3604 9.72388 12.933C10.0025 12.5006 10.1418 12.0003 10.1418 11.4321C10.1418 11.1556 10.102 10.9092 10.0224 10.693C9.94279 10.4768 9.82836 10.2958 9.6791 10.15C9.54478 10.0243 9.43284 9.92369 9.34328 9.84827C9.25373 9.76782 9.18657 9.68737 9.14179 9.60692C9.09702 9.52144 9.07463 9.41083 9.07463 9.27507C9.07463 9.09406 9.13682 8.94573 9.26119 8.83008C9.39055 8.71443 9.55473 8.65661 9.75373 8.65661C9.89304 8.65661 10.0174 8.68175 10.1269 8.73203C10.2363 8.78231 10.3657 8.87282 10.5149 9.00355C10.8284 9.27004 11.0721 9.61446 11.2463 10.0368C11.4204 10.4542 11.5075 10.9268 11.5075 11.4547C11.5075 12.2995 11.3109 13.0386 10.9179 13.6721C10.5249 14.3057 9.97264 14.7984 9.26119 15.1504C8.54975 15.5024 7.72637 15.6783 6.79105 15.6783C5.83582 15.6783 4.99751 15.4848 4.27612 15.0976C3.55473 14.7054 2.99502 14.1573 2.59701 13.4534C2.199 12.7445 2 11.9198 2 10.9796ZM4.01493 6.97471C4.01493 6.36128 4.16418 5.82076 4.46269 5.35315C4.76119 4.88051 5.16418 4.51094 5.67164 4.24445C6.1791 3.97294 6.74627 3.83718 7.37313 3.83718C7.79105 3.83718 8.21393 3.90757 8.64179 4.04836C9.06965 4.18412 9.47761 4.3953 9.86567 4.6819L9.05224 5.82076C8.78358 5.62467 8.50498 5.47885 8.21642 5.38332C7.92786 5.28778 7.64428 5.24002 7.36567 5.24002C6.98756 5.24002 6.65174 5.31544 6.35821 5.46628C6.06468 5.6121 5.83085 5.81574 5.65672 6.0772C5.48756 6.33363 5.40299 6.6328 5.40299 6.97471C5.40299 7.28143 5.47015 7.55546 5.60448 7.79681C5.74378 8.03313 5.9403 8.21917 6.19403 8.35492C6.44776 8.49068 6.75124 8.55856 7.10448 8.55856C7.28856 8.55856 7.44776 8.62896 7.58209 8.76974C7.72139 8.9055 7.79105 9.06891 7.79105 9.25998C7.79105 9.45105 7.72139 9.61698 7.58209 9.75776C7.44776 9.89352 7.28856 9.9614 7.10448 9.9614C6.47264 9.9614 5.92537 9.8357 5.46269 9.58429C5.00498 9.32786 4.64925 8.97589 4.39552 8.52839C4.14179 8.07587 4.01493 7.55797 4.01493 6.97471ZM8.04478 6.73336C8.06965 5.99926 8.24876 5.35315 8.58209 4.79503C8.91542 4.23188 9.36567 3.79193 9.93284 3.47516C10.505 3.15839 11.1517 3 11.8731 3C12.4005 3 12.8955 3.10559 13.3582 3.31677C13.8209 3.52795 14.209 3.81958 14.5224 4.19166C14.6169 4.16652 14.709 4.14892 14.7985 4.13886C14.893 4.12881 14.9751 4.12378 15.0448 4.12378C15.5522 4.12378 16.0299 4.21931 16.4776 4.41038C16.9303 4.60145 17.3308 4.87548 17.6791 5.23248C18.0274 5.58444 18.301 6.00429 18.5 6.49201C18.704 6.97974 18.806 7.51775 18.806 8.10603C18.806 8.84516 18.6866 9.46111 18.4478 9.95386C18.2139 10.4466 17.9104 10.8589 17.5373 11.1908C17.1692 11.5226 16.7786 11.8117 16.3657 12.0581C15.9527 12.2995 15.5597 12.5358 15.1866 12.7671C14.8184 12.9984 14.5149 13.2623 14.2761 13.559C14.0423 13.8557 13.9254 14.2227 13.9254 14.6602C13.9254 15.2133 14.1393 15.6155 14.5672 15.8669C15 16.1183 15.5796 16.244 16.306 16.244C16.4154 16.244 16.5274 16.244 16.6418 16.244C16.7562 16.239 16.8582 16.2365 16.9478 16.2365C17.0224 16.2365 17.0771 16.2566 17.1119 16.2968C17.1517 16.332 17.1716 16.3798 17.1716 16.4401C17.1716 16.7669 17.2139 17.0963 17.2985 17.4281C17.3831 17.76 17.5149 18.0365 17.694 18.2578C17.8781 18.484 18.1119 18.5972 18.3955 18.5972C18.6741 18.5972 18.9279 18.4589 19.1567 18.1823C19.3856 17.9058 19.5672 17.5237 19.7015 17.0359C19.8358 16.5482 19.903 15.9951 19.903 15.3767C19.903 14.9945 19.8881 14.6476 19.8582 14.3358C19.8333 14.0241 19.8035 13.7098 19.7687 13.3931L21.1493 13.0084C21.1891 13.3353 21.2214 13.6847 21.2463 14.0568C21.2711 14.4289 21.2836 14.8764 21.2836 15.3993C21.2836 15.9876 21.2214 16.5583 21.097 17.1114C20.9726 17.6644 20.7886 18.1572 20.5448 18.5896C20.306 19.022 20.005 19.3639 19.6418 19.6154C19.2836 19.8718 18.8682 20 18.3955 20C17.9627 20 17.5821 19.8793 17.2537 19.638C16.9303 19.4017 16.6667 19.0899 16.4627 18.7028C16.2587 18.3206 16.1219 17.9083 16.0522 17.4658C15.9726 17.4709 15.8905 17.4759 15.806 17.4809C15.7214 17.486 15.6418 17.4885 15.5672 17.4885C14.9851 17.4885 14.4627 17.3728 14 17.1415C13.5373 16.9153 13.1716 16.596 12.903 16.1837C12.6393 15.7663 12.5075 15.2736 12.5075 14.7054C12.5075 14.1171 12.6244 13.6269 12.8582 13.2347C13.097 12.8375 13.403 12.4956 13.7761 12.209C14.1493 11.9173 14.5448 11.6458 14.9627 11.3944C15.3806 11.143 15.7736 10.8765 16.1418 10.5949C16.5149 10.3083 16.8209 9.96643 17.0597 9.56921C17.2985 9.17199 17.4179 8.68427 17.4179 8.10603C17.4179 7.58311 17.296 7.13058 17.0522 6.74845C16.8134 6.36631 16.5 6.06965 16.1119 5.85847C15.7289 5.64227 15.3184 5.53165 14.8806 5.52662C14.7512 5.52662 14.6194 5.53416 14.4851 5.54925C14.3557 5.56433 14.2338 5.58947 14.1194 5.62467C14.0249 5.64478 13.9478 5.64981 13.8881 5.63975C13.8333 5.62467 13.7861 5.58193 13.7463 5.51154C13.602 5.17968 13.3582 4.91068 13.0149 4.70453C12.6716 4.49837 12.2886 4.3953 11.8657 4.3953C11.398 4.3953 10.9826 4.50089 10.6194 4.71207C10.2612 4.91822 9.97512 5.20231 9.76119 5.56433C9.55224 5.92132 9.43781 6.33363 9.41791 6.80124C9.40796 7.01745 9.33831 7.18841 9.20896 7.31411C9.0796 7.43478 8.9204 7.49512 8.73134 7.49512C8.53234 7.49512 8.36567 7.42473 8.23134 7.28394C8.10199 7.14315 8.0398 6.95963 8.04478 6.73336ZM16.9104 14.2378C16.9104 14.0417 16.9801 13.8733 17.1194 13.7325C17.2587 13.5867 17.4254 13.5238 17.6194 13.5439C18.5199 13.6193 19.2438 13.4258 19.791 12.9632C20.3383 12.5006 20.6119 11.852 20.6119 11.0173C20.6119 10.253 20.3806 9.63709 19.9179 9.16948C19.4602 8.70186 18.8507 8.47308 18.0896 8.48314L18.3134 7.0803C19.0498 7.17081 19.694 7.39707 20.2463 7.7591C20.8035 8.11609 21.2338 8.57616 21.5373 9.13931C21.8458 9.70246 22 10.3285 22 11.0173C22 11.857 21.8159 12.5836 21.4478 13.197C21.0846 13.8054 20.5721 14.2629 19.9104 14.5697C19.2488 14.8713 18.4801 14.9945 17.6045 14.9392C17.4104 14.9241 17.2463 14.8537 17.1119 14.728C16.9776 14.5973 16.9104 14.4339 16.9104 14.2378ZM13.1343 15.1051L13.6045 16.4476C13.2512 16.5583 12.8955 16.6387 12.5373 16.689C12.1791 16.7393 11.8358 16.7644 11.5075 16.7644C10.6766 16.7644 9.92289 16.6211 9.24627 16.3345C8.57463 16.0429 8.03731 15.6582 7.63433 15.1806L8.86567 14.2227C9.02488 14.459 9.25124 14.6627 9.54478 14.8336C9.83831 15.0046 10.1667 15.1378 10.5299 15.2334C10.898 15.3239 11.2736 15.3691 11.6567 15.3691C11.9055 15.3691 12.1567 15.3465 12.4104 15.3012C12.6692 15.256 12.9104 15.1906 13.1343 15.1051ZM10.5597 9.85581C11.2711 9.76531 11.7761 9.54658 12.0746 9.19965C12.3731 8.85271 12.5199 8.3675 12.5149 7.74401C12.51 7.55294 12.5746 7.38953 12.709 7.25377C12.8433 7.11801 13.005 7.05013 13.194 7.05013C13.3831 7.05013 13.5473 7.11801 13.6866 7.25377C13.8259 7.38953 13.898 7.55294 13.903 7.74401C13.908 8.67421 13.6741 9.43597 13.2015 10.0293C12.7338 10.6226 12.01 11.0123 11.0299 11.1983L10.5597 9.85581Z" fill="white"/>
</svg>
