<svg width="24" height="24" viewBox="0 0 24 24" fill="none" xmlns="http://www.w3.org/2000/svg">
<path d="M7.53225 17.5666C7.29718 17.6676 7.06785 17.7013 6.84424 17.6676C6.62064 17.634 6.42284 17.533 6.25084 17.3647L5.01242 16.1529C4.83469 15.979 4.73149 15.7826 4.70282 15.5639C4.67415 15.3451 4.70855 15.1207 4.80602 14.8906L6.01863 12.1052C6.0645 12.0043 6.11037 11.9229 6.15623 11.8612C6.2021 11.7939 6.25944 11.7266 6.32824 11.6592L14.6273 3.59759C15.0401 3.19366 15.4787 2.99451 15.9431 3.00012C16.4133 3.00573 16.8576 3.21049 17.2762 3.61442L19.1338 5.44891C19.5523 5.85844 19.7616 6.29322 19.7616 6.75325C19.7616 7.20766 19.5552 7.63683 19.1424 8.04076L10.8519 16.1024C10.7774 16.1697 10.7057 16.2286 10.6369 16.2791C10.5738 16.324 10.4878 16.3661 10.3789 16.4054L7.53225 17.5666ZM7.36885 16.094L9.81128 15.0842L18.0158 7.10668C18.2566 6.87106 18.2652 6.64105 18.0416 6.41664L16.2871 4.68313C16.1782 4.57654 16.0607 4.52605 15.9345 4.53166C15.8141 4.53727 15.6966 4.59057 15.5819 4.69155L7.36885 12.6775L6.31964 15.0674C6.29097 15.1459 6.2795 15.2188 6.28524 15.2862C6.29097 15.3479 6.3311 15.4124 6.40564 15.4797L6.94744 16.0098C7.01624 16.0828 7.08218 16.1221 7.14525 16.1277C7.21405 16.1333 7.28858 16.1221 7.36885 16.094ZM4.02341 18.0126C3.81701 18.0126 3.68514 17.9397 3.62781 17.7938C3.57621 17.648 3.61634 17.5077 3.74821 17.3731L5.23602 15.85L6.56044 17.1627L5.70043 17.8191C5.6087 17.892 5.52556 17.9425 5.45103 17.9706C5.37649 17.9986 5.27329 18.0126 5.14142 18.0126H4.02341ZM6.41424 12.6354L7.33445 11.735L10.9551 15.2946L10.0349 16.195L6.41424 12.6354ZM13.5867 5.6677L14.5069 4.7757L18.1362 8.33528L17.2074 9.22728L13.5867 5.6677ZM3.74821 21C3.54181 21 3.36407 20.9243 3.215 20.7728C3.07167 20.6269 3 20.4558 3 20.2595C3 20.0575 3.07167 19.8836 3.215 19.7377C3.36407 19.5919 3.54181 19.5189 3.74821 19.5189H20.2432C20.4496 19.5189 20.6273 19.5919 20.7764 19.7377C20.9255 19.8836 21 20.0575 21 20.2595C21 20.4558 20.9255 20.6269 20.7764 20.7728C20.6273 20.9243 20.4496 21 20.2432 21H3.74821Z" fill="white"/>
</svg>
