<svg width="32" height="32" viewBox="0 0 32 32" fill="none" xmlns="http://www.w3.org/2000/svg">
<path d="M15.9879 27.6903C15.8352 27.6903 15.6865 27.6862 15.5419 27.6781C15.3972 27.6781 15.2525 27.6699 15.1079 27.6536L14.4448 28.9383C14.3725 29.0852 14.268 29.1912 14.1314 29.2564C13.9947 29.3299 13.842 29.3503 13.6733 29.3176C13.5125 29.285 13.3799 29.2116 13.2754 29.0974C13.179 28.9832 13.1147 28.8404 13.0825 28.6691L12.8655 27.2621C12.5842 27.1805 12.307 27.0867 12.0337 26.9807C11.7685 26.8828 11.4993 26.7767 11.226 26.6625L10.2013 27.5924C10.0727 27.7066 9.93205 27.776 9.77935 27.8004C9.62664 27.8249 9.4659 27.7923 9.29713 27.7025C9.1605 27.621 9.06405 27.5068 9.0078 27.36C8.95957 27.2131 8.95154 27.0541 8.98369 26.8828L9.24891 25.5002C9.02387 25.3289 8.79883 25.1494 8.5738 24.9618C8.34876 24.7742 8.13177 24.5784 7.9228 24.3745L6.65698 24.9129C6.48821 24.9863 6.32747 25.0026 6.17476 24.9618C6.02206 24.921 5.88543 24.8272 5.76488 24.6804C5.66843 24.558 5.61218 24.4194 5.5961 24.2644C5.58806 24.1013 5.62825 23.9463 5.71666 23.7994L6.45204 22.5881C6.2913 22.3516 6.1386 22.1069 5.99393 21.854C5.8573 21.593 5.72067 21.3279 5.58405 21.0587L4.18561 21.1076C4.02487 21.124 3.87619 21.0913 3.73956 21.0098C3.60293 20.92 3.51051 20.7895 3.46229 20.6182C3.40603 20.4551 3.40201 20.3001 3.45023 20.1533C3.49845 20.0065 3.58686 19.88 3.71545 19.774L4.80044 18.893C4.72811 18.6075 4.66783 18.322 4.61961 18.0366C4.57139 17.7429 4.53924 17.4411 4.52317 17.1311L3.18501 16.7029C3.01623 16.6539 2.88764 16.5683 2.79924 16.4459C2.71083 16.3154 2.66663 16.1645 2.66663 15.9932C2.66663 15.8138 2.71083 15.6629 2.79924 15.5405C2.88764 15.4182 3.01623 15.3325 3.18501 15.2836L4.52317 14.8553C4.53924 14.5454 4.57139 14.2476 4.61961 13.9621C4.66783 13.6685 4.72811 13.3789 4.80044 13.0934L3.71545 12.2002C3.58686 12.1024 3.49845 11.98 3.45023 11.8332C3.40201 11.6864 3.40603 11.5355 3.46229 11.3805C3.51051 11.2092 3.60293 11.0827 3.73956 11.0012C3.87619 10.9114 4.02487 10.8747 4.18561 10.8911L5.58405 10.9278C5.72067 10.6586 5.8573 10.3976 5.99393 10.1447C6.1386 9.89183 6.2913 9.63896 6.45204 9.3861L5.7046 8.17479C5.62423 8.03612 5.58806 7.88929 5.5961 7.73431C5.61218 7.57933 5.66843 7.44066 5.76488 7.31831C5.88543 7.17148 6.01804 7.08175 6.16271 7.04913C6.31541 7.00834 6.47615 7.02058 6.64493 7.08583L7.9228 7.59972C8.13177 7.41211 8.34876 7.2245 8.5738 7.03689C8.79883 6.84112 9.02387 6.65759 9.24891 6.4863L8.98369 5.11593C8.9435 4.93647 8.95154 4.77333 9.0078 4.62651C9.06405 4.47968 9.1605 4.36957 9.29713 4.29615C9.45787 4.20643 9.61459 4.1738 9.76729 4.19827C9.92803 4.21458 10.0727 4.28392 10.2013 4.40627L11.226 5.31169C11.4993 5.20565 11.7685 5.10369 12.0337 5.00581C12.307 4.89977 12.5842 4.80596 12.8655 4.72439L13.0825 3.32955C13.1147 3.15826 13.179 3.01551 13.2754 2.90131C13.3799 2.78712 13.5125 2.7137 13.6733 2.68107C13.842 2.64845 13.9947 2.66884 14.1314 2.74225C14.268 2.80751 14.3725 2.90947 14.4448 3.04814L15.1079 4.33286C15.2606 4.31655 15.4052 4.30839 15.5419 4.30839C15.6865 4.30023 15.8352 4.29615 15.9879 4.29615C16.1326 4.29615 16.2772 4.30023 16.4219 4.30839C16.5666 4.30839 16.7112 4.31655 16.8559 4.33286L17.531 3.04814C17.5953 2.90947 17.6958 2.80751 17.8324 2.74225C17.9771 2.66884 18.1338 2.64845 18.3026 2.68107C18.4633 2.7137 18.5959 2.78712 18.7004 2.90131C18.8129 3.01551 18.8772 3.15826 18.8933 3.32955L19.1103 4.73663C19.3835 4.81004 19.6568 4.89977 19.93 5.00581C20.2033 5.10369 20.4725 5.20565 20.7378 5.31169L21.7745 4.39404C21.8951 4.27984 22.0317 4.21458 22.1844 4.19827C22.3451 4.1738 22.5059 4.20643 22.6666 4.29615C22.8033 4.36957 22.8997 4.47968 22.956 4.62651C23.0203 4.77333 23.0323 4.93647 22.9921 5.11593L22.7148 6.4863C22.9399 6.65759 23.1649 6.84112 23.39 7.03689C23.623 7.2245 23.84 7.41211 24.0409 7.59972L25.3309 7.08583C25.4916 7.02058 25.6483 7.00834 25.801 7.04913C25.9537 7.08175 26.0904 7.17148 26.2109 7.31831C26.3074 7.44066 26.3596 7.57933 26.3677 7.73431C26.3837 7.88929 26.3476 8.03612 26.2592 8.17479L25.5238 9.3861C25.8372 9.87551 26.1265 10.3894 26.3918 10.9278L27.7902 10.8911C27.9509 10.8747 28.0996 10.9114 28.2362 11.0012C28.3729 11.0827 28.4653 11.2092 28.5135 11.3805C28.5698 11.5355 28.5698 11.6864 28.5135 11.8332C28.4653 11.98 28.3809 12.1024 28.2604 12.2002L27.1754 13.0934C27.2477 13.3789 27.308 13.6685 27.3562 13.9621C27.4044 14.2476 27.4406 14.5454 27.4647 14.8553L28.7787 15.2836C29.1484 15.4059 29.3333 15.6425 29.3333 15.9932C29.3333 16.344 29.1484 16.5805 28.7787 16.7029L27.4647 17.1311C27.4406 17.4411 27.4044 17.7429 27.3562 18.0366C27.308 18.322 27.2477 18.6075 27.1754 18.893L28.2604 19.774C28.3809 19.88 28.4653 20.0105 28.5135 20.1655C28.5698 20.3123 28.5698 20.4632 28.5135 20.6182C28.4653 20.7895 28.3729 20.92 28.2362 21.0098C28.0996 21.0913 27.9509 21.124 27.7902 21.1076L26.3918 21.0587C26.2551 21.3279 26.1145 21.593 25.9698 21.854C25.8332 22.1069 25.6845 22.3516 25.5238 22.5881L26.2592 23.7994C26.3476 23.9463 26.3837 24.1013 26.3677 24.2644C26.3596 24.4194 26.3074 24.558 26.2109 24.6804C26.0904 24.8272 25.9537 24.921 25.801 24.9618C25.6483 25.0026 25.4876 24.9863 25.3188 24.9129L24.0409 24.3745C23.84 24.5784 23.623 24.7742 23.39 24.9618C23.1649 25.1494 22.9399 25.3289 22.7148 25.5002L22.9921 26.8828C23.0886 27.2417 22.9801 27.5149 22.6666 27.7025C22.5059 27.7923 22.3451 27.8249 22.1844 27.8004C22.0317 27.776 21.8951 27.7066 21.7745 27.5924L20.7378 26.6625C20.4725 26.7767 20.2033 26.8828 19.93 26.9807C19.6568 27.0867 19.3835 27.1764 19.1103 27.2498L18.8933 28.6691C18.8772 28.8404 18.8129 28.9832 18.7004 29.0974C18.5959 29.2116 18.4633 29.285 18.3026 29.3176C18.1338 29.3503 17.9811 29.3299 17.8444 29.2564C17.7078 29.1912 17.6033 29.0852 17.531 28.9383L16.8559 27.6536C16.7112 27.6699 16.5666 27.6781 16.4219 27.6781C16.2772 27.6862 16.1326 27.6903 15.9879 27.6903ZM15.9879 25.7204C17.3301 25.7204 18.5758 25.4716 19.7251 24.974C20.8744 24.4765 21.879 23.7831 22.739 22.894C23.5989 22.0049 24.266 20.9731 24.7402 19.7985C25.2224 18.6239 25.4635 17.3595 25.4635 16.0055C25.4635 14.6514 25.2224 13.3871 24.7402 12.2125C24.266 11.0297 23.5989 9.99379 22.739 9.10468C21.879 8.21557 20.8744 7.52223 19.7251 7.02466C18.5758 6.51892 17.3301 6.26606 15.9879 6.26606C14.6538 6.26606 13.4121 6.51892 12.2628 7.02466C11.1135 7.52223 10.1089 8.21557 9.24891 9.10468C8.39699 9.99379 7.72992 11.0297 7.2477 12.2125C6.77352 13.3871 6.53643 14.6514 6.53643 16.0055C6.53643 17.3595 6.77352 18.6239 7.2477 19.7985C7.72992 20.9731 8.39699 22.0049 9.24891 22.894C10.1089 23.7831 11.1135 24.4765 12.2628 24.974C13.4121 25.4716 14.6538 25.7204 15.9879 25.7204ZM13.8903 14.1212L9.80346 7.03689L11.2863 6.19265L15.3128 13.2036L13.8903 14.1212ZM18.6763 16.8252V15.1368H26.6931V16.8252H18.6763ZM15.3369 18.8196L11.1537 25.7938L9.6829 24.9129L13.9264 17.8897L15.3369 18.8196ZM15.9638 19.2112C15.3771 19.2112 14.8467 19.0684 14.3725 18.7829C13.8983 18.4974 13.5206 18.114 13.2393 17.6328C12.958 17.1434 12.8173 16.605 12.8173 16.0177C12.8173 15.4222 12.958 14.8839 13.2393 14.4026C13.5206 13.9214 13.8983 13.538 14.3725 13.2525C14.8467 12.9588 15.3771 12.812 15.9638 12.812C16.5425 12.812 17.0689 12.9588 17.5431 13.2525C18.0253 13.538 18.407 13.9214 18.6883 14.4026C18.9777 14.8839 19.1223 15.4222 19.1223 16.0177C19.1223 16.605 18.9777 17.1434 18.6883 17.6328C18.407 18.114 18.0253 18.4974 17.5431 18.7829C17.0689 19.0684 16.5425 19.2112 15.9638 19.2112ZM15.9638 17.3758C16.3496 17.3758 16.671 17.2494 16.9282 16.9965C17.1935 16.7355 17.3261 16.4092 17.3261 16.0177C17.3261 15.6262 17.1935 15.2999 16.9282 15.0389C16.671 14.7697 16.3496 14.6351 15.9638 14.6351C15.5861 14.6351 15.2646 14.7697 14.9994 15.0389C14.7422 15.2999 14.6136 15.6262 14.6136 16.0177C14.6136 16.4092 14.7422 16.7355 14.9994 16.9965C15.2646 17.2494 15.5861 17.3758 15.9638 17.3758Z" fill="#808080"/>
</svg>
