<svg width="29" height="28" viewBox="0 0 29 28" fill="none" xmlns="http://www.w3.org/2000/svg">
<path d="M7.31 24.2876C7.06808 24.1185 6.91948 23.8909 6.86418 23.6047C6.8158 23.3251 6.86073 22.9934 6.99896 22.6097L9.13476 16.6495L3.69159 12.9719C3.33909 12.7378 3.09371 12.494 2.95547 12.2403C2.81723 11.9802 2.7965 11.7136 2.89326 11.4404C2.99003 11.1738 3.1732 10.9755 3.44276 10.8454C3.71233 10.7088 4.06484 10.6438 4.50029 10.6503L11.1669 10.6893L13.199 4.69985C13.3303 4.30965 13.5031 4.01375 13.7174 3.81215C13.9386 3.60405 14.1978 3.5 14.495 3.5C14.7991 3.5 15.0583 3.60405 15.2726 3.81215C15.4938 4.01375 15.67 4.30965 15.8013 4.69985L17.8335 10.6893L24.5 10.6503C24.9355 10.6438 25.288 10.7088 25.5576 10.8454C25.8271 10.9755 26.0103 11.1738 26.1071 11.4404C26.2038 11.7136 26.1831 11.9802 26.0449 12.2403C25.9066 12.494 25.6612 12.7378 25.3087 12.9719L19.8656 16.6495L22.0014 22.6097C22.1396 22.9934 22.1811 23.3251 22.1258 23.6047C22.0774 23.8909 21.9322 24.1185 21.6903 24.2876C21.4484 24.4697 21.1754 24.5347 20.8713 24.4827C20.5671 24.4306 20.2423 24.2876 19.8967 24.0534L14.495 20.3173L9.10365 24.0534C8.75806 24.2876 8.4332 24.4306 8.12907 24.4827C7.82494 24.5347 7.55192 24.4697 7.31 24.2876ZM9.13476 21.9269C9.14858 21.9464 9.17623 21.9431 9.2177 21.9171L13.8936 18.5225C14.101 18.3664 14.3014 18.2883 14.495 18.2883C14.6954 18.2883 14.8993 18.3664 15.1067 18.5225L19.7826 21.9171C19.8241 21.9431 19.8517 21.9464 19.8656 21.9269C19.8725 21.9139 19.8725 21.8879 19.8656 21.8489L17.8957 16.6203C17.8404 16.4642 17.8093 16.3244 17.8023 16.2008C17.8023 16.0707 17.8369 15.9537 17.906 15.8496C17.9821 15.7456 18.0961 15.6448 18.2482 15.5472L23.1211 12.4159C23.1626 12.3899 23.1798 12.3639 23.1729 12.3379C23.166 12.3184 23.1349 12.3086 23.0796 12.3086L17.1906 12.4452C16.9211 12.4517 16.7103 12.4094 16.5582 12.3184C16.4061 12.2208 16.2921 12.0452 16.2161 11.7916L14.5572 6.47523C14.5434 6.4297 14.5226 6.40694 14.495 6.40694C14.4742 6.40694 14.457 6.4297 14.4431 6.47523L12.7843 11.7916C12.7082 12.0452 12.5942 12.2208 12.4421 12.3184C12.2901 12.4094 12.0793 12.4517 11.8097 12.4452L5.9207 12.3086C5.8654 12.3086 5.8343 12.3184 5.82739 12.3379C5.82048 12.3639 5.83776 12.3899 5.87923 12.4159L10.7522 15.5472C10.9042 15.6448 11.0148 15.7456 11.0839 15.8496C11.16 15.9537 11.1945 16.0707 11.1876 16.2008C11.1876 16.3244 11.16 16.4642 11.1047 16.6203L9.13476 21.8489C9.12093 21.8879 9.12093 21.9139 9.13476 21.9269Z" fill="#CCCCCC"/>
</svg>
