<svg width="140" height="29" viewBox="0 0 140 29" fill="none" xmlns="http://www.w3.org/2000/svg">
<path d="M1.98477 24.25C0.765369 24.25 0 23.5078 0 22.3337C0 21.9963 0.0908065 21.5374 0.259447 21.0381L5.37056 6.55769C5.9154 4.97874 6.83644 4.25 8.31528 4.25C9.84602 4.25 10.7541 4.95175 11.3119 6.5442L16.449 21.0381C16.6306 21.5644 16.6954 21.9288 16.6954 22.3337C16.6954 23.4538 15.8782 24.25 14.7366 24.25C13.634 24.25 13.0502 23.7237 12.6999 22.4551L11.714 19.3782H4.95544L3.96954 22.4146C3.60632 23.7102 3.02256 24.25 1.98477 24.25ZM5.81162 16.2203H10.806L8.32826 8.2446H8.23745L5.81162 16.2203Z" fill="black"/>
<path d="M21.0412 24.25C19.8088 24.25 19.0823 23.4673 19.0823 22.1312V6.38225C19.0823 5.03273 19.8088 4.25 21.0412 4.25C22.2735 4.25 23 5.03273 23 6.38225V22.1312C23 23.4673 22.2735 24.25 21.0412 24.25Z" fill="black"/>
<path d="M32.7874 24.1962C31.5249 24.1962 30.7807 23.4167 30.7807 22.086V7.90591H26.8206C25.7309 7.90591 25 7.27419 25 6.22581C25 5.17742 25.7176 4.5457 26.8206 4.5457H38.7674C39.8571 4.5457 40.5748 5.17742 40.5748 6.22581C40.5748 7.27419 39.8439 7.90591 38.7674 7.90591H34.794V22.086C34.794 23.4167 34.0498 24.1962 32.7874 24.1962Z" fill="black"/>
<path d="M45.6379 24.25C41.3322 24.25 38.5814 21.4543 38.5814 16.7231C38.5814 12.0591 41.3721 9.22312 45.6379 9.22312C49.9037 9.22312 52.6944 12.0457 52.6944 16.7231C52.6944 21.4677 49.9435 24.25 45.6379 24.25ZM45.6379 21.2527C47.5382 21.2527 48.7475 19.6263 48.7475 16.7366C48.7475 13.8737 47.5249 12.2204 45.6379 12.2204C43.7508 12.2204 42.5149 13.8737 42.5149 16.7366C42.5149 19.6263 43.7243 21.2527 45.6379 21.2527Z" fill="black"/>
<path d="M61.2392 24.25C56.9336 24.25 54.1827 21.4543 54.1827 16.7231C54.1827 12.0591 56.9734 9.22312 61.2392 9.22312C65.505 9.22312 68.2957 12.0457 68.2957 16.7231C68.2957 21.4677 65.5448 24.25 61.2392 24.25ZM61.2392 21.2527C63.1395 21.2527 64.3488 19.6263 64.3488 16.7366C64.3488 13.8737 63.1262 12.2204 61.2392 12.2204C59.3522 12.2204 58.1163 13.8737 58.1163 16.7366C58.1163 19.6263 59.3256 21.2527 61.2392 21.2527Z" fill="black"/>
<path d="M72.3355 24.2231C71.206 24.2231 70.3953 23.5242 70.3953 22.1801V6.30645C70.3953 4.96237 71.206 4.25 72.3355 4.25C73.4784 4.25 74.2757 4.96237 74.2757 6.30645V22.1801C74.2757 23.5242 73.4784 24.2231 72.3355 24.2231Z" fill="black"/>
<path d="M82.701 24.25C79.4319 24.25 77.2525 23.0672 76.5748 21.3737C76.4817 21.1183 76.4286 20.8629 76.4286 20.6479C76.4286 19.7473 77.093 19.1425 77.9967 19.1425C78.6213 19.1425 79.1528 19.4247 79.6844 20.0296C80.4419 21.0376 81.3189 21.4946 82.794 21.4946C84.2027 21.4946 85.1196 20.9032 85.1196 19.9489C85.1196 19.1694 84.6279 18.7527 83.2326 18.4435L80.8405 17.9328C78.0498 17.328 76.6412 15.8898 76.6412 13.7527C76.6412 10.9973 78.9934 9.22312 82.6877 9.22312C85.6379 9.22312 87.804 10.5806 88.2691 12.207C88.3223 12.4086 88.3621 12.5968 88.3621 12.7849C88.3621 13.578 87.8704 14.129 86.8738 14.129C86.3688 14.129 85.8106 13.9409 85.4651 13.5242C84.7874 12.6505 84.0166 11.9785 82.6213 11.9785C81.3056 11.9785 80.3887 12.6102 80.3887 13.5376C80.3887 14.2903 80.9468 14.7876 82.3688 15.0968L84.7209 15.6075C87.7508 16.2527 89 17.3817 89 19.5323C89 22.3952 86.4618 24.25 82.701 24.25Z" fill="black"/>
<path d="M92.9884 24.2231C91.7374 24.2231 91 23.4425 91 22.11V6.40343C91 5.05754 91.7374 4.27692 92.9884 4.27692C94.2395 4.27692 94.9769 5.05754 94.9769 6.40343V12.433H103.536V6.40343C103.536 5.05754 104.274 4.27692 105.525 4.27692C106.776 4.27692 107.513 5.05754 107.513 6.40343V22.11C107.513 23.4425 106.776 24.2231 105.525 24.2231C104.274 24.2231 103.536 23.4425 103.536 22.11V15.7843H94.9769V22.11C94.9769 23.4425 94.2395 24.2231 92.9884 24.2231Z" fill="black"/>
<path d="M115.362 24.2365C112.307 24.2365 110.279 22.2042 110.279 18.8395V11.3025C110.279 9.95659 111.082 9.24327 112.201 9.24327C113.334 9.24327 114.124 9.95659 114.124 11.3025V18.0185C114.124 19.9431 115.059 20.966 116.758 20.966C118.469 20.966 119.536 19.7143 119.536 17.8032V11.3025C119.536 9.95659 120.339 9.24327 121.459 9.24327C122.591 9.24327 123.381 9.95659 123.381 11.3025V22.2581C123.381 23.5636 122.631 24.25 121.525 24.25C120.418 24.25 119.668 23.5636 119.668 22.2581V21.3698H119.589C118.891 23.1867 117.495 24.2365 115.362 24.2365Z" fill="black"/>
<path d="M127.859 24.25C126.752 24.25 125.976 23.5771 125.976 22.2581V6.30922C125.976 4.96332 126.779 4.25 127.898 4.25C129.031 4.25 129.821 4.96332 129.821 6.30922V12.0427H129.9C130.677 10.3334 132.257 9.31057 134.259 9.31057C137.827 9.31057 140 12.0966 140 16.7534C140 21.3967 137.84 24.1962 134.272 24.1962C132.204 24.1962 130.637 23.1733 129.847 21.4909H129.768V22.2581C129.768 23.5636 128.978 24.25 127.859 24.25ZM132.955 21.0333C134.864 21.0333 136.063 19.3913 136.063 16.7534C136.063 14.1289 134.864 12.46 132.955 12.46C131.085 12.46 129.808 14.1692 129.808 16.7534C129.808 19.3644 131.085 21.0333 132.955 21.0333Z" fill="black"/>
</svg>
