<svg width="18" height="14" viewBox="0 0 18 14" fill="none" xmlns="http://www.w3.org/2000/svg">
<path d="M2.97421 13.6666C2.2144 13.6666 1.63984 13.4714 1.25056 13.081C0.86127 12.6906 0.666626 12.1145 0.666626 11.3527V2.65427C0.666626 1.8925 0.86127 1.31641 1.25056 0.926003C1.63984 0.530836 2.2144 0.333252 2.97421 0.333252H15.0187C15.7832 0.333252 16.3601 0.530836 16.7494 0.926003C17.1387 1.31641 17.3333 1.8925 17.3333 2.65427V11.3527C17.3333 12.1145 17.1387 12.6906 16.7494 13.081C16.3601 13.4714 15.7832 13.6666 15.0187 13.6666H2.97421ZM3.05863 12.2668H14.9413C15.2649 12.2668 15.5135 12.1811 15.687 12.0097C15.8606 11.8336 15.9473 11.5741 15.9473 11.2313V2.77567C15.9473 2.43288 15.8606 2.17578 15.687 2.00438C15.5135 1.82822 15.2649 1.74014 14.9413 1.74014H3.05863C2.73032 1.74014 2.47939 1.82822 2.30586 2.00438C2.13701 2.17578 2.05258 2.43288 2.05258 2.77567V11.2313C2.05258 11.5741 2.13701 11.8336 2.30586 12.0097C2.47939 12.1811 2.73032 12.2668 3.05863 12.2668Z" fill="#E5E5E5"/>
<path d="M3.16663 4.49992C3.16663 3.57944 3.91282 2.83325 4.83329 2.83325H5.66663C6.5871 2.83325 7.33329 3.57944 7.33329 4.49992V9.49992C7.33329 10.4204 6.5871 11.1666 5.66663 11.1666H4.83329C3.91282 11.1666 3.16663 10.4204 3.16663 9.49992V4.49992Z" fill="#E5E5E5"/>
</svg>
