<svg width="16" height="16" viewBox="0 0 16 16" fill="none" xmlns="http://www.w3.org/2000/svg">
<path d="M13.3333 13.4623C13.3333 13.6078 13.2817 13.7338 13.1786 13.8403C13.0719 13.9468 12.9457 14 12.7999 14C12.6505 14 12.5243 13.9468 12.4212 13.8403C12.3145 13.7338 12.2612 13.6078 12.2612 13.4623V2.53239C12.2612 2.38687 12.3145 2.26264 12.4212 2.15972C12.5243 2.05324 12.6505 2 12.7999 2C12.9457 2 13.0719 2.05324 13.1786 2.15972C13.2817 2.26264 13.3333 2.38687 13.3333 2.53239V13.4623ZM3.60446 13.6806L5.22593 11.7533C5.30771 11.661 5.36283 11.5901 5.39127 11.5404C5.41972 11.4907 5.44994 11.4161 5.48195 11.3168L5.57795 11.008L4.68722 9.88997L4.43653 11.0665L2.8364 12.9565C2.70483 13.1127 2.64972 13.2618 2.67105 13.4037C2.68883 13.5457 2.75284 13.661 2.86307 13.7498C2.96974 13.8385 3.0942 13.8811 3.23643 13.8776C3.37511 13.8776 3.49779 13.8119 3.60446 13.6806ZM7.53011 13.5209C7.61545 13.6948 7.73102 13.803 7.87681 13.8456C8.0226 13.8882 8.16305 13.8793 8.29818 13.819C8.4333 13.7587 8.52931 13.6593 8.5862 13.5209C8.63954 13.3824 8.61998 13.2192 8.52753 13.0311L7.42877 10.8057C7.3861 10.7205 7.3381 10.6353 7.28476 10.5501C7.22787 10.4614 7.17275 10.3798 7.11941 10.3052L6.42602 9.32564L6.47403 9.18722C6.56648 8.90683 6.63404 8.66371 6.67671 8.45785C6.71938 8.252 6.75138 8.01065 6.77272 7.73381L6.87939 6.17391C6.90784 5.80124 6.81717 5.48891 6.60737 5.23691C6.39758 4.98492 6.10244 4.85892 5.72197 4.85892C5.43039 4.85892 5.17437 4.92813 4.9539 5.06655C4.73344 5.20497 4.49164 5.40373 4.22851 5.66282L3.40178 6.47205C3.2631 6.60692 3.16709 6.73647 3.11375 6.86069C3.06042 6.98492 3.02664 7.13576 3.01241 7.31322L2.91107 8.59095C2.89685 8.75421 2.93241 8.89086 3.01775 9.00089C3.10309 9.10736 3.22399 9.16238 3.38044 9.16593C3.5369 9.18012 3.66135 9.14286 3.75381 9.05413C3.84626 8.96185 3.8996 8.82697 3.91382 8.64951L4.03116 7.25998L4.41519 6.91925C4.4792 6.86247 4.54676 6.84827 4.61788 6.87666C4.68899 6.90151 4.721 6.94942 4.71388 7.02041L4.62854 8.17569C4.60721 8.47382 4.63388 8.71872 4.70855 8.91038C4.78322 9.10204 4.92723 9.32742 5.14059 9.58651L6.22867 10.9547C6.28201 11.0222 6.31757 11.0754 6.33535 11.1145C6.35313 11.15 6.37446 11.189 6.39935 11.2316L7.53011 13.5209ZM9.41827 6.96185H8.18617L7.42877 6.126L7.33276 7.47294L7.59945 7.73381C7.68479 7.82254 7.77547 7.88465 7.87147 7.92014C7.96748 7.95209 8.09727 7.96806 8.26084 7.96806H9.41827C9.58895 7.96806 9.72585 7.92369 9.82897 7.83496C9.92853 7.74268 9.97831 7.61846 9.97831 7.46229C9.97831 7.31322 9.92675 7.19255 9.82363 7.10027C9.72051 7.00799 9.58539 6.96185 9.41827 6.96185ZM6.33002 4.40106C6.55048 4.40106 6.75138 4.34783 6.93273 4.24135C7.11052 4.13132 7.25454 3.9858 7.36477 3.80479C7.47144 3.62378 7.52478 3.42325 7.52478 3.20319C7.52478 2.98314 7.47144 2.78261 7.36477 2.6016C7.25454 2.42059 7.11052 2.27684 6.93273 2.17036C6.75138 2.06389 6.55048 2.01065 6.33002 2.01065C6.10955 2.01065 5.90865 2.06389 5.7273 2.17036C5.54595 2.27684 5.40194 2.42059 5.29527 2.6016C5.18503 2.78261 5.12992 2.98314 5.12992 3.20319C5.12992 3.42325 5.18503 3.62378 5.29527 3.80479C5.40194 3.9858 5.54595 4.13132 5.7273 4.24135C5.90865 4.34783 6.10955 4.40106 6.33002 4.40106Z" fill="#CCCCCC"/>
</svg>
