<svg width="32" height="32" viewBox="0 0 32 32" fill="none" xmlns="http://www.w3.org/2000/svg">
<rect x="0.5" y="0.5" width="31" height="31" rx="9.5" fill="white"/>
<rect x="0.5" y="0.5" width="31" height="31" rx="9.5" stroke="#F2F2F2"/>
<path d="M11.52 9.28003C10.2829 9.28003 9.28 10.2829 9.28 11.52V20.48C9.28 21.7171 10.2829 22.72 11.52 22.72H20.48C21.7171 22.72 22.72 21.7171 22.72 20.48V11.52C22.72 10.2829 21.7171 9.28003 20.48 9.28003H11.52ZM12.1875 12.16H14.7275L16.5312 14.7232L18.72 12.16H19.52L16.8925 15.2363L20.1325 19.84H17.5931L15.5 16.8663L12.96 19.84H12.16L15.1387 16.3532L12.1875 12.16ZM13.4125 12.8L17.9269 19.2H18.9075L14.3931 12.8H13.4125Z" fill="black"/>
</svg>
