<svg width="17" height="16" viewBox="0 0 17 16" fill="none" xmlns="http://www.w3.org/2000/svg">
<path d="M4.01979 1.28C2.78267 1.28 1.77979 2.28288 1.77979 3.52V12.48C1.77979 13.7171 2.78267 14.72 4.01979 14.72H12.9798C14.2169 14.72 15.2198 13.7171 15.2198 12.48V3.52C15.2198 2.28288 14.2169 1.28 12.9798 1.28H4.01979ZM4.68729 4.16H7.22729L9.03104 6.72312L11.2198 4.16H12.0198L9.39229 7.23625L12.6323 11.84H10.0929L7.99979 8.86625L5.45979 11.84H4.65979L7.63854 8.35312L4.68729 4.16ZM5.91229 4.8L10.4267 11.2H11.4073L6.89291 4.8H5.91229Z" fill="black"/>
</svg>
