<svg width="16" height="16" viewBox="0 0 16 16" fill="none" xmlns="http://www.w3.org/2000/svg">
<path d="M13.3337 10.6013C13.3337 10.8325 13.2559 11.026 13.1002 11.1817C12.9446 11.3374 12.7631 11.4153 12.5556 11.4153C12.3434 11.4153 12.1642 11.3374 12.018 11.1817C11.8718 11.0212 11.7987 10.8349 11.7987 10.6225V7.97531L11.9119 5.05914L10.766 6.34735L4.02508 13.0928C3.86004 13.2532 3.67377 13.3334 3.46628 13.3334C3.32482 13.3334 3.19278 13.2957 3.07018 13.2202C2.95229 13.1494 2.85562 13.0527 2.78017 12.93C2.70472 12.8073 2.66699 12.6775 2.66699 12.5407C2.66699 12.3378 2.75187 12.1514 2.92163 11.9815L9.64842 5.22901L10.9358 4.09652L7.89422 4.20269H5.3761C5.1639 4.20269 4.97999 4.12955 4.82437 3.98327C4.66876 3.83227 4.59095 3.65296 4.59095 3.44534C4.59095 3.23771 4.6664 3.05604 4.8173 2.90032C4.9682 2.74461 5.16154 2.66675 5.39732 2.66675H12.499C12.7536 2.66675 12.9541 2.74461 13.1002 2.90032C13.2511 3.05132 13.3266 3.24951 13.3266 3.49488L13.3337 10.6013Z" fill="white"/>
</svg>
