<svg width="32" height="32" viewBox="0 0 32 32" fill="none" xmlns="http://www.w3.org/2000/svg">
<path d="M28.0488 26.5263C25.1159 29.8807 20.8056 32 15.9998 32C15.9293 32 15.8588 31.998 15.7885 31.9971C13.9803 30.4488 12.4377 28.5992 11.2383 26.5263H28.0488Z" fill="black"/>
<path d="M31.5471 19.7895C31.0196 21.9616 30.0492 23.9601 28.7363 25.6842H10.7766C9.8292 23.8593 9.14111 21.8782 8.76136 19.7895H31.5471Z" fill="black"/>
<path d="M31.7276 13.0526C31.9056 14.008 31.9998 14.993 31.9998 16C31.9998 17.007 31.9056 17.992 31.7276 18.9474H8.62567C8.49071 17.9843 8.4209 17.0003 8.4209 16C8.4209 14.9997 8.49071 14.0157 8.62567 13.0526H31.7276Z" fill="black"/>
<path d="M28.7363 6.31579C30.0492 8.03991 31.0196 10.0384 31.5471 12.2105H8.76136C9.14111 10.1218 9.8292 8.14075 10.7766 6.31579H28.7363Z" fill="black"/>
<path d="M15.9998 0C20.8056 0 25.1159 2.11932 28.0488 5.47368H11.2387C12.4381 3.40085 13.9803 1.55117 15.7885 0.00287829C15.8588 0.0019675 15.9293 0 15.9998 0Z" fill="black"/>
<path d="M14.9046 0.0377808C10.4192 3.8986 7.57895 9.61753 7.57895 16C7.57895 22.3823 10.4193 28.1009 14.9046 31.9617C6.579 31.3988 0 24.4683 0 16C0 7.53159 6.57899 0.600726 14.9046 0.0377808Z" fill="url(#paint0_radial_139_6288)"/>
<defs>
<radialGradient id="paint0_radial_139_6288" cx="0" cy="0" r="1" gradientUnits="userSpaceOnUse" gradientTransform="translate(14.7368 16) rotate(180) scale(14.7368 16.8621)">
<stop/>
<stop offset="0.725962" stop-color="#0D0D0D"/>
<stop offset="0.805097" stop-color="#1D1D1D"/>
<stop offset="0.928186" stop-color="#565656"/>
<stop offset="1" stop-color="#898989"/>
</radialGradient>
</defs>
</svg>
