<svg width="28" height="28" viewBox="0 0 28 28" fill="none" xmlns="http://www.w3.org/2000/svg">
<rect width="28" height="28" rx="5" fill="black" fill-opacity="0.05"/>
<path d="M8.67577 21.5C7.22526 21.5 6.5 21.0396 6.5 20.1188C6.5 19.5728 6.67349 19 7.02048 18.4004C7.37315 17.8009 7.87656 17.2414 8.53072 16.7222C9.19056 16.2029 9.98123 15.7827 10.9027 15.4615C11.8242 15.1349 12.8595 14.9716 14.0085 14.9716C15.1462 14.9716 16.1758 15.1349 17.0973 15.4615C18.0245 15.7827 18.8151 16.2029 19.4693 16.7222C20.1234 17.2414 20.624 17.8009 20.971 18.4004C21.3237 19 21.5 19.5728 21.5 20.1188C21.5 21.0396 20.7747 21.5 19.3242 21.5H8.67577ZM8.40273 20.1108H19.6058C19.7025 20.1108 19.7708 20.0948 19.8106 20.0626C19.8561 20.0305 19.8788 19.977 19.8788 19.902C19.8788 19.5915 19.7509 19.2382 19.4949 18.8421C19.2389 18.4406 18.8578 18.0525 18.3515 17.6777C17.851 17.2976 17.2366 16.9845 16.5085 16.7382C15.7804 16.4866 14.9471 16.3608 14.0085 16.3608C13.0643 16.3608 12.2253 16.4866 11.4915 16.7382C10.7634 16.9845 10.149 17.2976 9.64846 17.6777C9.1479 18.0525 8.76678 18.4406 8.50512 18.8421C8.24915 19.2382 8.12116 19.5915 8.12116 19.902C8.12116 19.977 8.14107 20.0305 8.18089 20.0626C8.22639 20.0948 8.30034 20.1108 8.40273 20.1108ZM14.0085 14.0321C13.3203 14.0321 12.6917 13.8608 12.1229 13.5182C11.5597 13.1756 11.1104 12.7179 10.7747 12.1451C10.4391 11.5669 10.2713 10.9299 10.2713 10.2339C10.2713 9.54872 10.4391 8.92505 10.7747 8.36295C11.1104 7.7955 11.5597 7.34315 12.1229 7.00589C12.6917 6.66863 13.3203 6.5 14.0085 6.5C14.6968 6.5 15.3225 6.66595 15.8857 6.99786C16.4545 7.32976 16.9039 7.77677 17.2338 8.33887C17.5694 8.90096 17.7372 9.5273 17.7372 10.2179C17.7372 10.9192 17.5694 11.5589 17.2338 12.137C16.8982 12.7152 16.4488 13.1756 15.8857 13.5182C15.3225 13.8608 14.6968 14.0321 14.0085 14.0321ZM14.0085 12.6349C14.4067 12.6349 14.7708 12.5305 15.1007 12.3217C15.4306 12.1076 15.6951 11.8185 15.8942 11.4545C16.0933 11.0851 16.1928 10.6729 16.1928 10.2179C16.1928 9.77355 16.0933 9.37741 15.8942 9.02944C15.6951 8.67612 15.4306 8.39775 15.1007 8.19433C14.7708 7.9909 14.4067 7.88919 14.0085 7.88919C13.6104 7.88919 13.2463 7.99358 12.9164 8.20236C12.5865 8.40578 12.322 8.68415 12.1229 9.03747C11.9238 9.39079 11.8242 9.78961 11.8242 10.2339C11.8242 10.6836 11.9238 11.0931 12.1229 11.4625C12.322 11.8266 12.5865 12.113 12.9164 12.3217C13.252 12.5305 13.616 12.6349 14.0085 12.6349Z" fill="black" fill-opacity="0.5"/>
</svg>
