<svg width="12" height="12" viewBox="0 0 12 12" fill="none" xmlns="http://www.w3.org/2000/svg">
<path d="M11.3332 8.60128C11.3332 8.83249 11.2554 9.02596 11.0997 9.18168C10.9441 9.3374 10.7626 9.41525 10.5551 9.41525C10.3429 9.41525 10.1637 9.3374 10.0175 9.18168C9.87134 9.02124 9.79825 8.83485 9.79825 8.62251V5.97531L9.91142 3.05914L8.76553 4.34735L2.02459 11.0928C1.85955 11.2532 1.67328 11.3334 1.4658 11.3334C1.32433 11.3334 1.19229 11.2957 1.06969 11.2202C0.951797 11.1494 0.855128 11.0527 0.779678 10.93C0.704229 10.8073 0.666504 10.6775 0.666504 10.5407C0.666504 10.3378 0.751385 10.1514 0.921146 9.9815L7.64794 3.22901L8.93529 2.09652L5.89374 2.20269H3.37561C3.16341 2.20269 2.9795 2.12955 2.82389 1.98327C2.66827 1.83227 2.59046 1.65296 2.59046 1.44534C2.59046 1.23771 2.66591 1.05604 2.81681 0.900325C2.96771 0.744607 3.16105 0.666748 3.39683 0.666748H10.4985C10.7532 0.666748 10.9536 0.744607 11.0997 0.900325C11.2506 1.05132 11.3261 1.24951 11.3261 1.49488L11.3332 8.60128Z" fill="white"/>
</svg>
