<svg width="18" height="18" viewBox="0 0 18 18" fill="none" xmlns="http://www.w3.org/2000/svg">
<path d="M8.99532 17.3334C7.85572 17.3334 6.78331 17.1156 5.77809 16.68C4.77288 16.2497 3.88593 15.6501 3.11723 14.881C2.35392 14.1119 1.75455 13.2246 1.31914 12.2189C0.883722 11.2132 0.666016 10.1402 0.666016 9.00008C0.666016 7.85993 0.883722 6.787 1.31914 5.7813C1.75455 4.7756 2.35392 3.89091 3.11723 3.12722C3.88593 2.35815 4.77019 1.75581 5.77003 1.32018C6.77525 0.88456 7.84765 0.666748 8.98726 0.666748C10.1322 0.666748 11.2073 0.88456 12.2125 1.32018C13.2178 1.75581 14.1047 2.35815 14.8734 3.12722C15.6421 3.89091 16.2441 4.7756 16.6796 5.7813C17.115 6.787 17.3327 7.85993 17.3327 9.00008C17.3327 10.1402 17.115 11.2132 16.6796 12.2189C16.2441 13.2246 15.6421 14.1119 14.8734 14.881C14.1047 15.6501 13.2178 16.2497 12.2125 16.68C11.2073 17.1156 10.1349 17.3334 8.99532 17.3334ZM8.99532 15.6877C9.92528 15.6877 10.7934 15.5156 11.5997 15.1714C12.4061 14.8272 13.1156 14.3486 13.7284 13.7355C14.3412 13.1224 14.8196 12.4125 15.1637 11.6058C15.5077 10.799 15.6797 9.93049 15.6797 9.00008C15.6797 8.07505 15.5077 7.20918 15.1637 6.40247C14.8196 5.59038 14.3412 4.87778 13.7284 4.26468C13.1156 3.65158 12.4034 3.17293 11.5917 2.82874C10.7854 2.48454 9.91721 2.31244 8.98726 2.31244C8.06267 2.31244 7.19453 2.48454 6.38284 2.82874C5.57651 3.17293 4.86964 3.65158 4.26221 4.26468C3.65478 4.87778 3.17905 5.59038 2.83502 6.40247C2.49099 7.20918 2.31897 8.07505 2.31897 9.00008C2.31897 9.93049 2.49099 10.799 2.83502 11.6058C3.17905 12.4125 3.65478 13.1224 4.26221 13.7355C4.87501 14.3486 5.58458 14.8272 6.3909 15.1714C7.2026 15.5156 8.07074 15.6877 8.99532 15.6877ZM8.12449 12.832C7.97398 12.832 7.83959 12.7997 7.72133 12.7352C7.60307 12.6652 7.4875 12.5631 7.37461 12.4286L5.47169 10.1053C5.33193 9.9278 5.26205 9.74763 5.26205 9.56478C5.26205 9.36579 5.32924 9.19638 5.46363 9.05655C5.60339 8.91134 5.77003 8.83874 5.96355 8.83874C6.08718 8.83874 6.19738 8.86563 6.29414 8.91941C6.39627 8.96781 6.49572 9.05655 6.59248 9.18563L8.09224 11.0895L11.2772 5.98298C11.4438 5.7087 11.6535 5.57156 11.9061 5.57156C12.0943 5.57156 12.2636 5.6334 12.4141 5.7571C12.5646 5.8808 12.6399 6.04214 12.6399 6.24113C12.6399 6.33255 12.6184 6.42667 12.5754 6.52348C12.5378 6.6149 12.4921 6.70095 12.4383 6.78162L8.83405 12.4205C8.66204 12.6948 8.42552 12.832 8.12449 12.832Z" fill="#CCCCCC"/>
</svg>
