<svg width="20" height="20" viewBox="0 0 20 20" fill="none" xmlns="http://www.w3.org/2000/svg">
<path d="M9.99596 18.3334C8.85636 18.3334 7.78395 18.1156 6.77874 17.68C5.77352 17.2497 4.88657 16.6501 4.11787 15.881C3.35456 15.1119 2.75519 14.2246 2.31978 13.2189C1.88436 12.2132 1.66666 11.1402 1.66666 10.0001C1.66666 8.85993 1.88436 7.787 2.31978 6.7813C2.75519 5.7756 3.35456 4.89091 4.11787 4.12722C4.88657 3.35815 5.77083 2.75581 6.77067 2.32018C7.77589 1.88456 8.84829 1.66675 9.9879 1.66675C11.1329 1.66675 12.208 1.88456 13.2132 2.32018C14.2184 2.75581 15.1054 3.35815 15.874 4.12722C16.6427 4.89091 17.2448 5.7756 17.6802 6.7813C18.1156 7.787 18.3333 8.85993 18.3333 10.0001C18.3333 11.1402 18.1156 12.2132 17.6802 13.2189C17.2448 14.2246 16.6427 15.1119 15.874 15.881C15.1054 16.6501 14.2184 17.2497 13.2132 17.68C12.208 18.1156 11.1356 18.3334 9.99596 18.3334ZM9.99596 16.6877C10.9259 16.6877 11.7941 16.5156 12.6004 16.1714C13.4067 15.8272 14.1163 15.3486 14.7291 14.7355C15.3419 14.1224 15.8203 13.4125 16.1643 12.6058C16.5084 11.799 16.6804 10.9305 16.6804 10.0001C16.6804 9.07505 16.5084 8.20918 16.1643 7.40247C15.8203 6.59038 15.3419 5.87778 14.7291 5.26468C14.1163 4.65158 13.404 4.17293 12.5923 3.82874C11.786 3.48454 10.9179 3.31244 9.9879 3.31244C9.06331 3.31244 8.19517 3.48454 7.38348 3.82874C6.57716 4.17293 5.87028 4.65158 5.26285 5.26468C4.65542 5.87778 4.17969 6.59038 3.83566 7.40247C3.49163 8.20918 3.31962 9.07505 3.31962 10.0001C3.31962 10.9305 3.49163 11.799 3.83566 12.6058C4.17969 13.4125 4.65542 14.1224 5.26285 14.7355C5.87566 15.3486 6.58522 15.8272 7.39154 16.1714C8.20324 16.5156 9.07138 16.6877 9.99596 16.6877ZM9.12513 13.832C8.97462 13.832 8.84023 13.7997 8.72197 13.7352C8.60371 13.6652 8.48814 13.5631 8.37525 13.4286L6.47233 11.1053C6.33257 10.9278 6.26269 10.7476 6.26269 10.5648C6.26269 10.3658 6.32988 10.1964 6.46427 10.0566C6.60403 9.91134 6.77067 9.83874 6.96419 9.83874C7.08783 9.83874 7.19802 9.86563 7.29478 9.91941C7.39692 9.96781 7.49636 10.0566 7.59312 10.1856L9.09288 12.0895L12.2778 6.98298C12.4445 6.7087 12.6541 6.57156 12.9068 6.57156C13.0949 6.57156 13.2642 6.6334 13.4148 6.7571C13.5653 6.8808 13.6405 7.04214 13.6405 7.24113C13.6405 7.33255 13.619 7.42667 13.576 7.52348C13.5384 7.6149 13.4927 7.70095 13.439 7.78162L9.83469 13.4205C9.66268 13.6948 9.42616 13.832 9.12513 13.832Z" fill="black" fillOpacity="0.2"/>
</svg>
