<svg width="16" height="16" viewBox="0 0 16 16" fill="none" xmlns="http://www.w3.org/2000/svg">
<path d="M4.60173 14.6673C3.96456 14.6673 3.48275 14.4992 3.1563 14.163C2.82985 13.8268 2.66663 13.3287 2.66663 12.6685V6.61689C2.66663 5.96088 2.82985 5.46478 3.1563 5.12857C3.48275 4.78827 3.96456 4.61812 4.60173 4.61812H6.31264V5.82968H4.67253C4.39721 5.82968 4.18678 5.90553 4.04126 6.05723C3.89966 6.20483 3.82887 6.42829 3.82887 6.72759V12.564C3.82887 12.8633 3.89966 13.0868 4.04126 13.2344C4.18678 13.3861 4.39721 13.4619 4.67253 13.4619H11.3215C11.5929 13.4619 11.8013 13.3861 11.9469 13.2344C12.0963 13.0868 12.1711 12.8633 12.1711 12.564V6.72759C12.1711 6.42829 12.0963 6.20483 11.9469 6.05723C11.8013 5.90553 11.5929 5.82968 11.3215 5.82968H9.68727V4.61812H11.3982C12.0354 4.61812 12.5172 4.78827 12.8436 5.12857C13.1701 5.46478 13.3333 5.96088 13.3333 6.61689V12.6685C13.3333 13.3246 13.1701 13.8207 12.8436 14.1569C12.5172 14.4972 12.0354 14.6673 11.3982 14.6673H4.60173ZM7.99996 10.6821C7.92916 10.6821 7.86033 10.6698 7.79347 10.6452C7.72661 10.6165 7.65581 10.5652 7.58108 10.4914L5.59878 8.49881C5.50045 8.39221 5.45129 8.27125 5.45129 8.13595C5.45129 7.99245 5.49652 7.8756 5.58698 7.7854C5.68138 7.6952 5.7974 7.6501 5.93506 7.6501C6.08452 7.6501 6.20645 7.70545 6.30084 7.81615L7.1268 8.73251L7.51028 9.18146L7.45129 8.2651V1.89364C7.45129 1.74194 7.50438 1.61074 7.61058 1.50004C7.72071 1.38933 7.8505 1.33398 7.99996 1.33398C8.14942 1.33398 8.27725 1.38933 8.38344 1.50004C8.49357 1.61074 8.54863 1.74194 8.54863 1.89364V8.2651L8.48963 9.18146L8.86722 8.73251L9.69317 7.81615C9.7915 7.70545 9.91343 7.6501 10.059 7.6501C10.1927 7.6501 10.3067 7.6952 10.4011 7.7854C10.4995 7.8756 10.5486 7.99245 10.5486 8.13595C10.5486 8.27125 10.4975 8.39221 10.3952 8.49881L8.41294 10.4914C8.34214 10.5652 8.27331 10.6165 8.20645 10.6452C8.13959 10.6698 8.07076 10.6821 7.99996 10.6821Z" fill="black"/>
</svg>
