<svg width="20" height="20" viewBox="0 0 20 20" fill="none" xmlns="http://www.w3.org/2000/svg">
<path d="M4.86452 17.3545C4.51646 17.1105 4.4424 16.7062 4.64235 16.1556L6.16791 11.8965L2.27996 9.26853C1.77638 8.93394 1.56902 8.56449 1.70973 8.17413C1.85043 7.79074 2.23552 7.60254 2.85019 7.60951L7.61942 7.63739L9.07092 3.35739C9.26347 2.79974 9.5671 2.5 9.99662 2.5C10.4336 2.5 10.7372 2.79974 10.9223 3.35739L12.3738 7.63739L17.1431 7.60951C17.7577 7.60254 18.1502 7.79074 18.2909 8.17413C18.4316 8.56449 18.2169 8.93394 17.7207 9.26853L13.8327 11.8965L15.3509 16.1556C15.5508 16.7062 15.4768 17.1105 15.1361 17.3545C14.7881 17.6055 14.3511 17.5218 13.8476 17.1802L9.99662 14.5174L6.1457 17.1802C5.64211 17.5218 5.21259 17.6055 4.86452 17.3545Z" fill="black"/>
</svg>
