<svg width="18" height="10" viewBox="0 0 18 10" fill="none" xmlns="http://www.w3.org/2000/svg">
<path d="M4.76431 10C4.54751 10 4.36594 9.92369 4.21959 9.77106C4.07325 9.61842 4.00008 9.43581 4.00008 9.22322C4.00008 9.01063 4.07325 8.82802 4.21959 8.67539C4.36594 8.52276 4.54751 8.44644 4.76431 8.44644H13.2684C13.4852 8.44644 13.6667 8.52276 13.8131 8.67539C13.9649 8.82802 14.0407 9.01063 14.0407 9.22322C14.0407 9.44127 13.9649 9.6266 13.8131 9.77923C13.6667 9.92641 13.4852 10 13.2684 10H4.76431ZM3.1139 5.78087C2.90252 5.78087 2.72095 5.70455 2.56919 5.55192C2.42285 5.39929 2.34967 5.21668 2.34967 5.00409C2.34967 4.78605 2.42285 4.60343 2.56919 4.45625C2.71553 4.30363 2.8971 4.22731 3.1139 4.22731H14.9269C15.1329 4.22731 15.309 4.30363 15.4554 4.45625C15.6071 4.60343 15.683 4.78605 15.683 5.00409C15.683 5.21668 15.6071 5.39929 15.4554 5.55192C15.309 5.70455 15.1329 5.78087 14.9269 5.78087H3.1139ZM1.43098 1.55356C1.21959 1.55356 1.03802 1.47724 0.88626 1.32461C0.739919 1.17198 0.666748 0.992096 0.666748 0.784955C0.666748 0.566912 0.739919 0.381575 0.88626 0.228945C1.03802 0.0763151 1.21959 0 1.43098 0H16.5692C16.786 0 16.9676 0.0763151 17.1139 0.228945C17.2602 0.381575 17.3334 0.566912 17.3334 0.784955C17.3334 0.997547 17.2602 1.18016 17.1139 1.33279C16.9676 1.47997 16.786 1.55356 16.5692 1.55356H1.43098Z" fill="#4D4D4D"/>
</svg>
