<svg width="18" height="18" viewBox="0 0 18 18" fill="none" xmlns="http://www.w3.org/2000/svg">
<path d="M8.99581 17.3333C7.8562 17.3333 6.7838 17.1155 5.77858 16.6799C4.77337 16.2496 3.88642 15.65 3.11772 14.8809C2.3544 14.1118 1.75504 13.2244 1.31962 12.2187C0.884211 11.213 0.666504 10.1401 0.666504 8.99996C0.666504 7.85981 0.884211 6.78688 1.31962 5.78118C1.75504 4.77548 2.3544 3.89078 3.11772 3.1271C3.88642 2.35803 4.77068 1.75569 5.77052 1.32006C6.77573 0.884438 7.84814 0.666626 8.98774 0.666626C10.1327 0.666626 11.2078 0.884438 12.213 1.32006C13.2182 1.75569 14.1052 2.35803 14.8739 3.1271C15.6426 3.89078 16.2446 4.77548 16.6801 5.78118C17.1155 6.78688 17.3332 7.85981 17.3332 8.99996C17.3332 10.1401 17.1155 11.213 16.6801 12.2187C16.2446 13.2244 15.6426 14.1118 14.8739 14.8809C14.1052 15.65 13.2182 16.2496 12.213 16.6799C11.2078 17.1155 10.1354 17.3333 8.99581 17.3333ZM8.99581 15.6876C9.92576 15.6876 10.7939 15.5155 11.6002 15.1713C12.4065 14.8271 13.1161 14.3485 13.7289 13.7354C14.3417 13.1223 14.8201 12.4124 15.1642 11.6056C15.5082 10.7989 15.6802 9.93037 15.6802 8.99996C15.6802 8.07493 15.5082 7.20906 15.1642 6.40235C14.8201 5.59026 14.3417 4.87766 13.7289 4.26456C13.1161 3.65146 12.4039 3.17281 11.5922 2.82861C10.7858 2.48442 9.9177 2.31232 8.98774 2.31232C8.06316 2.31232 7.19502 2.48442 6.38332 2.82861C5.577 3.17281 4.87013 3.65146 4.2627 4.26456C3.65527 4.87766 3.17954 5.59026 2.83551 6.40235C2.49148 7.20906 2.31946 8.07493 2.31946 8.99996C2.31946 9.93037 2.49148 10.7989 2.83551 11.6056C3.17954 12.4124 3.65527 13.1223 4.2627 13.7354C4.8755 14.3485 5.58507 14.8271 6.39139 15.1713C7.20308 15.5155 8.07122 15.6876 8.99581 15.6876ZM8.99581 10.3391C8.52814 10.3391 8.28624 10.1025 8.27012 9.6292L8.15723 5.70858C8.14648 5.47194 8.21905 5.27833 8.37494 5.12774C8.53083 4.97716 8.73241 4.90186 8.97968 4.90186C9.22695 4.90186 9.43122 4.97985 9.59248 5.13581C9.75375 5.2864 9.82901 5.47732 9.81825 5.70858L9.68924 9.6292C9.67849 10.1025 9.44735 10.3391 8.99581 10.3391ZM8.99581 13.0174C8.73241 13.0174 8.50664 12.934 8.3185 12.7673C8.13573 12.5952 8.04435 12.3828 8.04435 12.13C8.04435 11.8772 8.13573 11.6675 8.3185 11.5008C8.50664 11.3287 8.73241 11.2426 8.99581 11.2426C9.25383 11.2426 9.47422 11.326 9.65699 11.4927C9.84513 11.6594 9.9392 11.8719 9.9392 12.13C9.9392 12.3882 9.84513 12.6006 9.65699 12.7673C9.46885 12.934 9.24845 13.0174 8.99581 13.0174Z" fill="#CCCCCC"/>
</svg>
