<svg width="20" height="20" viewBox="0 0 20 20" fill="none" xmlns="http://www.w3.org/2000/svg">
<path d="M3.33337 16.8342V3.16578C3.33337 2.7996 3.6307 2.5 3.99409 2.5C4.35749 2.5 4.65481 2.7996 4.65481 3.16578V16.8342C4.65481 17.2004 4.35749 17.5 3.99409 17.5C3.6307 17.5 3.33337 17.2004 3.33337 16.8342ZM12.1408 5.50266C11.3215 5.50266 10.6608 4.83688 10.6608 4.00466C10.6608 3.17909 11.3215 2.51332 12.1408 2.51332C12.9601 2.51332 13.6208 3.17909 13.6208 4.00466C13.6208 4.83688 12.9601 5.50266 12.1408 5.50266ZM13.6274 16.9008L12.2267 14.0446C12.1672 13.9314 12.154 13.8648 12.0218 13.6984L10.6674 11.9874C10.1454 11.3415 9.97361 10.9687 10.0331 10.2297L10.1388 8.78495C10.152 8.60519 9.93397 8.50533 9.76879 8.65846L9.29968 9.0779L9.14771 10.8156C9.11468 11.255 8.87682 11.488 8.4936 11.4614C8.11038 11.4481 7.87252 11.1551 7.90556 10.7423L8.03109 9.14447C8.07074 8.70506 8.18306 8.42543 8.51342 8.09254L9.53754 7.08056C10.1916 6.44141 10.674 6.07523 11.3876 6.07523C12.3324 6.07523 12.8874 6.78096 12.8213 7.72636L12.6892 9.67044C12.6363 10.3628 12.5438 10.7823 12.3192 11.488L12.2663 11.6611L13.1186 12.8862C13.2508 13.0726 13.3961 13.2989 13.5019 13.512L14.8629 16.2949C15.3254 17.2337 14.0503 17.773 13.6274 16.9008ZM15.973 8.70506C16.3826 8.70506 16.6667 8.95806 16.6667 9.33089C16.6667 9.71704 16.3892 9.96338 15.973 9.96338H14.5326C14.1295 9.96338 13.9313 9.8968 13.7133 9.67044L13.3829 9.34421L13.5019 7.65979L14.4401 8.70506H15.973ZM8.7711 17.1072C8.22931 17.753 7.16555 16.9873 7.81306 16.2017L9.79522 13.8382L10.1058 12.3668L11.2158 13.765L11.0902 14.1511C11.0109 14.3975 10.9779 14.4574 10.7797 14.6971L8.7711 17.1072Z" fill="#CCCCCC"/>
</svg>
