<svg width="20" height="20" viewBox="0 0 20 20" fill="none" xmlns="http://www.w3.org/2000/svg">
<path d="M8.03701 5.63332C7.94513 5.63332 7.89919 5.57511 7.88388 5.48364C7.62355 4.15313 7.63886 4.10324 6.35254 3.8205C6.26832 3.80387 6.20707 3.74566 6.20707 3.65419C6.20707 3.5544 6.26832 3.49619 6.35254 3.47956C7.63886 3.19683 7.62355 3.14694 7.88388 1.82475C7.89919 1.73327 7.94513 1.66675 8.03701 1.66675C8.12889 1.66675 8.17483 1.73327 8.19014 1.82475C8.45047 3.14694 8.43516 3.19683 9.72148 3.47956C9.8057 3.49619 9.86696 3.5544 9.86696 3.65419C9.86696 3.74566 9.8057 3.80387 9.72148 3.8205C8.43516 4.10324 8.45047 4.15313 8.19014 5.48364C8.17483 5.57511 8.12889 5.63332 8.03701 5.63332ZM14.3614 8.56875C14.2542 8.56875 14.193 8.49391 14.17 8.3858C13.9097 6.80583 13.902 6.70604 12.363 6.41499C12.2635 6.39836 12.1869 6.32352 12.1869 6.2071C12.1869 6.09068 12.2635 6.02416 12.363 5.99921C13.902 5.71648 13.9097 5.61669 14.17 4.03671C14.193 3.92861 14.2542 3.84545 14.3614 3.84545C14.4686 3.84545 14.5299 3.92861 14.5528 4.03671C14.8132 5.61669 14.8208 5.71648 16.3598 5.99921C16.467 6.02416 16.5359 6.09068 16.5359 6.2071C16.5359 6.32352 16.467 6.39836 16.3598 6.41499C14.8208 6.70604 14.8132 6.80583 14.5528 8.3858C14.5299 8.49391 14.4686 8.56875 14.3614 8.56875ZM3.84115 10.9553C3.73396 10.9553 3.67271 10.8722 3.64974 10.7641C3.38941 9.18411 3.38175 9.08432 1.84276 8.80159C1.74322 8.77664 1.66666 8.71011 1.66666 8.5937C1.66666 8.47728 1.74322 8.40243 1.84276 8.3858C3.38175 8.09476 3.38941 7.99497 3.64974 6.41499C3.67271 6.30689 3.73396 6.23205 3.84115 6.23205C3.94835 6.23205 4.0096 6.30689 4.03257 6.41499C4.2929 7.99497 4.30055 8.09476 5.83954 8.3858C5.93908 8.40243 6.01565 8.47728 6.01565 8.5937C6.01565 8.71011 5.93908 8.77664 5.83954 8.80159C4.30055 9.08432 4.2929 9.18411 4.03257 10.7641C4.0096 10.8722 3.94835 10.9553 3.84115 10.9553ZM16.9188 18.0652L9.63726 10.1404C9.32333 9.79115 9.31568 9.21737 9.63726 8.85148C9.94352 8.50222 10.4948 8.50222 10.8164 8.85148L18.0979 16.7846C18.4118 17.1339 18.4118 17.6993 18.0979 18.0652C17.7916 18.4228 17.2403 18.4228 16.9188 18.0652ZM7.47807 18.1983C7.3326 18.1983 7.23306 18.0902 7.21775 17.9488C6.94211 15.7285 6.88085 15.7285 4.75995 15.2878C4.62979 15.2545 4.53025 15.1631 4.53025 15.0051C4.53025 14.8471 4.62979 14.739 4.75995 14.7223C6.88085 14.398 6.94976 14.3232 7.21775 12.0696C7.23306 11.92 7.3326 11.8119 7.47807 11.8119C7.61589 11.8119 7.71543 11.92 7.7384 12.078C7.98341 14.2982 8.09826 14.2899 10.1962 14.7223C10.3264 14.7473 10.4259 14.8471 10.4259 15.0051C10.4259 15.1714 10.3264 15.2545 10.1656 15.2878C8.08295 15.6537 7.98341 15.7119 7.7384 17.9322C7.71543 18.0902 7.61589 18.1983 7.47807 18.1983ZM17.1867 17.4915C17.3322 17.6495 17.4777 17.6744 17.6155 17.5497C17.738 17.4 17.7074 17.2337 17.5696 17.0923L12.8454 11.9532L12.4626 12.3524L17.1867 17.4915Z" fill="black" fillOpacity="0.2"/>
</svg>
