<svg width="20" height="20" viewBox="0 0 20 20" fill="none" xmlns="http://www.w3.org/2000/svg">
<g opacity="0.2">
<path d="M3.97426 16.6666C3.21444 16.6666 2.63989 16.4714 2.2506 16.081C1.86132 15.6906 1.66667 15.1145 1.66667 14.3527V5.65427C1.66667 4.8925 1.86132 4.31641 2.2506 3.926C2.63989 3.53084 3.21444 3.33325 3.97426 3.33325H16.0187C16.7832 3.33325 17.3601 3.53084 17.7494 3.926C18.1387 4.31641 18.3333 4.8925 18.3333 5.65427V14.3527C18.3333 15.1145 18.1387 15.6906 17.7494 16.081C17.3601 16.4714 16.7832 16.6666 16.0187 16.6666H3.97426ZM4.05868 15.2668H15.9413C16.265 15.2668 16.5135 15.1811 16.6871 15.0097C16.8606 14.8336 16.9474 14.5741 16.9474 14.2313V5.77567C16.9474 5.43288 16.8606 5.17578 16.6871 5.00438C16.5135 4.82822 16.265 4.74014 15.9413 4.74014H4.05868C3.73037 4.74014 3.47944 4.82822 3.3059 5.00438C3.13705 5.17578 3.05263 5.43288 3.05263 5.77567V14.2313C3.05263 14.5741 3.13705 14.8336 3.3059 15.0097C3.47944 15.1811 3.73037 15.2668 4.05868 15.2668Z" fill="black"/>
<path d="M4.16667 6.45825C4.16667 6.11307 4.44649 5.83325 4.79167 5.83325C5.13685 5.83325 5.41667 6.11307 5.41667 6.45825V13.5416C5.41667 13.8868 5.13685 14.1666 4.79167 14.1666C4.44649 14.1666 4.16667 13.8868 4.16667 13.5416V6.45825Z" fill="black"/>
</g>
</svg>
