<svg width="10" height="16" viewBox="0 0 10 16" fill="none" xmlns="http://www.w3.org/2000/svg">
<path d="M9.16659 7.99576C9.16659 8.14257 9.1393 8.27809 9.08473 8.40232C9.03015 8.52654 8.94829 8.64512 8.83915 8.75805L2.46226 15.212C2.28217 15.404 2.05842 15.5 1.79101 15.5C1.61638 15.5 1.45539 15.4548 1.30804 15.3645C1.16069 15.2798 1.04336 15.1612 0.956042 15.0088C0.874182 14.8619 0.833252 14.6982 0.833252 14.5175C0.833252 14.2465 0.931484 14.0065 1.12795 13.7976L6.87451 7.99576L1.12795 2.19396C0.931484 1.98504 0.833252 1.74788 0.833252 1.4825C0.833252 1.29616 0.874182 1.12959 0.956042 0.982778C1.04336 0.835968 1.16069 0.720215 1.30804 0.635517C1.45539 0.545172 1.61638 0.5 1.79101 0.5C2.05842 0.5 2.28217 0.593168 2.46226 0.779503L8.83915 7.23348C8.94829 7.34641 9.03015 7.46499 9.08473 7.58921C9.1393 7.71344 9.16659 7.84896 9.16659 7.99576Z" fill="#808080"/>
</svg>
