<svg width="32" height="32" viewBox="0 0 32 32" fill="none" xmlns="http://www.w3.org/2000/svg">
<rect x="0.5" y="0.5" width="31" height="31" rx="9.5" fill="white"/>
<rect x="0.5" y="0.5" width="31" height="31" rx="9.5" stroke="#F2F2F2"/>
<path d="M10 19.5495C10 19.3343 10.0615 19.1257 10.1844 18.9234C10.3074 18.7212 10.46 18.5233 10.6423 18.3297C10.8288 18.1361 11.0132 17.9425 11.1955 17.7489C11.3355 17.6026 11.4436 17.4111 11.5199 17.1745C11.6004 16.9379 11.6598 16.6862 11.6979 16.4194C11.7361 16.1527 11.7636 15.8945 11.7806 15.645C11.7933 14.7974 11.8802 14.0531 12.0413 13.412C12.2024 12.7666 12.4547 12.2288 12.7981 11.7986C13.1457 11.3683 13.6015 11.0499 14.1653 10.8434C14.2713 10.4218 14.4854 10.0647 14.8076 9.7721C15.1341 9.47954 15.5305 9.33325 15.9968 9.33325C16.4674 9.33325 16.8638 9.47954 17.186 9.7721C17.5125 10.0647 17.7287 10.4218 17.8347 10.8434C18.3985 11.0499 18.8521 11.3683 19.1955 11.7986C19.539 12.2288 19.7912 12.7666 19.9523 13.412C20.1176 14.0531 20.2067 14.7974 20.2194 15.645C20.2364 15.8945 20.2639 16.1527 20.3021 16.4194C20.3402 16.6862 20.3975 16.9379 20.4738 17.1745C20.5543 17.4111 20.6645 17.6026 20.8045 17.7489C20.9868 17.9425 21.1691 18.1361 21.3514 18.3297C21.5379 18.5233 21.6926 18.7212 21.8156 18.9234C21.9385 19.1257 22 19.3343 22 19.5495C22 19.7861 21.9152 19.9754 21.7456 20.1174C21.576 20.2594 21.3408 20.3303 21.0397 20.3303H18.3561C18.3392 20.7477 18.2268 21.1328 18.0191 21.4856C17.8156 21.8427 17.54 22.1288 17.1924 22.3439C16.8447 22.559 16.4462 22.6666 15.9968 22.6666C15.5517 22.6666 15.1553 22.5569 14.8076 22.3374C14.46 22.1223 14.1823 21.8384 13.9746 21.4856C13.7711 21.1328 13.6608 20.7477 13.6439 20.3303H10.9603C10.6592 20.3303 10.424 20.2594 10.2544 20.1174C10.0848 19.9754 10 19.7861 10 19.5495ZM11.2337 19.3558H20.7599V19.2784C20.7218 19.2182 20.6582 19.1386 20.5692 19.0396C20.4844 18.9364 20.3847 18.8245 20.2703 18.704C20.16 18.5835 20.0477 18.4609 19.9332 18.3362C19.8188 18.2071 19.7191 18.0586 19.6343 17.8909C19.5496 17.7188 19.4775 17.5251 19.4181 17.31C19.363 17.0949 19.3164 16.8561 19.2782 16.5937C19.2443 16.3312 19.221 16.0429 19.2083 15.7289C19.1913 14.7909 19.0938 14.0466 18.9157 13.4959C18.7419 12.9452 18.5087 12.5364 18.2162 12.2697C17.9279 11.9986 17.6015 11.8115 17.2369 11.7082C17.1606 11.691 17.0991 11.6609 17.0525 11.6179C17.0101 11.5705 16.9889 11.506 16.9889 11.4242C16.9762 11.0887 16.8808 10.8155 16.7027 10.6046C16.5289 10.3895 16.2936 10.2819 15.9968 10.2819C15.7043 10.2819 15.469 10.3895 15.2909 10.6046C15.1171 10.8155 15.0238 11.0887 15.0111 11.4242C15.0069 11.506 14.9836 11.5705 14.9412 11.6179C14.8988 11.6609 14.8373 11.691 14.7568 11.7082C14.3922 11.8115 14.0636 11.9986 13.7711 12.2697C13.4828 12.5364 13.2517 12.9452 13.0779 13.4959C12.9041 14.0466 12.8087 14.7909 12.7917 15.7289C12.7748 16.0429 12.7493 16.3312 12.7154 16.5937C12.6815 16.8561 12.6349 17.0949 12.5755 17.31C12.5162 17.5251 12.4441 17.7188 12.3593 17.8909C12.2745 18.0586 12.1749 18.2071 12.0604 18.3362C11.9502 18.4609 11.8378 18.5835 11.7234 18.704C11.6131 18.8245 11.5135 18.9364 11.4245 19.0396C11.3355 19.1386 11.2719 19.2182 11.2337 19.2784V19.3558ZM14.6359 20.3303C14.6571 20.7692 14.7928 21.1155 15.0429 21.3694C15.2973 21.6275 15.6153 21.7566 15.9968 21.7566C16.3826 21.7566 16.7006 21.6275 16.9507 21.3694C17.2008 21.1155 17.3386 20.7692 17.3641 20.3303H14.6359Z" fill="black"/>
</svg>
