<svg width="28" height="28" viewBox="0 0 28 28" fill="none" xmlns="http://www.w3.org/2000/svg">
<rect width="28" height="28" rx="5" fill="black" fill-opacity="0.05"/>
<path d="M13.996 22.3334C12.8564 22.3334 11.7839 22.1156 10.7787 21.68C9.77352 21.2497 8.88657 20.6501 8.11787 19.881C7.35456 19.1119 6.75519 18.2246 6.31978 17.2189C5.88436 16.2132 5.66666 15.1402 5.66666 14.0001C5.66666 12.8599 5.88436 11.787 6.31978 10.7813C6.75519 9.7756 7.35456 8.89091 8.11787 8.12722C8.88657 7.35815 9.77083 6.75581 10.7707 6.32018C11.7759 5.88456 12.8483 5.66675 13.9879 5.66675C15.1329 5.66675 16.208 5.88456 17.2132 6.32018C18.2184 6.75581 19.1054 7.35815 19.874 8.12722C20.6427 8.89091 21.2448 9.7756 21.6802 10.7813C22.1156 11.787 22.3333 12.8599 22.3333 14.0001C22.3333 15.1402 22.1156 16.2132 21.6802 17.2189C21.2448 18.2246 20.6427 19.1119 19.874 19.881C19.1054 20.6501 18.2184 21.2497 17.2132 21.68C16.208 22.1156 15.1356 22.3334 13.996 22.3334ZM13.996 20.6877C14.9259 20.6877 15.7941 20.5156 16.6004 20.1714C17.4067 19.8272 18.1163 19.3486 18.7291 18.7355C19.3419 18.1224 19.8203 17.4125 20.1643 16.6058C20.5084 15.799 20.6804 14.9305 20.6804 14.0001C20.6804 13.0751 20.5084 12.2092 20.1643 11.4025C19.8203 10.5904 19.3419 9.87778 18.7291 9.26468C18.1163 8.65158 17.404 8.17293 16.5923 7.82874C15.786 7.48454 14.9179 7.31244 13.9879 7.31244C13.0633 7.31244 12.1952 7.48454 11.3835 7.82874C10.5772 8.17293 9.87028 8.65158 9.26285 9.26468C8.65542 9.87778 8.17969 10.5904 7.83566 11.4025C7.49163 12.2092 7.31962 13.0751 7.31962 14.0001C7.31962 14.9305 7.49163 15.799 7.83566 16.6058C8.17969 17.4125 8.65542 18.1224 9.26285 18.7355C9.87566 19.3486 10.5852 19.8272 11.3915 20.1714C12.2032 20.5156 13.0714 20.6877 13.996 20.6877ZM13.1251 17.832C12.9746 17.832 12.8402 17.7997 12.722 17.7352C12.6037 17.6652 12.4881 17.5631 12.3753 17.4286L10.4723 15.1053C10.3326 14.9278 10.2627 14.7476 10.2627 14.5648C10.2627 14.3658 10.3299 14.1964 10.4643 14.0566C10.604 13.9113 10.7707 13.8387 10.9642 13.8387C11.0878 13.8387 11.198 13.8656 11.2948 13.9194C11.3969 13.9678 11.4964 14.0566 11.5931 14.1856L13.0929 16.0895L16.2778 10.983C16.4445 10.7087 16.6541 10.5716 16.9068 10.5716C17.0949 10.5716 17.2642 10.6334 17.4148 10.7571C17.5653 10.8808 17.6405 11.0421 17.6405 11.2411C17.6405 11.3326 17.619 11.4267 17.576 11.5235C17.5384 11.6149 17.4927 11.701 17.439 11.7816L13.8347 17.4205C13.6627 17.6948 13.4262 17.832 13.1251 17.832Z" fill="black" fill-opacity="0.5"/>
</svg>
