<svg width="32" height="32" viewBox="0 0 32 32" fill="none" xmlns="http://www.w3.org/2000/svg">
<rect width="32" height="32" rx="10" fill="black"/>
<path d="M10.6666 16.0001C10.6666 15.8047 10.7367 15.6369 10.8769 15.4967C11.0171 15.3523 11.1849 15.28 11.3803 15.28H15.2863V11.3804C15.2863 11.185 15.3564 11.0172 15.4966 10.877C15.6368 10.7368 15.8046 10.6667 16 10.6667C16.1996 10.6667 16.3695 10.7368 16.5097 10.877C16.6499 11.0172 16.72 11.185 16.72 11.3804V15.28H20.6196C20.815 15.28 20.9828 15.3523 21.123 15.4967C21.2632 15.6369 21.3333 15.8047 21.3333 16.0001C21.3333 16.1997 21.2632 16.3697 21.123 16.5098C20.9828 16.6458 20.815 16.7137 20.6196 16.7137H16.72V20.6261C16.72 20.8173 16.6499 20.983 16.5097 21.1231C16.3695 21.2633 16.1996 21.3334 16 21.3334C15.8046 21.3334 15.6368 21.2633 15.4966 21.1231C15.3564 20.983 15.2863 20.8173 15.2863 20.6261V16.7137H11.3803C11.1849 16.7137 11.0171 16.6458 10.8769 16.5098C10.7367 16.3697 10.6666 16.1997 10.6666 16.0001Z" fill="white"/>
</svg>
