<svg width="10" height="16" viewBox="0 0 10 16" fill="none" xmlns="http://www.w3.org/2000/svg">
<path d="M0.833414 7.99576C0.833414 8.14257 0.860701 8.27809 0.915275 8.40232C0.969848 8.52654 1.05171 8.64512 1.16085 8.75805L7.53774 15.212C7.71783 15.404 7.94158 15.5 8.20899 15.5C8.38362 15.5 8.54461 15.4548 8.69196 15.3645C8.83931 15.2798 8.95664 15.1612 9.04396 15.0088C9.12582 14.8619 9.16675 14.6982 9.16675 14.5175C9.16675 14.2465 9.06852 14.0065 8.87205 13.7976L3.12549 7.99576L8.87205 2.19396C9.06852 1.98504 9.16675 1.74788 9.16675 1.4825C9.16675 1.29616 9.12582 1.12959 9.04396 0.982778C8.95664 0.835968 8.83931 0.720215 8.69196 0.635517C8.54461 0.545172 8.38362 0.5 8.20899 0.5C7.94158 0.5 7.71783 0.593168 7.53774 0.779503L1.16085 7.23348C1.05171 7.34641 0.969848 7.46499 0.915275 7.58921C0.860701 7.71344 0.833414 7.84896 0.833414 7.99576Z" fill="#808080"/>
</svg>
