<svg width="32" height="32" viewBox="0 0 32 32" fill="none" xmlns="http://www.w3.org/2000/svg">
<rect x="0.5" y="0.5" width="31" height="31" rx="9.5" fill="#F7F7F7"/>
<rect x="0.5" y="0.5" width="31" height="31" rx="9.5" stroke="#E5E5E5"/>
<path d="M11.7406 22C10.5802 22 10 21.6317 10 20.8951C10 20.4582 10.1388 20 10.4164 19.5203C10.6985 19.0407 11.1013 18.5931 11.6246 18.1777C12.1524 17.7623 12.785 17.4261 13.5222 17.1692C14.2594 16.9079 15.0876 16.7773 16.0068 16.7773C16.917 16.7773 17.7406 16.9079 18.4778 17.1692C19.2196 17.4261 19.8521 17.7623 20.3754 18.1777C20.8987 18.5931 21.2992 19.0407 21.5768 19.5203C21.8589 20 22 20.4582 22 20.8951C22 21.6317 21.4198 22 20.2594 22H11.7406ZM11.5222 20.8887H20.4846C20.562 20.8887 20.6166 20.8758 20.6485 20.8501C20.6849 20.8244 20.7031 20.7816 20.7031 20.7216C20.7031 20.4732 20.6007 20.1906 20.3959 19.8737C20.1911 19.5525 19.8862 19.242 19.4812 18.9422C19.0808 18.6381 18.5893 18.3876 18.0068 18.1906C17.4243 17.9893 16.7577 17.8887 16.0068 17.8887C15.2514 17.8887 14.5802 17.9893 13.9932 18.1906C13.4107 18.3876 12.9192 18.6381 12.5188 18.9422C12.1183 19.242 11.8134 19.5525 11.6041 19.8737C11.3993 20.1906 11.2969 20.4732 11.2969 20.7216C11.2969 20.7816 11.3129 20.8244 11.3447 20.8501C11.3811 20.8758 11.4403 20.8887 11.5222 20.8887ZM16.0068 16.0257C15.4562 16.0257 14.9534 15.8887 14.4983 15.6146C14.0478 15.3405 13.6883 14.9743 13.4198 14.5161C13.1513 14.0535 13.0171 13.5439 13.0171 12.9872C13.0171 12.439 13.1513 11.94 13.4198 11.4904C13.6883 11.0364 14.0478 10.6745 14.4983 10.4047C14.9534 10.1349 15.4562 10 16.0068 10C16.5575 10 17.058 10.1328 17.5085 10.3983C17.9636 10.6638 18.3231 11.0214 18.587 11.4711C18.8555 11.9208 18.9898 12.4218 18.9898 12.9743C18.9898 13.5353 18.8555 14.0471 18.587 14.5096C18.3185 14.9722 17.959 15.3405 17.5085 15.6146C17.058 15.8887 16.5575 16.0257 16.0068 16.0257ZM16.0068 14.9079C16.3254 14.9079 16.6166 14.8244 16.8805 14.6574C17.1445 14.4861 17.3561 14.2548 17.5154 13.9636C17.6746 13.6681 17.7543 13.3383 17.7543 12.9743C17.7543 12.6188 17.6746 12.3019 17.5154 12.0236C17.3561 11.7409 17.1445 11.5182 16.8805 11.3555C16.6166 11.1927 16.3254 11.1113 16.0068 11.1113C15.6883 11.1113 15.397 11.1949 15.1331 11.3619C14.8692 11.5246 14.6576 11.7473 14.4983 12.03C14.339 12.3126 14.2594 12.6317 14.2594 12.9872C14.2594 13.3469 14.339 13.6745 14.4983 13.97C14.6576 14.2612 14.8692 14.4904 15.1331 14.6574C15.4016 14.8244 15.6928 14.9079 16.0068 14.9079Z" fill="black"/>
</svg>
