<svg width="28" height="28" viewBox="0 0 28 28" fill="none" xmlns="http://www.w3.org/2000/svg">
<rect width="28" height="28" rx="5" fill="black" fill-opacity="0.05"/>
<path d="M14.0204 22.3334C12.8775 22.3334 11.8019 22.1163 10.7938 21.6822C9.7856 21.2534 8.89605 20.6558 8.1251 19.8893C7.35954 19.1228 6.75842 18.2384 6.32172 17.2361C5.88503 16.2338 5.66669 15.1645 5.66669 14.0282C5.66669 12.8919 5.88503 11.8226 6.32172 10.8203C6.75842 9.81801 7.35954 8.9363 8.1251 8.17519C8.89605 7.40872 9.78291 6.80841 10.7857 6.37426C11.7938 5.9401 12.8694 5.72303 14.0123 5.72303C14.5569 5.72303 15.0852 5.77395 15.5974 5.87578C16.1149 5.97226 16.6082 6.11698 17.0773 6.30994C16.9263 6.54577 16.805 6.79233 16.7134 7.04961C16.6217 7.30152 16.5624 7.56684 16.5354 7.84556C16.1473 7.69012 15.7402 7.5722 15.3143 7.4918C14.8938 7.40604 14.4598 7.36316 14.0123 7.36316C13.085 7.36316 12.2144 7.53468 11.4003 7.87771C10.5916 8.22075 9.88265 8.69778 9.27343 9.30881C8.66422 9.91984 8.1871 10.63 7.84206 11.4394C7.49702 12.2434 7.3245 13.1063 7.3245 14.0282C7.3245 14.9555 7.49702 15.8211 7.84206 16.6251C8.1871 17.4291 8.66422 18.1366 9.27343 18.7476C9.88804 19.3587 10.5997 19.8357 11.4084 20.1787C12.2224 20.5218 13.0931 20.6933 14.0204 20.6933C14.9531 20.6933 15.8238 20.5218 16.6325 20.1787C17.4466 19.8357 18.1582 19.3587 18.7674 18.7476C19.382 18.1366 19.8618 17.4291 20.2069 16.6251C20.5519 15.8211 20.7245 14.9555 20.7245 14.0282C20.7245 13.7227 20.7029 13.4252 20.6598 13.1358C20.6166 12.8464 20.5573 12.5623 20.4818 12.2836C20.7568 12.2943 21.0291 12.2728 21.2986 12.2192C21.5736 12.1656 21.8377 12.0772 22.0911 11.9539C22.1882 12.2862 22.261 12.6266 22.3095 12.975C22.358 13.318 22.3823 13.6691 22.3823 14.0282C22.3823 15.1645 22.1639 16.2338 21.7272 17.2361C21.2905 18.2384 20.6867 19.1228 19.9158 19.8893C19.1448 20.6558 18.2553 21.2534 17.2471 21.6822C16.2389 22.1163 15.1634 22.3334 14.0204 22.3334ZM9.93656 15.0332C9.75325 15.0332 9.5996 14.9716 9.47561 14.8483C9.35161 14.725 9.28961 14.5723 9.28961 14.39C9.28961 14.2078 9.35161 14.0577 9.47561 13.9398C9.5996 13.8165 9.75325 13.7549 9.93656 13.7549H13.3735V9.1239C13.3735 8.94702 13.4355 8.79694 13.5595 8.67366C13.6835 8.55038 13.8344 8.48875 14.0123 8.48875C14.1956 8.48875 14.3493 8.55038 14.4733 8.67366C14.5973 8.79694 14.6593 8.94702 14.6593 9.1239V14.39C14.6593 14.5723 14.5973 14.725 14.4733 14.8483C14.3493 14.9716 14.1956 15.0332 14.0123 15.0332H9.93656ZM20.3848 11.2303C19.8672 11.2303 19.3982 11.1044 18.9777 10.8525C18.5572 10.6006 18.2202 10.2629 17.9668 9.83945C17.7134 9.41601 17.5867 8.95238 17.5867 8.44855C17.5867 7.93935 17.7134 7.47572 17.9668 7.05765C18.2202 6.63421 18.5572 6.29654 18.9777 6.04462C19.3982 5.79271 19.8672 5.66675 20.3848 5.66675C20.8862 5.66675 21.3471 5.79271 21.7677 6.04462C22.1936 6.29654 22.5332 6.63421 22.7866 7.05765C23.04 7.47572 23.1667 7.93935 23.1667 8.44855C23.1667 8.95238 23.04 9.41601 22.7866 9.83945C22.5332 10.2629 22.1936 10.6006 21.7677 10.8525C21.3471 11.1044 20.8862 11.2303 20.3848 11.2303Z" fill="black" fill-opacity="0.5"/>
</svg>
