<svg width="28" height="28" viewBox="0 0 28 28" fill="none" xmlns="http://www.w3.org/2000/svg">
<rect width="28" height="28" rx="5" fill="black" fill-opacity="0.05"/>
<path d="M8.86458 21.3545C8.51652 21.1105 8.44246 20.7062 8.64242 20.1556L10.168 15.8965L6.28002 13.2685C5.77644 12.9339 5.56908 12.5645 5.70979 12.1741C5.85049 11.7907 6.23559 11.6025 6.85025 11.6095L11.6195 11.6374L13.071 7.35739C13.2635 6.79974 13.5672 6.5 13.9967 6.5C14.4336 6.5 14.7372 6.79974 14.9224 7.35739L16.3739 11.6374L21.1431 11.6095C21.7578 11.6025 22.1503 11.7907 22.291 12.1741C22.4317 12.5645 22.2169 12.9339 21.7208 13.2685L17.8328 15.8965L19.351 20.1556C19.5509 20.7062 19.4769 21.1105 19.1362 21.3545C18.7881 21.6055 18.3512 21.5218 17.8476 21.1802L13.9967 18.5174L10.1458 21.1802C9.64218 21.5218 9.21265 21.6055 8.86458 21.3545Z" fill="black" fill-opacity="0.5"/>
</svg>
