<svg width="20" height="20" viewBox="0 0 20 20" fill="none" xmlns="http://www.w3.org/2000/svg">
<path d="M4.86455 17.3545C4.51649 17.1105 4.44243 16.7062 4.64238 16.1556L6.16794 11.8965L2.27999 9.26853C1.77641 8.93394 1.56905 8.56449 1.70976 8.17413C1.85046 7.79074 2.23556 7.60254 2.85022 7.60951L7.61945 7.63739L9.07095 3.35739C9.2635 2.79974 9.56713 2.5 9.99666 2.5C10.4336 2.5 10.7372 2.79974 10.9224 3.35739L12.3739 7.63739L17.1431 7.60951C17.7578 7.60254 18.1503 7.79074 18.291 8.17413C18.4317 8.56449 18.2169 8.93394 17.7207 9.26853L13.8328 11.8965L15.3509 16.1556C15.5509 16.7062 15.4768 17.1105 15.1362 17.3545C14.7881 17.6055 14.3512 17.5218 13.8476 17.1802L9.99666 14.5174L6.14573 17.1802C5.64214 17.5218 5.21262 17.6055 4.86455 17.3545Z" fill="black" fillOpacity="0.2"/>
</svg>
