<svg width="14" height="14" viewBox="0 0 14 14" fill="none" xmlns="http://www.w3.org/2000/svg">
<path d="M0.333344 5.72679C0.333344 4.98342 0.474365 4.28736 0.756407 3.6386C1.03845 2.98533 1.42967 2.41091 1.93007 1.91533C2.43047 1.41975 3.0082 1.0323 3.66327 0.752974C4.32288 0.473648 5.02799 0.333984 5.77858 0.333984C6.52918 0.333984 7.23201 0.473648 7.88708 0.752974C8.5467 1.0323 9.1267 1.41975 9.6271 1.91533C10.1275 2.41091 10.5187 2.98533 10.8008 3.6386C11.0828 4.28736 11.2238 4.98342 11.2238 5.72679C11.2238 6.34401 11.1237 6.92969 10.9236 7.48384C10.728 8.03799 10.455 8.54033 10.1048 8.99085L13.4415 12.3157C13.5143 12.3878 13.5689 12.4712 13.6053 12.5658C13.6462 12.6604 13.6667 12.7618 13.6667 12.8699C13.6667 13.0186 13.6326 13.1537 13.5643 13.2754C13.5006 13.397 13.4097 13.4916 13.2914 13.5592C13.1731 13.6313 13.0366 13.6673 12.882 13.6673C12.7728 13.6673 12.6682 13.647 12.5681 13.6065C12.4725 13.5705 12.3838 13.5141 12.302 13.4375L8.94474 10.1059C8.49893 10.4213 8.00763 10.6691 7.47084 10.8493C6.93405 11.0295 6.36996 11.1196 5.77858 11.1196C5.02799 11.1196 4.32288 10.9799 3.66327 10.7006C3.0082 10.4213 2.43047 10.0338 1.93007 9.53824C1.42967 9.04266 1.03845 8.47049 0.756407 7.82174C0.474365 7.16847 0.333344 6.47016 0.333344 5.72679ZM1.50018 5.72679C1.50018 6.31247 1.60936 6.86211 1.82771 7.37571C2.05062 7.88481 2.35768 8.33308 2.7489 8.72054C3.14467 9.10799 3.59958 9.4121 4.11362 9.63285C4.63222 9.85361 5.1872 9.96399 5.77858 9.96399C6.36996 9.96399 6.92268 9.85361 7.43672 9.63285C7.95532 9.4121 8.41022 9.10799 8.80144 8.72054C9.19266 8.33308 9.49973 7.88481 9.72263 7.37571C9.94554 6.86211 10.057 6.31247 10.057 5.72679C10.057 5.1411 9.94554 4.59371 9.72263 4.08462C9.49973 3.57102 9.19266 3.12049 8.80144 2.73304C8.41022 2.34108 7.95532 2.03697 7.43672 1.82072C6.92268 1.59996 6.36996 1.48959 5.77858 1.48959C5.1872 1.48959 4.63222 1.59996 4.11362 1.82072C3.59958 2.03697 3.14467 2.34108 2.7489 2.73304C2.35768 3.12049 2.05062 3.57102 1.82771 4.08462C1.60936 4.59371 1.50018 5.1411 1.50018 5.72679Z" fill="#CCCCCC"/>
</svg>
