<svg width="20" height="20" viewBox="0 0 20 20" fill="none" xmlns="http://www.w3.org/2000/svg">
<path d="M9.99242 17.3069C9.89699 17.3069 9.80406 17.3044 9.71364 17.2993C9.62323 17.2993 9.53281 17.2942 9.44239 17.284L9.02799 18.0869C8.98278 18.1787 8.91748 18.245 8.83209 18.2858C8.74669 18.3317 8.65126 18.3444 8.54577 18.324C8.44531 18.3036 8.36243 18.2577 8.29713 18.1864C8.23685 18.115 8.19666 18.0258 8.17657 17.9187L8.04095 17.0393C7.86514 16.9883 7.69184 16.9297 7.52106 16.8634C7.35529 16.8022 7.18702 16.7359 7.01623 16.6646L6.37579 17.2458C6.29542 17.3171 6.20751 17.3605 6.11208 17.3758C6.01664 17.3911 5.91617 17.3707 5.81069 17.3146C5.7253 17.2636 5.66502 17.1922 5.62986 17.1005C5.59972 17.0087 5.5947 16.9093 5.61479 16.8022L5.78055 15.9381C5.6399 15.831 5.49926 15.7189 5.35861 15.6016C5.21796 15.4844 5.08234 15.362 4.95174 15.2346L4.1606 15.571C4.05511 15.6169 3.95465 15.6271 3.85921 15.6016C3.76377 15.5761 3.67838 15.5175 3.60303 15.4257C3.54276 15.3493 3.50759 15.2626 3.49755 15.1657C3.49253 15.0638 3.51764 14.9669 3.57289 14.8751L4.03251 14.1181C3.93205 13.9702 3.83661 13.8173 3.74619 13.6592C3.6608 13.4961 3.57541 13.3304 3.49001 13.1622L2.61599 13.1928C2.51553 13.203 2.4226 13.1826 2.33721 13.1316C2.25182 13.0755 2.19405 12.9939 2.16391 12.8869C2.12875 12.7849 2.12624 12.6881 2.15638 12.5963C2.18652 12.5045 2.24177 12.4255 2.32214 12.3592L3.00026 11.8086C2.95505 11.6302 2.91738 11.4518 2.88724 11.2733C2.8571 11.0898 2.83701 10.9012 2.82696 10.7074L1.99062 10.4398C1.88513 10.4092 1.80476 10.3557 1.74951 10.2792C1.69425 10.1976 1.66663 10.1033 1.66663 9.99626C1.66663 9.8841 1.69425 9.78979 1.74951 9.71331C1.80476 9.63684 1.88513 9.58331 1.99062 9.55272L2.82696 9.28507C2.83701 9.09135 2.8571 8.90527 2.88724 8.72683C2.91738 8.5433 2.95505 8.36232 3.00026 8.18388L2.32214 7.62564C2.24177 7.56447 2.18652 7.48799 2.15638 7.39623C2.12624 7.30446 2.12875 7.21015 2.16391 7.11328C2.19405 7.00622 2.25182 6.9272 2.33721 6.87622C2.4226 6.82014 2.51553 6.7972 2.61599 6.8074L3.49001 6.83034C3.57541 6.6621 3.6608 6.49896 3.74619 6.34092C3.83661 6.18288 3.93205 6.02484 4.03251 5.8668L3.56536 5.10973C3.51513 5.02306 3.49253 4.9313 3.49755 4.83443C3.50759 4.73757 3.54276 4.6509 3.60303 4.57443C3.67838 4.48266 3.76126 4.42658 3.85168 4.40619C3.94712 4.3807 4.04758 4.38835 4.15306 4.42913L4.95174 4.75031C5.08234 4.63306 5.21796 4.5158 5.35861 4.39855C5.49926 4.27619 5.6399 4.16148 5.78055 4.05442L5.61479 3.19794C5.58967 3.08578 5.5947 2.98382 5.62986 2.89206C5.66502 2.80029 5.7253 2.73147 5.81069 2.68558C5.91115 2.6295 6.0091 2.60911 6.10454 2.62441C6.205 2.6346 6.29542 2.67794 6.37579 2.75441L7.01623 3.3203C7.18702 3.25402 7.35529 3.1903 7.52106 3.12912C7.69184 3.06284 7.86514 3.00421 8.04095 2.95323L8.17657 2.08146C8.19666 1.9744 8.23685 1.88518 8.29713 1.81381C8.36243 1.74244 8.44531 1.69655 8.54577 1.67616C8.65126 1.65577 8.74669 1.66851 8.83209 1.7144C8.91748 1.75518 8.98278 1.81891 9.02799 1.90557L9.44239 2.70853C9.53783 2.69833 9.62825 2.69323 9.71364 2.69323C9.80406 2.68813 9.89699 2.68558 9.99242 2.68558C10.0828 2.68558 10.1733 2.68813 10.2637 2.69323C10.3541 2.69323 10.4445 2.69833 10.5349 2.70853L10.9569 1.90557C10.997 1.81891 11.0598 1.75518 11.1452 1.7144C11.2356 1.66851 11.3336 1.65577 11.4391 1.67616C11.5395 1.69655 11.6224 1.74244 11.6877 1.81381C11.758 1.88518 11.7982 1.9744 11.8083 2.08146L11.9439 2.96088C12.1147 3.00676 12.2855 3.06284 12.4563 3.12912C12.627 3.1903 12.7953 3.25402 12.9611 3.3203L13.6091 2.74676C13.6844 2.67539 13.7698 2.6346 13.8652 2.62441C13.9657 2.60911 14.0662 2.6295 14.1666 2.68558C14.252 2.73147 14.3123 2.80029 14.3475 2.89206C14.3876 2.98382 14.3952 3.08578 14.3701 3.19794L14.1968 4.05442C14.3374 4.16148 14.4781 4.27619 14.6187 4.39855C14.7644 4.5158 14.9 4.63306 15.0256 4.75031L15.8318 4.42913C15.9322 4.38835 16.0302 4.3807 16.1256 4.40619C16.2211 4.42658 16.3065 4.48266 16.3818 4.57443C16.4421 4.6509 16.4747 4.73757 16.4798 4.83443C16.4898 4.9313 16.4672 5.02306 16.412 5.10973L15.9523 5.8668C16.1482 6.17268 16.3291 6.49386 16.4948 6.83034L17.3689 6.8074C17.4693 6.7972 17.5622 6.82014 17.6476 6.87622C17.733 6.9272 17.7908 7.00622 17.8209 7.11328C17.8561 7.21015 17.8561 7.30446 17.8209 7.39623C17.7908 7.48799 17.7381 7.56447 17.6627 7.62564L16.9846 8.18388C17.0298 8.36232 17.0675 8.5433 17.0976 8.72683C17.1277 8.90527 17.1504 9.09135 17.1654 9.28507L17.9867 9.55272C18.2178 9.6292 18.3333 9.77704 18.3333 9.99626C18.3333 10.2155 18.2178 10.3633 17.9867 10.4398L17.1654 10.7074C17.1504 10.9012 17.1277 11.0898 17.0976 11.2733C17.0675 11.4518 17.0298 11.6302 16.9846 11.8086L17.6627 12.3592C17.7381 12.4255 17.7908 12.5071 17.8209 12.6039C17.8561 12.6957 17.8561 12.79 17.8209 12.8869C17.7908 12.9939 17.733 13.0755 17.6476 13.1316C17.5622 13.1826 17.4693 13.203 17.3689 13.1928L16.4948 13.1622C16.4094 13.3304 16.3215 13.4961 16.2311 13.6592C16.1457 13.8173 16.0528 13.9702 15.9523 14.1181L16.412 14.8751C16.4672 14.9669 16.4898 15.0638 16.4798 15.1657C16.4747 15.2626 16.4421 15.3493 16.3818 15.4257C16.3065 15.5175 16.2211 15.5761 16.1256 15.6016C16.0302 15.6271 15.9297 15.6169 15.8243 15.571L15.0256 15.2346C14.9 15.362 14.7644 15.4844 14.6187 15.6016C14.4781 15.7189 14.3374 15.831 14.1968 15.9381L14.3701 16.8022C14.4303 17.0265 14.3625 17.1973 14.1666 17.3146C14.0662 17.3707 13.9657 17.3911 13.8652 17.3758C13.7698 17.3605 13.6844 17.3171 13.6091 17.2458L12.9611 16.6646C12.7953 16.7359 12.627 16.8022 12.4563 16.8634C12.2855 16.9297 12.1147 16.9858 11.9439 17.0316L11.8083 17.9187C11.7982 18.0258 11.758 18.115 11.6877 18.1864C11.6224 18.2577 11.5395 18.3036 11.4391 18.324C11.3336 18.3444 11.2382 18.3317 11.1528 18.2858C11.0674 18.245 11.0021 18.1787 10.9569 18.0869L10.5349 17.284C10.4445 17.2942 10.3541 17.2993 10.2637 17.2993C10.1733 17.3044 10.0828 17.3069 9.99242 17.3069ZM9.99242 16.0757C10.8313 16.0757 11.6099 15.9203 12.3282 15.6093C13.0465 15.2983 13.6744 14.8649 14.2118 14.3093C14.7493 13.7536 15.1662 13.1086 15.4626 12.3745C15.764 11.6404 15.9147 10.8502 15.9147 10.0039C15.9147 9.15762 15.764 8.36742 15.4626 7.63329C15.1662 6.89406 14.7493 6.24661 14.2118 5.69091C13.6744 5.13522 13.0465 4.70188 12.3282 4.3909C11.6099 4.07482 10.8313 3.91677 9.99242 3.91677C9.15859 3.91677 8.38252 4.07482 7.66422 4.3909C6.94591 4.70188 6.31802 5.13522 5.78055 5.69091C5.2481 6.24661 4.83118 6.89406 4.5298 7.63329C4.23343 8.36742 4.08525 9.15762 4.08525 10.0039C4.08525 10.8502 4.23343 11.6404 4.5298 12.3745C4.83118 13.1086 5.2481 13.7536 5.78055 14.3093C6.31802 14.8649 6.94591 15.2983 7.66422 15.6093C8.38252 15.9203 9.15859 16.0757 9.99242 16.0757ZM8.68139 8.82624L6.12714 4.39855L7.05391 3.87089L9.57048 8.25271L8.68139 8.82624ZM11.6727 10.5163V9.46096H16.6832V10.5163H11.6727ZM9.58555 11.7628L6.97103 16.1216L6.0518 15.571L8.704 11.1816L9.58555 11.7628ZM9.97736 12.0075C9.61067 12.0075 9.27914 11.9182 8.98278 11.7398C8.68642 11.5614 8.45033 11.3218 8.27452 11.021C8.09871 10.7151 8.01081 10.3786 8.01081 10.0116C8.01081 9.63939 8.09871 9.30292 8.27452 9.00213C8.45033 8.70134 8.68642 8.46173 8.98278 8.2833C9.27914 8.09977 9.61067 8.008 9.97736 8.008C10.339 8.008 10.668 8.09977 10.9644 8.2833C11.2658 8.46173 11.5044 8.70134 11.6802 9.00213C11.861 9.30292 11.9514 9.63939 11.9514 10.0116C11.9514 10.3786 11.861 10.7151 11.6802 11.021C11.5044 11.3218 11.2658 11.5614 10.9644 11.7398C10.668 11.9182 10.339 12.0075 9.97736 12.0075ZM9.97736 10.8604C10.2185 10.8604 10.4194 10.7814 10.5801 10.6233C10.7459 10.4602 10.8288 10.2563 10.8288 10.0116C10.8288 9.76684 10.7459 9.56292 10.5801 9.39978C10.4194 9.23154 10.2185 9.14743 9.97736 9.14743C9.74127 9.14743 9.54035 9.23154 9.37458 9.39978C9.21384 9.56292 9.13347 9.76684 9.13347 10.0116C9.13347 10.2563 9.21384 10.4602 9.37458 10.6233C9.54035 10.7814 9.74127 10.8604 9.97736 10.8604Z" fill="#CCCCCC"/>
</svg>
