<svg width="18" height="18" viewBox="0 0 18 18" fill="none" xmlns="http://www.w3.org/2000/svg">
<path d="M4.92388 10.0084C4.74112 10.0084 4.58791 9.94656 4.46428 9.82287C4.34064 9.69917 4.27882 9.5459 4.27882 9.36304C4.27882 9.18019 4.34064 9.0296 4.46428 8.91128C4.58791 8.78759 4.74112 8.72574 4.92388 8.72574H8.35075V4.07908C8.35075 3.9016 8.41257 3.75102 8.5362 3.62732C8.65984 3.50362 8.81035 3.44178 8.98774 3.44178C9.17051 3.44178 9.32371 3.50362 9.44735 3.62732C9.57098 3.75102 9.6328 3.9016 9.6328 4.07908V9.36304C9.6328 9.5459 9.57098 9.69917 9.44735 9.82287C9.32371 9.94656 9.17051 10.0084 8.98774 10.0084H4.92388ZM8.99581 17.3334C7.8562 17.3334 6.7838 17.1155 5.77858 16.6799C4.77337 16.2497 3.88642 15.65 3.11772 14.881C2.3544 14.1119 1.75504 13.2245 1.31962 12.2188C0.884211 11.2131 0.666504 10.1402 0.666504 9.00002C0.666504 7.85987 0.884211 6.78694 1.31962 5.78124C1.75504 4.77554 2.3544 3.89085 3.11772 3.12716C3.88642 2.35809 4.77068 1.75575 5.77052 1.32012C6.77573 0.884499 7.84814 0.666687 8.98774 0.666687C10.1327 0.666687 11.2078 0.884499 12.213 1.32012C13.2182 1.75575 14.1052 2.35809 14.8739 3.12716C15.6426 3.89085 16.2446 4.77554 16.6801 5.78124C17.1155 6.78694 17.3332 7.85987 17.3332 9.00002C17.3332 10.1402 17.1155 11.2131 16.6801 12.2188C16.2446 13.2245 15.6426 14.1119 14.8739 14.881C14.1052 15.65 13.2182 16.2497 12.213 16.6799C11.2078 17.1155 10.1354 17.3334 8.99581 17.3334ZM8.99581 15.6877C9.92576 15.6877 10.7939 15.5156 11.6002 15.1714C12.4065 14.8272 13.1161 14.3485 13.7289 13.7354C14.3417 13.1223 14.8201 12.4124 15.1642 11.6057C15.5082 10.799 15.6802 9.93043 15.6802 9.00002C15.6802 8.07499 15.5082 7.20912 15.1642 6.40241C14.8201 5.59032 14.3417 4.87772 13.7289 4.26462C13.1161 3.65152 12.4039 3.17287 11.5922 2.82868C10.7858 2.48448 9.9177 2.31238 8.98774 2.31238C8.06316 2.31238 7.19502 2.48448 6.38332 2.82868C5.577 3.17287 4.87013 3.65152 4.2627 4.26462C3.65527 4.87772 3.17954 5.59032 2.83551 6.40241C2.49148 7.20912 2.31946 8.07499 2.31946 9.00002C2.31946 9.93043 2.49148 10.799 2.83551 11.6057C3.17954 12.4124 3.65527 13.1223 4.2627 13.7354C4.8755 14.3485 5.58507 14.8272 6.39139 15.1714C7.20308 15.5156 8.07122 15.6877 8.99581 15.6877Z" fill="#CCCCCC"/>
</svg>
