<svg width="16" height="16" viewBox="0 0 16 16" fill="none" xmlns="http://www.w3.org/2000/svg">
<path d="M14.6666 8C14.6666 8.20053 14.5948 8.37731 14.4512 8.53034L9.67652 13.7784C9.53771 13.9261 9.38214 14 9.20982 14C9.03271 14 8.88432 13.934 8.76465 13.8021C8.64499 13.6755 8.58515 13.5145 8.58515 13.3193C8.58515 13.2243 8.59951 13.1346 8.62823 13.0501C8.65695 12.9604 8.70003 12.8839 8.75747 12.8206L10.3658 11.0158L13.2163 8.15831L13.3599 8.54617L11.0479 8.70449H1.96516C1.77848 8.70449 1.6253 8.63852 1.50563 8.5066C1.39075 8.37467 1.33331 8.2058 1.33331 8C1.33331 7.7942 1.39075 7.62533 1.50563 7.4934C1.6253 7.36148 1.77848 7.29551 1.96516 7.29551H11.0479L13.3599 7.45383L13.2163 7.8496L10.3658 4.98417L8.75747 3.17942C8.70003 3.11609 8.65695 3.04222 8.62823 2.95778C8.59951 2.86807 8.58515 2.77573 8.58515 2.68074C8.58515 2.48549 8.64499 2.32454 8.76465 2.19789C8.88432 2.06596 9.03271 2 9.20982 2C9.29598 2 9.37735 2.01847 9.45394 2.05541C9.53531 2.09235 9.61429 2.15303 9.69088 2.23747L14.4512 7.46966C14.5948 7.62269 14.6666 7.79947 14.6666 8Z" fill="black" fillOpacity="0.2"/>
</svg>
