<svg width="28" height="28" viewBox="0 0 28 28" fill="none" xmlns="http://www.w3.org/2000/svg">
<rect width="28" height="28" rx="5" fill="black" fill-opacity="0.05"/>
<path d="M12.037 9.63332C11.9452 9.63332 11.8992 9.57511 11.8839 9.48364C11.6236 8.15313 11.6389 8.10324 10.3526 7.8205C10.2683 7.80387 10.2071 7.74566 10.2071 7.65419C10.2071 7.5544 10.2683 7.49619 10.3526 7.47956C11.6389 7.19683 11.6236 7.14694 11.8839 5.82475C11.8992 5.73327 11.9452 5.66675 12.037 5.66675C12.1289 5.66675 12.1749 5.73327 12.1902 5.82475C12.4505 7.14694 12.4352 7.19683 13.7215 7.47956C13.8057 7.49619 13.867 7.5544 13.867 7.65419C13.867 7.74566 13.8057 7.80387 13.7215 7.8205C12.4352 8.10324 12.4505 8.15313 12.1902 9.48364C12.1749 9.57511 12.1289 9.63332 12.037 9.63332ZM18.3615 12.5687C18.2543 12.5687 18.193 12.4939 18.17 12.3858C17.9097 10.8058 17.9021 10.706 16.3631 10.415C16.2635 10.3984 16.187 10.3235 16.187 10.2071C16.187 10.0907 16.2635 10.0242 16.3631 9.99921C17.9021 9.71648 17.9097 9.61669 18.17 8.03671C18.193 7.92861 18.2543 7.84545 18.3615 7.84545C18.4686 7.84545 18.5299 7.92861 18.5529 8.03671C18.8132 9.61669 18.8209 9.71648 20.3598 9.99921C20.467 10.0242 20.536 10.0907 20.536 10.2071C20.536 10.3235 20.467 10.3984 20.3598 10.415C18.8209 10.706 18.8132 10.8058 18.5529 12.3858C18.5299 12.4939 18.4686 12.5687 18.3615 12.5687ZM7.84118 14.9553C7.73399 14.9553 7.67274 14.8722 7.64977 14.7641C7.38944 13.1841 7.38178 13.0843 5.84279 12.8016C5.74325 12.7766 5.66669 12.7101 5.66669 12.5937C5.66669 12.4773 5.74325 12.4024 5.84279 12.3858C7.38178 12.0948 7.38944 11.995 7.64977 10.415C7.67274 10.3069 7.73399 10.232 7.84118 10.232C7.94838 10.232 8.00963 10.3069 8.0326 10.415C8.29293 11.995 8.30058 12.0948 9.83957 12.3858C9.93911 12.4024 10.0157 12.4773 10.0157 12.5937C10.0157 12.7101 9.93911 12.7766 9.83957 12.8016C8.30058 13.0843 8.29293 13.1841 8.0326 14.7641C8.00963 14.8722 7.94838 14.9553 7.84118 14.9553ZM20.9188 22.0652L13.6373 14.1404C13.3234 13.7912 13.3157 13.2174 13.6373 12.8515C13.9436 12.5022 14.4948 12.5022 14.8164 12.8515L22.0979 20.7846C22.4118 21.1339 22.4118 21.6993 22.0979 22.0652C21.7916 22.4228 21.2404 22.4228 20.9188 22.0652ZM11.4781 22.1983C11.3326 22.1983 11.2331 22.0902 11.2178 21.9488C10.9421 19.7285 10.8809 19.7285 8.75998 19.2878C8.62982 19.2545 8.53028 19.1631 8.53028 19.0051C8.53028 18.8471 8.62982 18.739 8.75998 18.7223C10.8809 18.398 10.9498 18.3232 11.2178 16.0696C11.2331 15.92 11.3326 15.8119 11.4781 15.8119C11.6159 15.8119 11.7155 15.92 11.7384 16.078C11.9834 18.2982 12.0983 18.2899 14.1962 18.7223C14.3264 18.7473 14.4259 18.8471 14.4259 19.0051C14.4259 19.1714 14.3264 19.2545 14.1656 19.2878C12.083 19.6537 11.9834 19.7119 11.7384 21.9322C11.7155 22.0902 11.6159 22.1983 11.4781 22.1983ZM21.1868 21.4915C21.3322 21.6495 21.4777 21.6744 21.6155 21.5497C21.738 21.4 21.7074 21.2337 21.5696 21.0923L16.8454 15.9532L16.4626 16.3524L21.1868 21.4915Z" fill="black" fill-opacity="0.5"/>
</svg>
