<svg width="28" height="28" viewBox="0 0 28 28" fill="none" xmlns="http://www.w3.org/2000/svg">
<rect width="28" height="28" rx="5" fill="black" fill-opacity="0.05"/>
<path d="M9.13524 21.5C8.26754 21.5 7.61141 21.2777 7.16685 20.8332C6.72228 20.3939 6.5 19.7458 6.5 18.8889V9.11114C6.5 8.24879 6.72228 7.59802 7.16685 7.15881C7.61141 6.7196 8.26754 6.5 9.13524 6.5H18.8648C19.7325 6.5 20.3886 6.7196 20.8332 7.15881C21.2777 7.59802 21.5 8.24879 21.5 9.11114V18.8889C21.5 19.7458 21.2777 20.3939 20.8332 20.8332C20.3886 21.2777 19.7325 21.5 18.8648 21.5H9.13524ZM9.23166 19.9172H18.7683C19.1379 19.9172 19.4218 19.8208 19.62 19.628C19.8182 19.4352 19.9172 19.1433 19.9172 18.7523V9.23969C19.9172 8.85404 19.8182 8.56481 19.62 8.37199C19.4218 8.17916 19.1379 8.08275 18.7683 8.08275H9.23166C8.85672 8.08275 8.57017 8.17916 8.37199 8.37199C8.17916 8.56481 8.08275 8.85404 8.08275 9.23969V18.7523C8.08275 19.1433 8.17916 19.4352 8.37199 19.628C8.57017 19.8208 8.85672 19.9172 9.23166 19.9172ZM11.9553 17.8765C11.7732 17.8765 11.6259 17.8096 11.5134 17.6757C11.4009 17.5418 11.3607 17.3811 11.3929 17.1936L11.6901 15.7716H11.0795C10.9296 15.7716 10.8064 15.7234 10.71 15.6269C10.6136 15.5252 10.5653 15.3966 10.5653 15.2413C10.5653 15.0645 10.6216 14.9172 10.7341 14.7994C10.8519 14.6816 11.0019 14.6227 11.184 14.6227H11.9312L12.2284 13.1685H11.6259C11.4759 13.1685 11.3527 13.1202 11.2563 13.0238C11.1599 12.9221 11.1117 12.7935 11.1117 12.6382C11.1117 12.4614 11.1679 12.3141 11.2804 12.1963C11.3982 12.0785 11.5482 12.0196 11.7303 12.0196H12.4695L12.7748 10.5412C12.8444 10.1877 13.064 10.011 13.4336 10.011C13.621 10.011 13.771 10.0779 13.8835 10.2118C13.996 10.3457 14.0308 10.5037 13.9879 10.6859L13.7148 12.0196H15.0645L15.3698 10.5412C15.4395 10.1877 15.6591 10.011 16.0287 10.011C16.2108 10.011 16.3581 10.0779 16.4705 10.2118C16.583 10.3404 16.6232 10.4984 16.5911 10.6859L16.3179 12.0196H16.9285C17.0785 12.0196 17.2017 12.0704 17.2981 12.1722C17.3945 12.2686 17.4427 12.3972 17.4427 12.5578C17.4427 12.7292 17.3838 12.8739 17.2659 12.9917C17.1535 13.1095 17.0062 13.1685 16.824 13.1685H16.0849L15.7796 14.6227H16.3741C16.5241 14.6227 16.6473 14.6735 16.7437 14.7753C16.8455 14.8717 16.8964 15.0003 16.8964 15.161C16.8964 15.3377 16.8374 15.485 16.7196 15.6028C16.6018 15.7153 16.4545 15.7716 16.2777 15.7716H15.5386L15.2172 17.3382C15.1422 17.6971 14.9172 17.8765 14.5423 17.8765C14.3495 17.8765 14.1995 17.8096 14.0924 17.6757C13.9853 17.5418 13.9505 17.3811 13.9879 17.1936L14.2852 15.7796H12.9435L12.6141 17.3463C12.5391 17.6998 12.3195 17.8765 11.9553 17.8765ZM13.0881 14.7592H14.5905L14.936 13.072H13.4255L13.0881 14.7592Z" fill="black" fill-opacity="0.5"/>
</svg>
