<svg width="16" height="18" viewBox="0 0 16 18" fill="none" xmlns="http://www.w3.org/2000/svg">
<path d="M5.76369 14.83C5.60649 14.83 5.47972 14.7882 5.38337 14.7045C5.28702 14.6159 5.23631 14.4977 5.23124 14.35L5.00304 6.61116C4.99797 6.46839 5.04361 6.3527 5.13996 6.26409C5.23631 6.17055 5.36308 6.12378 5.52028 6.12378C5.67748 6.12378 5.80426 6.16809 5.90061 6.2567C5.99696 6.34532 6.04513 6.46101 6.04513 6.60377L6.28093 14.3427C6.28093 14.4903 6.23276 14.6085 6.13641 14.6971C6.04513 14.7857 5.92089 14.83 5.76369 14.83ZM8 14.83C7.8428 14.83 7.71349 14.7857 7.61207 14.6971C7.51572 14.6085 7.46755 14.4928 7.46755 14.35V6.61116C7.46755 6.46839 7.51572 6.3527 7.61207 6.26409C7.71349 6.17055 7.8428 6.12378 8 6.12378C8.16227 6.12378 8.29158 6.17055 8.38793 6.26409C8.48935 6.3527 8.54006 6.46839 8.54006 6.61116V14.35C8.54006 14.4928 8.48935 14.6085 8.38793 14.6971C8.29158 14.7857 8.16227 14.83 8 14.83ZM10.2439 14.83C10.0816 14.83 9.95233 14.7857 9.85598 14.6971C9.76471 14.6085 9.7216 14.4903 9.72667 14.3427L9.95487 6.61116C9.95994 6.46347 10.0106 6.34532 10.107 6.2567C10.2033 6.16809 10.3276 6.12378 10.4797 6.12378C10.642 6.12378 10.7688 6.17055 10.86 6.26409C10.9564 6.3527 11.002 6.46839 10.997 6.61116L10.7688 14.35C10.7637 14.4977 10.713 14.6159 10.6166 14.7045C10.5203 14.7882 10.396 14.83 10.2439 14.83ZM4.54665 4.06353V2.46849C4.54665 1.90235 4.7216 1.46174 5.0715 1.14668C5.42647 0.826683 5.91836 0.666687 6.54716 0.666687H9.43763C10.0664 0.666687 10.5583 0.826683 10.9133 1.14668C11.2683 1.46174 11.4457 1.90235 11.4457 2.46849V4.06353H10.0385V2.53495C10.0385 2.34788 9.97515 2.19773 9.84838 2.0845C9.7216 1.96635 9.55172 1.90727 9.33874 1.90727H6.64604C6.43813 1.90727 6.27079 1.96635 6.14402 2.0845C6.01724 2.19773 5.95385 2.34788 5.95385 2.53495V4.06353H4.54665ZM1.17698 4.87581C0.989351 4.87581 0.829615 4.81182 0.697769 4.68382C0.565923 4.55582 0.5 4.40075 0.5 4.2186C0.5 4.04137 0.565923 3.89122 0.697769 3.76815C0.829615 3.64015 0.989351 3.57615 1.17698 3.57615H14.8306C15.0183 3.57615 15.1755 3.63769 15.3022 3.76077C15.4341 3.88384 15.5 4.03645 15.5 4.2186C15.5 4.40075 15.4341 4.55582 15.3022 4.68382C15.1755 4.81182 15.0183 4.87581 14.8306 4.87581H1.17698ZM4.50862 17.3334C3.92039 17.3334 3.44878 17.1734 3.09381 16.8534C2.74391 16.5334 2.55629 16.0878 2.53093 15.5168L1.99848 4.73551H3.39047L3.91531 15.2879C3.92546 15.5045 3.99899 15.6817 4.1359 15.8195C4.27282 15.9574 4.44777 16.0263 4.66075 16.0263H11.3392C11.5522 16.0263 11.7272 15.9574 11.8641 15.8195C12.001 15.6866 12.0745 15.5094 12.0847 15.2879L12.5867 4.73551H14.0015L13.4767 15.5094C13.4513 16.0805 13.2612 16.526 12.9062 16.846C12.5512 17.1709 12.0822 17.3334 11.499 17.3334H4.50862Z" fill="white"/>
</svg>
