<svg width="12" height="14" viewBox="0 0 12 14" fill="none" xmlns="http://www.w3.org/2000/svg">
<path d="M2.60173 13.6673C1.96456 13.6673 1.48275 13.508 1.1563 13.1895C0.829851 12.8709 0.666626 12.3989 0.666626 11.7734V6.03911C0.666626 5.41751 0.829851 4.94743 1.1563 4.62886C1.48275 4.3064 1.96456 4.14517 2.60173 4.14517H4.31264V5.29319H2.67253C2.39721 5.29319 2.18678 5.36506 2.04126 5.50881C1.89966 5.64867 1.82887 5.8604 1.82887 6.14401V11.6743C1.82887 11.9579 1.89966 12.1696 2.04126 12.3095C2.18678 12.4533 2.39721 12.5251 2.67253 12.5251H9.32149C9.59288 12.5251 9.80134 12.4533 9.94686 12.3095C10.0963 12.1696 10.1711 11.9579 10.1711 11.6743V6.14401C10.1711 5.8604 10.0963 5.64867 9.94686 5.50881C9.80134 5.36506 9.59288 5.29319 9.32149 5.29319H7.68727V4.14517H9.39819C10.0354 4.14517 10.5172 4.3064 10.8436 4.62886C11.1701 4.94743 11.3333 5.41751 11.3333 6.03911V11.7734C11.3333 12.395 11.1701 12.8651 10.8436 13.1836C10.5172 13.5061 10.0354 13.6673 9.39819 13.6673H2.60173ZM5.99996 9.0228C5.8505 9.0228 5.72071 8.97035 5.61058 8.86545C5.50438 8.76056 5.45129 8.63624 5.45129 8.49249V2.62419L5.49848 1.7559L5.1268 2.1813L4.30084 3.05543C4.20645 3.16032 4.08452 3.21277 3.93506 3.21277C3.7974 3.21277 3.68138 3.17004 3.58698 3.08457C3.49652 2.99521 3.45129 2.88255 3.45129 2.74657C3.45129 2.62225 3.50045 2.50764 3.59878 2.40275L5.58108 0.520465C5.65581 0.450534 5.72661 0.401972 5.79347 0.374777C5.86033 0.347582 5.92916 0.333984 5.99996 0.333984C6.07076 0.333984 6.13959 0.347582 6.20645 0.374777C6.27331 0.401972 6.34214 0.450534 6.41294 0.520465L8.39524 2.40275C8.4975 2.50764 8.54863 2.62225 8.54863 2.74657C8.54863 2.88255 8.49947 2.99521 8.40114 3.08457C8.30674 3.17004 8.19268 3.21277 8.05896 3.21277C7.91343 3.21277 7.7915 3.16032 7.69317 3.05543L6.86722 2.1813L6.50143 1.7559L6.54863 2.62419V8.49249C6.54863 8.63624 6.49357 8.76056 6.38344 8.86545C6.27725 8.97035 6.14942 9.0228 5.99996 9.0228Z" fill="black"/>
</svg>
