<svg width="20" height="20" viewBox="0 0 20 20" fill="none" xmlns="http://www.w3.org/2000/svg">
<path d="M4.67577 17.5C3.22526 17.5 2.5 17.0396 2.5 16.1188C2.5 15.5728 2.67349 15 3.02048 14.4004C3.37315 13.8009 3.87656 13.2414 4.53072 12.7222C5.19056 12.2029 5.98123 11.7827 6.90273 11.4615C7.82423 11.1349 8.8595 10.9716 10.0085 10.9716C11.1462 10.9716 12.1758 11.1349 13.0973 11.4615C14.0245 11.7827 14.8151 12.2029 15.4693 12.7222C16.1234 13.2414 16.624 13.8009 16.971 14.4004C17.3237 15 17.5 15.5728 17.5 16.1188C17.5 17.0396 16.7747 17.5 15.3242 17.5H4.67577ZM4.40273 16.1108H15.6058C15.7025 16.1108 15.7708 16.0948 15.8106 16.0626C15.8561 16.0305 15.8788 15.977 15.8788 15.902C15.8788 15.5915 15.7509 15.2382 15.4949 14.8421C15.2389 14.4406 14.8578 14.0525 14.3515 13.6777C13.851 13.2976 13.2366 12.9845 12.5085 12.7382C11.7804 12.4866 10.9471 12.3608 10.0085 12.3608C9.06428 12.3608 8.22526 12.4866 7.49147 12.7382C6.76337 12.9845 6.14903 13.2976 5.64846 13.6777C5.1479 14.0525 4.76678 14.4406 4.50512 14.8421C4.24915 15.2382 4.12116 15.5915 4.12116 15.902C4.12116 15.977 4.14107 16.0305 4.18089 16.0626C4.22639 16.0948 4.30034 16.1108 4.40273 16.1108ZM10.0085 10.0321C9.32025 10.0321 8.6917 9.86081 8.12287 9.5182C7.55973 9.17559 7.11035 8.71788 6.77474 8.14507C6.43914 7.56692 6.27133 6.92987 6.27133 6.23394C6.27133 5.54872 6.43914 4.92505 6.77474 4.36295C7.11035 3.7955 7.55973 3.34315 8.12287 3.00589C8.6917 2.66863 9.32025 2.5 10.0085 2.5C10.6968 2.5 11.3225 2.66595 11.8857 2.99786C12.4545 3.32976 12.9039 3.77677 13.2338 4.33887C13.5694 4.90096 13.7372 5.5273 13.7372 6.21788C13.7372 6.91916 13.5694 7.55889 13.2338 8.13704C12.8982 8.7152 12.4488 9.17559 11.8857 9.5182C11.3225 9.86081 10.6968 10.0321 10.0085 10.0321ZM10.0085 8.6349C10.4067 8.6349 10.7708 8.53051 11.1007 8.32173C11.4306 8.1076 11.6951 7.81852 11.8942 7.4545C12.0933 7.08512 12.1928 6.67291 12.1928 6.21788C12.1928 5.77355 12.0933 5.37741 11.8942 5.02944C11.6951 4.67612 11.4306 4.39775 11.1007 4.19433C10.7708 3.9909 10.4067 3.88919 10.0085 3.88919C9.61035 3.88919 9.2463 3.99358 8.91638 4.20236C8.58646 4.40578 8.32196 4.68415 8.12287 5.03747C7.92378 5.39079 7.82423 5.78961 7.82423 6.23394C7.82423 6.68362 7.92378 7.09315 8.12287 7.46253C8.32196 7.82655 8.58646 8.11296 8.91638 8.32173C9.25199 8.53051 9.61604 8.6349 10.0085 8.6349Z" fill="white"/>
</svg>
