<svg width="16" height="16" viewBox="0 0 16 16" fill="none" xmlns="http://www.w3.org/2000/svg">
<path d="M2.67577 15.5C1.22526 15.5 0.5 15.0396 0.5 14.1188C0.5 13.5728 0.673493 13 1.02048 12.4004C1.37315 11.8009 1.87656 11.2414 2.53072 10.7222C3.19056 10.2029 3.98123 9.78265 4.90273 9.46146C5.82423 9.1349 6.8595 8.97163 8.00853 8.97163C9.14619 8.97163 10.1758 9.1349 11.0973 9.46146C12.0245 9.78265 12.8151 10.2029 13.4693 10.7222C14.1234 11.2414 14.624 11.8009 14.971 12.4004C15.3237 13 15.5 13.5728 15.5 14.1188C15.5 15.0396 14.7747 15.5 13.3242 15.5H2.67577ZM2.40273 14.1108H13.6058C13.7025 14.1108 13.7708 14.0948 13.8106 14.0626C13.8561 14.0305 13.8788 13.977 13.8788 13.902C13.8788 13.5915 13.7509 13.2382 13.4949 12.8421C13.2389 12.4406 12.8578 12.0525 12.3515 11.6777C11.851 11.2976 11.2366 10.9845 10.5085 10.7382C9.78043 10.4866 8.9471 10.3608 8.00853 10.3608C7.06428 10.3608 6.22526 10.4866 5.49147 10.7382C4.76337 10.9845 4.14903 11.2976 3.64846 11.6777C3.1479 12.0525 2.76678 12.4406 2.50512 12.8421C2.24915 13.2382 2.12116 13.5915 2.12116 13.902C2.12116 13.977 2.14107 14.0305 2.18089 14.0626C2.22639 14.0948 2.30034 14.1108 2.40273 14.1108ZM8.00853 8.03212C7.32025 8.03212 6.6917 7.86081 6.12287 7.5182C5.55973 7.17559 5.11035 6.71788 4.77474 6.14507C4.43914 5.56692 4.27133 4.92987 4.27133 4.23394C4.27133 3.54872 4.43914 2.92505 4.77474 2.36295C5.11035 1.7955 5.55973 1.34315 6.12287 1.00589C6.6917 0.66863 7.32025 0.5 8.00853 0.5C8.69681 0.5 9.32253 0.665953 9.88567 0.997859C10.4545 1.32976 10.9039 1.77677 11.2338 2.33887C11.5694 2.90096 11.7372 3.5273 11.7372 4.21788C11.7372 4.91916 11.5694 5.55889 11.2338 6.13704C10.8982 6.7152 10.4488 7.17559 9.88567 7.5182C9.32253 7.86081 8.69681 8.03212 8.00853 8.03212ZM8.00853 6.6349C8.40671 6.6349 8.77076 6.53051 9.10068 6.32173C9.4306 6.1076 9.69511 5.81852 9.8942 5.4545C10.0933 5.08512 10.1928 4.67291 10.1928 4.21788C10.1928 3.77355 10.0933 3.37741 9.8942 3.02944C9.69511 2.67612 9.4306 2.39775 9.10068 2.19433C8.77076 1.9909 8.40671 1.88919 8.00853 1.88919C7.61035 1.88919 7.2463 1.99358 6.91638 2.20236C6.58646 2.40578 6.32196 2.68415 6.12287 3.03747C5.92378 3.39079 5.82423 3.78961 5.82423 4.23394C5.82423 4.68362 5.92378 5.09315 6.12287 5.46253C6.32196 5.82655 6.58646 6.11296 6.91638 6.32173C7.25199 6.53051 7.61604 6.6349 8.00853 6.6349Z" fill="#CCCCCC"/>
</svg>
