<svg width="14" height="14" viewBox="0 0 14 14" fill="none" xmlns="http://www.w3.org/2000/svg">
<path d="M13.6667 10.2512C13.6667 10.5402 13.5694 10.782 13.3749 10.9767C13.1804 11.1713 12.9535 11.2686 12.6941 11.2686C12.4289 11.2686 12.2049 11.1713 12.0221 10.9767C11.8394 10.7761 11.7481 10.5431 11.7481 10.2777V6.96871L11.8895 3.3235L10.4572 4.93376L2.03099 13.3655C1.82468 13.5661 1.59185 13.6663 1.33249 13.6663C1.15566 13.6663 0.99061 13.6192 0.837353 13.5248C0.689991 13.4363 0.569154 13.3154 0.474842 13.162C0.38053 13.0087 0.333374 12.8465 0.333374 12.6754C0.333374 12.4218 0.439475 12.1888 0.651676 11.9764L9.06016 3.53584L10.6694 2.12022L6.86741 2.25294H3.71976C3.45451 2.25294 3.22462 2.16151 3.0301 1.97866C2.83558 1.78991 2.73833 1.56577 2.73833 1.30624C2.73833 1.04671 2.83264 0.819626 3.02126 0.624979C3.20988 0.430331 3.45156 0.333008 3.74628 0.333008H12.6234C12.9417 0.333008 13.1922 0.430331 13.3749 0.624979C13.5636 0.813727 13.6579 1.06146 13.6579 1.36818L13.6667 10.2512Z" fill="#F2F2F2"/>
</svg>
