<svg width="32" height="32" viewBox="0 0 32 32" fill="none" xmlns="http://www.w3.org/2000/svg">
<rect x="0.5" y="0.5" width="31" height="31" rx="9.5" fill="white"/>
<rect x="0.5" y="0.5" width="31" height="31" rx="9.5" stroke="#F2F2F2"/>
<path d="M13.1666 22.6667C12.6904 22.6667 12.4106 22.3357 12.4106 21.8002V20.3139H12.0892C10.363 20.3139 9.33325 19.2789 9.33325 17.4917V12.8222C9.33325 11.035 10.3392 10 12.1309 10H19.8749C21.6606 10 22.6666 11.035 22.6666 12.8222V17.4917C22.6666 19.2789 21.6606 20.3139 19.8749 20.3139H16.1963L14.1547 22.1432C13.744 22.5042 13.4999 22.6667 13.1666 22.6667ZM13.4523 21.3428L15.3392 19.4594C15.5952 19.1946 15.7678 19.1344 16.1309 19.1344H19.8392C20.9583 19.1344 21.4999 18.5628 21.4999 17.4556V12.8583C21.4999 11.7511 20.9583 11.1794 19.8392 11.1794H12.1606C11.0356 11.1794 10.4999 11.7511 10.4999 12.8583V17.4556C10.4999 18.5628 11.0356 19.1344 12.1606 19.1344H12.9702C13.3094 19.1344 13.4523 19.2728 13.4523 19.6279V21.3428Z" fill="black"/>
</svg>
