<svg width="32" height="32" viewBox="0 0 32 32" fill="none" xmlns="http://www.w3.org/2000/svg">
<rect x="0.5" y="0.5" width="31" height="31" rx="9.5" fill="white"/>
<rect x="0.5" y="0.5" width="31" height="31" rx="9.5" stroke="#F2F2F2"/>
<path d="M13.204 12.3371V11.0583C13.204 10.4923 13.3441 10.0642 13.6243 9.77424C13.9045 9.48073 14.3197 9.33398 14.8699 9.33398H16.7971C17.0944 9.33398 17.3593 9.37766 17.5916 9.46501C17.8274 9.54887 18.041 9.69213 18.2323 9.89478L20.785 12.552C20.9866 12.7652 21.1284 12.9923 21.2104 13.2334C21.2924 13.471 21.3334 13.7627 21.3334 14.1086V18.2596C21.3334 18.8256 21.1916 19.2536 20.908 19.5436C20.6278 19.8336 20.2143 19.9786 19.6675 19.9786H18.6168V18.9514H19.5753C19.8247 18.9514 20.011 18.8867 20.134 18.7575C20.2604 18.6247 20.3236 18.4378 20.3236 18.1967V13.857H18.0683C17.7505 13.857 17.5096 13.7749 17.3456 13.6107C17.1816 13.443 17.0996 13.1967 17.0996 12.8717V10.3665H14.9519C14.7058 10.3665 14.5196 10.4311 14.3932 10.5604C14.2701 10.6897 14.2086 10.8766 14.2086 11.1212V12.3371H13.204ZM17.9402 12.7407C17.9402 12.8315 17.959 12.8979 17.9966 12.9399C18.0376 12.9783 18.1008 12.9975 18.1862 12.9975H20.0622L17.9402 10.7962V12.7407ZM10.6667 20.9482V13.747C10.6667 13.1809 10.8069 12.7529 11.0871 12.4629C11.3673 12.1694 11.7825 12.0227 12.3326 12.0227H14.1164C14.4273 12.0227 14.6836 12.0576 14.8852 12.1275C15.0903 12.1939 15.2953 12.3354 15.5003 12.552L18.2785 15.4346C18.422 15.5849 18.5313 15.7281 18.6065 15.8644C18.6817 16.0007 18.7312 16.1526 18.7552 16.3204C18.7825 16.4846 18.7962 16.6837 18.7962 16.9178V20.9482C18.7962 21.5143 18.6561 21.9423 18.3759 22.2323C18.0957 22.5223 17.6805 22.6673 17.1303 22.6673H12.3326C11.7825 22.6673 11.3673 22.5223 11.0871 22.2323C10.8069 21.9458 10.6667 21.5178 10.6667 20.9482ZM11.6765 20.8853C11.6765 21.1299 11.738 21.3169 11.861 21.4461C11.9841 21.5754 12.1686 21.6401 12.4146 21.6401H17.0432C17.2892 21.6401 17.4737 21.5754 17.5967 21.4461C17.7232 21.3169 17.7864 21.1299 17.7864 20.8853V17.0384H15.08C14.7178 17.0384 14.4461 16.9475 14.265 16.7659C14.0839 16.5807 13.9934 16.2994 13.9934 15.922V13.0552H12.4198C12.1703 13.0552 11.9841 13.1198 11.861 13.2491C11.738 13.3784 11.6765 13.5635 11.6765 13.8046V20.8853ZM15.1825 16.1317H17.648L14.8801 13.2543V15.8225C14.8801 15.9308 14.904 16.0094 14.9519 16.0583C14.9997 16.1072 15.0766 16.1317 15.1825 16.1317Z" fill="black"/>
</svg>
