<svg width="32" height="32" viewBox="0 0 32 32" fill="none" xmlns="http://www.w3.org/2000/svg">
<rect x="0.5" y="0.5" width="31" height="31" rx="9.5" fill="white"/>
<rect x="0.5" y="0.5" width="31" height="31" rx="9.5" stroke="#F2F2F2"/>
<path d="M10.6909 17.3327C10.4384 17.3327 10.2098 17.274 10.0049 17.1568C9.80009 17.0348 9.63574 16.873 9.51189 16.6713C9.3928 16.4696 9.33325 16.2468 9.33325 16.0029C9.33325 15.7543 9.3928 15.5291 9.51189 15.3274C9.63574 15.1257 9.80009 14.9662 10.0049 14.849C10.2098 14.727 10.4384 14.666 10.6909 14.666C10.9386 14.666 11.1649 14.727 11.3697 14.849C11.5745 14.9662 11.7365 15.1257 11.8556 15.3274C11.9794 15.5291 12.0414 15.7543 12.0414 16.0029C12.0414 16.2468 11.9794 16.4696 11.8556 16.6713C11.7365 16.873 11.5745 17.0348 11.3697 17.1568C11.1649 17.274 10.9386 17.3327 10.6909 17.3327ZM15.9999 17.3327C15.7474 17.3327 15.5188 17.274 15.314 17.1568C15.1091 17.0348 14.9448 16.873 14.8209 16.6713C14.7018 16.4696 14.6423 16.2468 14.6423 16.0029C14.6423 15.7543 14.7018 15.5291 14.8209 15.3274C14.9448 15.1257 15.1091 14.9662 15.314 14.849C15.5188 14.727 15.7474 14.666 15.9999 14.666C16.2476 14.666 16.4739 14.727 16.6787 14.849C16.8836 14.9662 17.0455 15.1257 17.1646 15.3274C17.2885 15.5291 17.3504 15.7543 17.3504 16.0029C17.3504 16.2468 17.2885 16.4696 17.1646 16.6713C17.0455 16.873 16.8836 17.0348 16.6787 17.1568C16.4739 17.274 16.2476 17.3327 15.9999 17.3327ZM21.309 17.3327C21.0565 17.3327 20.8278 17.274 20.623 17.1568C20.4182 17.0348 20.2538 16.873 20.13 16.6713C20.0109 16.4696 19.9513 16.2468 19.9513 16.0029C19.9513 15.7543 20.0109 15.5291 20.13 15.3274C20.2538 15.1257 20.4182 14.9662 20.623 14.849C20.8278 14.727 21.0565 14.666 21.309 14.666C21.5567 14.666 21.7829 14.727 21.9878 14.849C22.1926 14.9662 22.357 15.1257 22.4808 15.3274C22.6047 15.5291 22.6666 15.7543 22.6666 16.0029C22.6666 16.2468 22.6047 16.4696 22.4808 16.6713C22.357 16.873 22.1926 17.0348 21.9878 17.1568C21.7829 17.274 21.5567 17.3327 21.309 17.3327Z" fill="black"/>
</svg>
