<svg width="32" height="32" viewBox="0 0 32 32" fill="none" xmlns="http://www.w3.org/2000/svg">
<rect x="0.5" y="0.5" width="31" height="31" rx="9.5" fill="white"/>
<rect x="0.5" y="0.5" width="31" height="31" rx="9.5" stroke="#F2F2F2"/>
<path d="M12.7398 22.6673C12.5104 22.6673 12.3288 22.5882 12.195 22.43C12.065 22.2758 12 22.0628 12 21.791V11.1779C12 10.5734 12.1453 10.115 12.4358 9.80257C12.7264 9.49018 13.1546 9.33398 13.7204 9.33398H18.2796C18.8454 9.33398 19.2736 9.49018 19.5642 9.80257C19.8547 10.115 20 10.5734 20 11.1779V21.791C20 22.0628 19.9331 22.2758 19.7993 22.43C19.6693 22.5882 19.4915 22.6673 19.2659 22.6673C19.1092 22.6673 18.9658 22.6166 18.8358 22.5152C18.7059 22.4178 18.5166 22.2413 18.2681 21.9857L16.0487 19.6611C16.0182 19.6246 15.9857 19.6246 15.9513 19.6611L13.7376 21.9857C13.4891 22.2413 13.298 22.4178 13.1642 22.5152C13.0342 22.6166 12.8927 22.6673 12.7398 22.6673ZM13.2846 20.6834L15.6244 18.2736C15.7467 18.1519 15.8729 18.091 16.0029 18.091C16.1329 18.091 16.2571 18.1519 16.3756 18.2736L18.7211 20.6834C18.7594 20.724 18.7957 20.7382 18.8301 20.726C18.8683 20.7179 18.8875 20.6834 18.8875 20.6226V11.2448C18.8875 10.9974 18.8282 10.8148 18.7097 10.6971C18.595 10.5754 18.4229 10.5146 18.1935 10.5146H13.8122C13.579 10.5146 13.4031 10.5754 13.2846 10.6971C13.1699 10.8148 13.1125 10.9974 13.1125 11.2448V20.6226C13.1125 20.6834 13.1297 20.7179 13.1642 20.726C13.2024 20.7382 13.2425 20.724 13.2846 20.6834Z" fill="black"/>
</svg>
