<svg width="32" height="32" viewBox="0 0 32 32" fill="none" xmlns="http://www.w3.org/2000/svg">
<rect x="0.5" y="0.5" width="31" height="31" rx="9.5" fill="white"/>
<rect x="0.5" y="0.5" width="31" height="31" rx="9.5" stroke="#F2F2F2"/>
<path d="M12.6019 22.6673C11.9647 22.6673 11.4829 22.508 11.1564 22.1895C10.83 21.8709 10.6667 21.3989 10.6667 20.7734V15.0391C10.6667 14.4175 10.83 13.9474 11.1564 13.6289C11.4829 13.3064 11.9647 13.1452 12.6019 13.1452H14.3128V14.2932H12.6726C12.3973 14.2932 12.1869 14.3651 12.0414 14.5088C11.8998 14.6487 11.829 14.8604 11.829 15.144V20.6743C11.829 20.9579 11.8998 21.1696 12.0414 21.3095C12.1869 21.4533 12.3973 21.5251 12.6726 21.5251H19.3216C19.593 21.5251 19.8015 21.4533 19.947 21.3095C20.0964 21.1696 20.1712 20.9579 20.1712 20.6743V15.144C20.1712 14.8604 20.0964 14.6487 19.947 14.5088C19.8015 14.3651 19.593 14.2932 19.3216 14.2932H17.6874V13.1452H19.3983C20.0355 13.1452 20.5173 13.3064 20.8437 13.6289C21.1702 13.9474 21.3334 14.4175 21.3334 15.0391V20.7734C21.3334 21.395 21.1702 21.8651 20.8437 22.1836C20.5173 22.5061 20.0355 22.6673 19.3983 22.6673H12.6019ZM16.0001 18.0228C15.8506 18.0228 15.7208 17.9703 15.6107 17.8655C15.5045 17.7606 15.4514 17.6362 15.4514 17.4925V11.6242L15.4986 10.7559L15.1269 11.1813L14.301 12.0554C14.2066 12.1603 14.0846 12.2128 13.9352 12.2128C13.7975 12.2128 13.6815 12.17 13.5871 12.0846C13.4966 11.9952 13.4514 11.8825 13.4514 11.7466C13.4514 11.6223 13.5006 11.5076 13.5989 11.4027L15.5812 9.52046C15.6559 9.45053 15.7267 9.40197 15.7936 9.37478C15.8605 9.34758 15.9293 9.33398 16.0001 9.33398C16.0709 9.33398 16.1397 9.34758 16.2066 9.37478C16.2734 9.40197 16.3423 9.45053 16.4131 9.52046L18.3954 11.4027C18.4976 11.5076 18.5488 11.6223 18.5488 11.7466C18.5488 11.8825 18.4996 11.9952 18.4013 12.0846C18.3069 12.17 18.1928 12.2128 18.0591 12.2128C17.9136 12.2128 17.7916 12.1603 17.6933 12.0554L16.8673 11.1813L16.5016 10.7559L16.5488 11.6242V17.4925C16.5488 17.6362 16.4937 17.7606 16.3836 17.8655C16.2774 17.9703 16.1495 18.0228 16.0001 18.0228Z" fill="black"/>
</svg>
