<svg width="32" height="32" viewBox="0 0 32 32" fill="none" xmlns="http://www.w3.org/2000/svg">
<rect x="0.5" y="0.5" width="31" height="31" rx="9.5" fill="white"/>
<rect x="0.5" y="0.5" width="31" height="31" rx="9.5" stroke="#F2F2F2"/>
<path d="M10.8643 23.3483C10.6915 23.2275 10.5853 23.0649 10.5458 22.8605C10.5112 22.6608 10.5433 22.4239 10.6421 22.1498L12.1677 17.8925L8.27968 15.2657C8.02788 15.0985 7.85262 14.9243 7.75387 14.7431C7.65513 14.5573 7.64032 14.3668 7.70944 14.1717C7.77856 13.9813 7.90939 13.8396 8.10194 13.7467C8.29449 13.6492 8.54628 13.6027 8.85732 13.6074L13.6192 13.6352L15.0707 9.35703C15.1645 9.07832 15.2879 8.86697 15.441 8.72297C15.5989 8.57432 15.7841 8.5 15.9964 8.5C16.2136 8.5 16.3988 8.57432 16.5518 8.72297C16.7098 8.86697 16.8357 9.07832 16.9295 9.35703L18.381 13.6352L23.1428 13.6074C23.4539 13.6027 23.7057 13.6492 23.8982 13.7467C24.0908 13.8396 24.2216 13.9813 24.2907 14.1717C24.3598 14.3668 24.345 14.5573 24.2463 14.7431C24.1475 14.9243 23.9723 15.0985 23.7205 15.2657L19.8325 17.8925L21.3581 22.1498C21.4568 22.4239 21.4864 22.6608 21.4469 22.8605C21.4124 23.0649 21.3087 23.2275 21.1359 23.3483C20.9631 23.4783 20.7681 23.5248 20.5509 23.4876C20.3336 23.4505 20.1016 23.3483 19.8547 23.181L15.9964 20.5124L12.1454 23.181C11.8986 23.3483 11.6665 23.4505 11.4493 23.4876C11.2321 23.5248 11.0371 23.4783 10.8643 23.3483ZM12.1677 21.6621C12.1775 21.676 12.1973 21.6737 12.2269 21.6551L15.5669 19.2303C15.715 19.1188 15.8581 19.0631 15.9964 19.0631C16.1396 19.0631 16.2852 19.1188 16.4333 19.2303L19.7733 21.6551C19.8029 21.6737 19.8226 21.676 19.8325 21.6621C19.8375 21.6528 19.8375 21.6342 19.8325 21.6063L18.4254 17.8716C18.3859 17.7601 18.3637 17.6603 18.3588 17.572C18.3588 17.4791 18.3835 17.3955 18.4328 17.3212C18.4872 17.2468 18.5686 17.1748 18.6772 17.1052L22.1579 14.8685C22.1875 14.8499 22.1999 14.8314 22.1949 14.8128C22.19 14.7988 22.1678 14.7919 22.1283 14.7919L17.9219 14.8894C17.7293 14.8941 17.5787 14.8639 17.4701 14.7988C17.3615 14.7292 17.28 14.6037 17.2257 14.4226L16.0408 10.6252C16.0309 10.5926 16.0161 10.5764 15.9964 10.5764C15.9816 10.5764 15.9692 10.5926 15.9594 10.6252L14.7744 14.4226C14.7201 14.6037 14.6387 14.7292 14.5301 14.7988C14.4214 14.8639 14.2709 14.8941 14.0783 14.8894L9.87189 14.7919C9.8324 14.7919 9.81018 14.7988 9.80524 14.8128C9.80031 14.8314 9.81265 14.8499 9.84227 14.8685L13.3229 17.1052C13.4316 17.1748 13.5105 17.2468 13.5599 17.3212C13.6142 17.3955 13.6389 17.4791 13.634 17.572C13.634 17.6603 13.6142 17.7601 13.5747 17.8716L12.1677 21.6063C12.1578 21.6342 12.1578 21.6528 12.1677 21.6621Z" fill="#4D4D4D"/>
</svg>
